<svg width="316" height="225" viewBox="0 0 316 225" fill="none" xmlns="http://www.w3.org/2000/svg">
<path d="M249.846 163.543C277.197 163.543 299.37 141.37 299.37 114.018C299.37 86.6665 277.197 64.4935 249.846 64.4935C222.494 64.4935 200.321 86.6665 200.321 114.018C200.321 141.37 222.494 163.543 249.846 163.543Z" fill="#E87B0F"/>
<path d="M247.417 161.173C274.769 161.173 296.942 139 296.942 111.648C296.942 84.2959 274.769 62.1229 247.417 62.1229C220.065 62.1229 197.892 84.2959 197.892 111.648C197.892 139 220.065 161.173 247.417 161.173Z" fill="#F7931E"/>
<path d="M248.104 155.184C248.083 154.63 248.515 154.164 249.067 154.143C249.621 154.122 250.086 154.553 250.108 155.107C250.129 155.66 249.698 156.126 249.145 156.147C249.132 156.147 249.119 156.148 249.105 156.148C248.569 156.148 248.125 155.723 248.104 155.183V155.184ZM242.335 155.894C241.784 155.831 241.389 155.335 241.451 154.784C241.513 154.233 242.011 153.838 242.561 153.9C243.112 153.963 243.507 154.46 243.445 155.01C243.387 155.522 242.952 155.9 242.45 155.9C242.412 155.9 242.374 155.898 242.336 155.894H242.335ZM254.741 154.576C254.636 154.033 254.992 153.506 255.535 153.401C256.08 153.296 256.605 153.652 256.711 154.195C256.816 154.739 256.46 155.265 255.916 155.37C255.852 155.383 255.788 155.389 255.725 155.389C255.254 155.389 254.833 155.056 254.741 154.575V154.576ZM235.641 154.607C235.107 154.461 234.792 153.909 234.938 153.375C235.084 152.84 235.636 152.526 236.17 152.672C236.704 152.818 237.02 153.37 236.873 153.904C236.751 154.351 236.347 154.642 235.906 154.642C235.819 154.642 235.729 154.63 235.641 154.607ZM261.207 152.961C261.021 152.439 261.29 151.865 261.812 151.677C262.333 151.49 262.907 151.76 263.095 152.281C263.283 152.802 263.012 153.377 262.491 153.564C262.378 153.605 262.264 153.624 262.152 153.624C261.741 153.624 261.356 153.369 261.208 152.96L261.207 152.961ZM229.219 152.305C228.714 152.078 228.488 151.485 228.715 150.979C228.941 150.474 229.535 150.247 230.04 150.474C230.547 150.7 230.772 151.294 230.546 151.8C230.379 152.172 230.012 152.392 229.629 152.392C229.493 152.392 229.352 152.364 229.22 152.304L229.219 152.305ZM267.344 150.373C267.079 149.886 267.258 149.278 267.744 149.012C268.231 148.746 268.839 148.926 269.105 149.412C269.371 149.898 269.19 150.507 268.705 150.773C268.553 150.856 268.388 150.895 268.226 150.895C267.871 150.895 267.526 150.707 267.344 150.373ZM223.228 149.046C222.763 148.744 222.631 148.123 222.932 147.658C223.232 147.194 223.854 147.06 224.318 147.361C224.783 147.663 224.916 148.284 224.614 148.749C224.423 149.046 224.101 149.206 223.772 149.206C223.585 149.206 223.396 149.154 223.227 149.045L223.228 149.046ZM273.014 146.875C272.678 146.435 272.762 145.805 273.203 145.469C273.643 145.132 274.273 145.217 274.609 145.657C274.944 146.098 274.86 146.727 274.42 147.063C274.238 147.202 274.024 147.269 273.811 147.269C273.509 147.269 273.212 147.133 273.013 146.875H273.014ZM217.806 144.911C217.393 144.543 217.356 143.91 217.725 143.495C218.093 143.082 218.728 143.045 219.141 143.414C219.554 143.782 219.591 144.417 219.223 144.83C219.025 145.053 218.75 145.166 218.474 145.166C218.237 145.166 217.999 145.083 217.807 144.911H217.806ZM278.088 142.553C277.689 142.169 277.677 141.534 278.061 141.135C278.445 140.736 279.08 140.724 279.479 141.108C279.878 141.492 279.89 142.127 279.505 142.526C279.309 142.731 279.046 142.834 278.783 142.834C278.532 142.834 278.282 142.74 278.087 142.553H278.088ZM213.076 140.004C212.723 139.576 212.783 138.945 213.211 138.592C213.637 138.239 214.27 138.299 214.622 138.726C214.975 139.152 214.915 139.785 214.488 140.138C214.301 140.293 214.075 140.368 213.849 140.368C213.561 140.368 213.274 140.244 213.076 140.004ZM282.448 137.511C281.995 137.192 281.887 136.566 282.207 136.113C282.526 135.66 283.151 135.551 283.605 135.871C284.057 136.19 284.165 136.816 283.846 137.269C283.651 137.546 283.341 137.694 283.025 137.694C282.825 137.694 282.625 137.635 282.448 137.511ZM209.147 134.436C208.863 133.96 209.019 133.344 209.495 133.06C209.971 132.777 210.586 132.932 210.87 133.408C211.154 133.884 210.998 134.5 210.522 134.783C210.361 134.879 210.184 134.926 210.009 134.926C209.668 134.926 209.335 134.751 209.146 134.436H209.147ZM285.991 131.863C285.495 131.617 285.292 131.016 285.539 130.519C285.785 130.023 286.386 129.82 286.883 130.066C287.379 130.312 287.582 130.913 287.336 131.41C287.16 131.763 286.805 131.967 286.436 131.967C286.287 131.967 286.135 131.933 285.991 131.863ZM206.116 128.335C205.908 127.822 206.156 127.237 206.669 127.03C207.183 126.822 207.767 127.07 207.975 127.583C208.183 128.097 207.935 128.681 207.421 128.889C207.298 128.939 207.171 128.962 207.046 128.962C206.649 128.962 206.274 128.725 206.116 128.335ZM288.629 125.738C288.1 125.572 287.808 125.007 287.975 124.479C288.141 123.951 288.705 123.658 289.233 123.826C289.762 123.992 290.054 124.557 289.887 125.084C289.753 125.512 289.358 125.786 288.931 125.786C288.831 125.786 288.73 125.771 288.629 125.739V125.738ZM204.055 121.837C203.929 121.298 204.264 120.758 204.803 120.632C205.343 120.505 205.882 120.84 206.008 121.38C206.135 121.919 205.8 122.459 205.26 122.585C205.184 122.602 205.107 122.611 205.032 122.611C204.577 122.611 204.164 122.298 204.056 121.837H204.055ZM290.292 119.284C289.745 119.201 289.369 118.688 289.452 118.141C289.536 117.592 290.047 117.217 290.595 117.3C291.143 117.385 291.519 117.896 291.435 118.444C291.359 118.939 290.932 119.295 290.446 119.295C290.395 119.295 290.343 119.291 290.292 119.283V119.284ZM203.016 115.1C202.974 114.548 203.387 114.065 203.94 114.023C204.492 113.98 204.975 114.394 205.017 114.947C205.06 115.498 204.646 115.981 204.093 116.024C204.067 116.026 204.041 116.027 204.016 116.027C203.497 116.027 203.057 115.627 203.017 115.1H203.016ZM289.944 111.65C289.944 111.638 289.944 111.626 289.944 111.614C289.944 111.6 289.944 111.586 289.944 111.573C289.943 111.019 290.391 110.569 290.945 110.568C291.499 110.568 291.949 111.015 291.95 111.569C291.95 111.583 291.95 111.595 291.95 111.608C291.95 111.622 291.95 111.636 291.95 111.649C291.95 112.202 291.501 112.652 290.947 112.652C290.393 112.652 289.944 112.202 289.944 111.649V111.65ZM203.935 109.361C203.383 109.32 202.968 108.839 203.009 108.286C203.05 107.734 203.532 107.32 204.084 107.361C204.637 107.402 205.051 107.883 205.01 108.436C204.971 108.962 204.53 109.364 204.01 109.364C203.985 109.364 203.96 109.363 203.935 109.361ZM289.44 105.081C289.355 104.534 289.73 104.022 290.277 103.937C290.825 103.852 291.337 104.227 291.422 104.775C291.508 105.322 291.133 105.835 290.585 105.92C290.533 105.928 290.482 105.932 290.431 105.932C289.944 105.932 289.517 105.577 289.441 105.082L289.44 105.081ZM204.785 102.751C204.246 102.626 203.91 102.087 204.035 101.548C204.16 101.008 204.699 100.672 205.238 100.797C205.778 100.922 206.114 101.46 205.988 102C205.881 102.463 205.469 102.776 205.013 102.776C204.938 102.776 204.861 102.768 204.785 102.75V102.751ZM287.951 98.7458C287.783 98.2174 288.075 97.6538 288.602 97.4863C289.13 97.3188 289.695 97.6107 289.862 98.1381C290.03 98.6666 289.739 99.2302 289.21 99.3976C289.109 99.4297 289.007 99.4448 288.906 99.4448C288.481 99.4448 288.086 99.172 287.951 98.7458ZM206.641 96.3451C206.128 96.1376 205.878 95.5539 206.086 95.0395C206.292 94.5261 206.877 94.2764 207.39 94.484C207.904 94.6905 208.153 95.2752 207.947 95.7886C207.789 96.1797 207.413 96.4173 207.015 96.4173C206.891 96.4173 206.765 96.3943 206.641 96.3451ZM285.506 92.714C285.259 92.2187 285.461 91.616 285.957 91.3683C286.452 91.1216 287.055 91.3232 287.302 91.8195C287.55 92.3149 287.347 92.9166 286.852 93.1643C286.708 93.2365 286.555 93.2696 286.405 93.2696C286.037 93.2696 285.682 93.066 285.507 92.714H285.506ZM209.459 90.3023C208.983 90.0185 208.826 89.4038 209.11 88.9275C209.393 88.4512 210.009 88.2957 210.485 88.5785C210.961 88.8613 211.118 89.477 210.834 89.9533C210.647 90.2692 210.313 90.4447 209.972 90.4447C209.797 90.4447 209.621 90.3986 209.46 90.3033L209.459 90.3023ZM282.167 87.1295C281.847 86.6772 281.954 86.0515 282.406 85.7316C282.858 85.4117 283.484 85.519 283.804 85.9713C284.124 86.4235 284.017 87.0493 283.564 87.3691C283.389 87.4935 283.186 87.5527 282.987 87.5527C282.672 87.5527 282.362 87.4053 282.167 87.1285V87.1295ZM213.167 84.7629C212.739 84.4099 212.679 83.7782 213.031 83.351C213.384 82.9228 214.015 82.8626 214.443 83.2146C214.871 83.5676 214.931 84.1983 214.579 84.6265C214.381 84.8672 214.094 84.9915 213.805 84.9915C213.581 84.9915 213.354 84.9173 213.167 84.7629ZM278.014 82.1155C277.63 81.7174 277.641 81.0827 278.039 80.6976C278.438 80.3125 279.072 80.3245 279.457 80.7226C279.841 81.1218 279.83 81.7565 279.432 82.1406C279.237 82.3281 278.986 82.4224 278.735 82.4224C278.473 82.4224 278.211 82.3191 278.014 82.1155ZM217.674 79.8512C217.305 79.4381 217.341 78.8043 217.753 78.4343C218.166 78.0652 218.8 78.1013 219.169 78.5135C219.538 78.9266 219.502 79.5604 219.09 79.9304C218.898 80.1009 218.66 80.1852 218.422 80.1852C218.146 80.1852 217.872 80.0718 217.673 79.8502L217.674 79.8512ZM273.148 77.7885C272.708 77.4535 272.622 76.8238 272.958 76.3826C273.293 75.9423 273.923 75.8561 274.364 76.192C274.804 76.528 274.89 77.1567 274.554 77.5979C274.357 77.8577 274.058 77.994 273.756 77.994C273.544 77.994 273.331 77.9269 273.149 77.7885H273.148ZM222.872 75.6806C222.571 75.2163 222.702 74.5946 223.166 74.2938C223.631 73.9919 224.252 74.1233 224.554 74.5876C224.856 75.0519 224.725 75.6736 224.259 75.9744C224.091 76.0847 223.901 76.1369 223.714 76.1369C223.386 76.1369 223.064 75.9764 222.871 75.6806H222.872ZM267.68 74.2516C267.194 73.9869 267.013 73.3782 267.278 72.8918C267.542 72.4055 268.151 72.225 268.638 72.4897C269.125 72.7535 269.305 73.3632 269.041 73.8495C268.859 74.1844 268.515 74.374 268.159 74.374C267.997 74.374 267.833 74.3349 267.681 74.2526L267.68 74.2516ZM228.644 72.3523C228.416 71.8469 228.641 71.2533 229.146 71.0256C229.65 70.798 230.245 71.0226 230.472 71.528C230.699 72.0324 230.475 72.6271 229.969 72.8547C229.835 72.9149 229.695 72.943 229.558 72.943C229.176 72.943 228.811 72.7234 228.644 72.3513V72.3523ZM261.736 71.5932C261.214 71.4067 260.942 70.8331 261.129 70.3117C261.316 69.7902 261.889 69.5185 262.411 69.705C262.932 69.8915 263.204 70.4651 263.017 70.9865C262.871 71.3967 262.485 71.6524 262.073 71.6524C261.96 71.6524 261.846 71.6333 261.735 71.5932H261.736ZM234.859 69.9466C234.711 69.4132 235.025 68.8606 235.559 68.7132C236.092 68.5668 236.645 68.8797 236.792 69.4142C236.94 69.9476 236.626 70.5002 236.092 70.6476C236.003 70.6727 235.914 70.6837 235.826 70.6837C235.385 70.6837 234.982 70.3919 234.86 69.9466H234.859ZM255.456 69.8815C254.912 69.7772 254.556 69.2517 254.66 68.7072C254.763 68.1627 255.289 67.8067 255.833 67.911C256.378 68.0143 256.734 68.5407 256.629 69.0852C256.537 69.5656 256.117 69.8995 255.646 69.8995C255.584 69.8995 255.52 69.8935 255.457 69.8825L255.456 69.8815ZM241.37 68.5247C241.307 67.9752 241.701 67.4768 242.251 67.4126C242.801 67.3494 243.299 67.7435 243.362 68.294C243.427 68.8446 243.032 69.342 242.482 69.4061C242.443 69.4111 242.404 69.4122 242.366 69.4122C241.863 69.4122 241.429 69.0351 241.371 68.5247H241.37ZM248.987 69.1514C248.434 69.1314 248.001 68.6671 248.021 68.1125C248.042 67.559 248.506 67.1268 249.06 67.1468C249.614 67.1669 250.046 67.6322 250.026 68.1857C250.006 68.7272 249.562 69.1524 249.023 69.1524C249.011 69.1524 248.998 69.1524 248.986 69.1524L248.987 69.1514Z" fill="#FBB03B"/>
<path d="M247.417 149.053C268.075 149.053 284.822 132.306 284.822 111.648C284.822 90.9896 268.075 74.2427 247.417 74.2427C226.759 74.2427 210.012 90.9896 210.012 111.648C210.012 132.306 226.759 149.053 247.417 149.053Z" fill="#FBB03B"/>
<path d="M212.44 113.3C212.44 92.642 229.187 75.8953 249.846 75.8953C257.108 75.8953 263.886 77.9651 269.624 81.5461C263.413 76.9563 255.732 74.2427 247.417 74.2427C226.758 74.2427 210.012 90.9894 210.012 111.648C210.012 125.044 217.054 136.796 227.639 143.402C218.419 136.589 212.44 125.643 212.44 113.3Z" fill="#E87B0F"/>
<mask id="mask0_0_2947" style="mask-type:luminance" maskUnits="userSpaceOnUse" x="229" y="98" width="6" height="1">
<path d="M231.966 98.6056H234.33C233.417 98.6056 232.069 98.6347 231.998 98.6357H229.633C229.704 98.6337 231.052 98.6056 231.966 98.6056Z" fill="white"/>
</mask>
<g mask="url(#mask0_0_2947)">
<path d="M231.966 98.6056H234.33C233.417 98.6056 232.069 98.6347 231.998 98.6357H229.633C229.704 98.6337 231.052 98.6056 231.966 98.6056Z" fill="#ACACAC"/>
</g>
<mask id="mask1_0_2947" style="mask-type:luminance" maskUnits="userSpaceOnUse" x="230" y="123" width="6" height="1">
<path d="M230.477 123.947H232.841C232.911 123.948 234.248 123.972 235.164 123.972H232.799C231.884 123.972 230.548 123.949 230.478 123.947H230.477Z" fill="white"/>
</mask>
<g mask="url(#mask1_0_2947)">
<path d="M230.477 123.947H232.841C232.911 123.948 234.248 123.972 235.164 123.972H232.799C231.884 123.972 230.548 123.949 230.478 123.947" fill="#D5D5D5"/>
</g>
<path d="M229.633 93.5063H231.998L237.854 93.5093H235.49L229.633 93.5063Z" fill="#D4D4D4"/>
<mask id="mask2_0_2947" style="mask-type:luminance" maskUnits="userSpaceOnUse" x="235" y="93" width="4" height="1">
<path d="M238.707 93.5203H236.342C236.056 93.5203 235.772 93.5173 235.491 93.5093H237.855C238.137 93.5173 238.421 93.5203 238.707 93.5203Z" fill="white"/>
</mask>
<g mask="url(#mask2_0_2947)">
<path d="M235.489 93.5091H237.854C237.897 93.5101 237.94 93.5111 237.983 93.5121H235.619C235.575 93.5121 235.532 93.5101 235.489 93.5091Z" fill="#D9D9D9"/>
<path d="M235.619 93.5122H237.984C238.223 93.5172 238.464 93.5192 238.707 93.5192H236.342C236.099 93.5192 235.859 93.5172 235.619 93.5122Z" fill="#D5D5D5"/>
</g>
<path d="M244.799 129.796H242.435V137.693H244.799V129.796Z" fill="#D0D0D0"/>
<path d="M238.194 85.6024H240.559L244.8 85.6034H242.436L238.194 85.6024Z" fill="#D4D4D4"/>
<path d="M244.801 85.6034H242.436V93.3359H244.801V85.6034Z" fill="#D0D0D0"/>
<path d="M244.902 113.413H242.537V123.986H244.902V113.413Z" fill="#D0D0D0"/>
<path d="M244.903 98.9826H242.538V108.572H244.903V98.9826Z" fill="#D0D0D0"/>
<mask id="mask3_0_2947" style="mask-type:luminance" maskUnits="userSpaceOnUse" x="242" y="108" width="5" height="1">
<path d="M242.538 108.572H244.903C245.357 108.572 245.995 108.595 246.731 108.595H244.366C243.63 108.595 242.992 108.572 242.538 108.572Z" fill="white"/>
</mask>
<g mask="url(#mask3_0_2947)">
<path d="M242.538 108.572H244.903C245.357 108.572 245.995 108.595 246.731 108.595H244.366C243.63 108.595 242.992 108.572 242.538 108.572Z" fill="#D5D5D5"/>
</g>
<mask id="mask4_0_2947" style="mask-type:luminance" maskUnits="userSpaceOnUse" x="242" y="123" width="6" height="2">
<path d="M242.536 123.987H244.901C245.169 123.987 245.488 123.993 245.85 123.998C246.206 124.003 246.602 124.009 247.026 124.009H244.661C244.238 124.009 243.842 124.003 243.486 123.998C243.124 123.993 242.804 123.987 242.536 123.987Z" fill="white"/>
</mask>
<g mask="url(#mask4_0_2947)">
<path d="M242.536 123.987H244.901C245.169 123.987 245.488 123.993 245.85 123.998C246.206 124.003 246.602 124.009 247.026 124.009H244.661C244.238 124.009 243.842 124.003 243.486 123.998C243.124 123.993 242.804 123.987 242.536 123.987Z" fill="#D5D5D5"/>
</g>
<mask id="mask5_0_2947" style="mask-type:luminance" maskUnits="userSpaceOnUse" x="242" y="98" width="6" height="1">
<path d="M244.896 98.9355H247.26C246.302 98.9355 245.462 98.9826 244.903 98.9826H242.538C243.098 98.9826 243.937 98.9355 244.896 98.9355Z" fill="white"/>
</mask>
<g mask="url(#mask5_0_2947)">
<path d="M244.896 98.9355H247.26C246.302 98.9355 245.462 98.9826 244.903 98.9826H242.538C243.098 98.9826 243.937 98.9355 244.896 98.9355Z" fill="#ACACAC"/>
</g>
<mask id="mask6_0_2947" style="mask-type:luminance" maskUnits="userSpaceOnUse" x="242" y="113" width="6" height="1">
<path d="M245.337 113.363H247.702C246.564 113.363 245.569 113.413 244.903 113.413H242.538C243.204 113.413 244.201 113.363 245.337 113.363Z" fill="white"/>
</mask>
<g mask="url(#mask6_0_2947)">
<path d="M245.337 113.363H247.702C246.564 113.363 245.569 113.413 244.903 113.413H242.538C243.204 113.413 244.201 113.363 245.337 113.363Z" fill="#ACACAC"/>
</g>
<path d="M252.438 129.726H250.073V137.693H252.438V129.726Z" fill="#D0D0D0"/>
<path d="M252.438 85.6013H250.073V93.4923H252.438V85.6013Z" fill="#D0D0D0"/>
<path d="M256.738 109.713C260.79 110.813 263.329 113.538 262.829 119.644C262.208 127.228 257.211 129.263 250.074 129.726L250.072 137.693H245.826L245.828 129.834C245.754 129.834 245.679 129.834 245.605 129.834C244.576 129.834 243.523 129.822 242.436 129.796V137.693L238.196 137.692L238.192 129.712C237.2 129.703 236.189 129.685 235.159 129.684H229.634L230.477 123.948C230.547 123.949 231.884 123.973 232.798 123.973C233.25 123.973 233.582 123.967 233.564 123.949C234.767 123.947 235.084 122.969 235.161 122.358V100.742C234.998 99.7669 234.437 98.6367 232.718 98.6357C232.735 98.6147 232.41 98.6076 231.966 98.6076C231.052 98.6076 229.704 98.6367 229.633 98.6377V93.5084L235.489 93.5114C236.37 93.5345 237.273 93.5155 238.192 93.4934V85.6044H242.435V93.337C243.569 93.3109 244.708 93.2858 245.825 93.2858V85.6024H250.072V93.4934C255.552 94.0359 259.894 95.9442 260.378 101.633C260.738 105.796 259.198 108.295 256.737 109.713H256.738ZM244.661 124.009C248.437 124.009 254.44 123.563 254.44 118.698C254.44 113.916 249.111 113.363 245.338 113.363C244.201 113.363 243.205 113.413 242.539 113.413L242.537 123.986C242.805 123.986 243.125 123.992 243.487 123.997C243.843 124.002 244.238 124.008 244.662 124.008M242.539 98.9817V108.571C242.993 108.571 243.631 108.594 244.367 108.594C247.518 108.594 252.465 108.177 252.466 103.779C252.466 99.4409 248.042 98.9345 244.897 98.9345C243.938 98.9345 243.099 98.9817 242.539 98.9817Z" fill="white"/>
<path d="M265.25 118.569C265.252 118.468 265.254 118.367 265.255 118.267C265.255 118.265 265.255 118.263 265.255 118.261C265.255 118.244 265.255 118.228 265.255 118.212C265.255 118.136 265.255 118.06 265.255 117.985C265.255 117.952 265.254 117.919 265.253 117.887C265.252 117.826 265.251 117.766 265.249 117.706C265.249 117.692 265.249 117.677 265.248 117.663C265.248 117.64 265.246 117.619 265.245 117.596C265.243 117.544 265.241 117.494 265.238 117.444C265.236 117.407 265.234 117.37 265.232 117.333C265.229 117.283 265.226 117.234 265.223 117.184C265.222 117.163 265.22 117.141 265.219 117.12C265.218 117.104 265.216 117.089 265.215 117.073C265.212 117.031 265.208 116.99 265.205 116.948C265.202 116.91 265.198 116.87 265.195 116.832C265.191 116.791 265.187 116.75 265.182 116.709C265.179 116.685 265.177 116.66 265.175 116.636C265.173 116.623 265.172 116.609 265.17 116.596C265.165 116.557 265.161 116.518 265.156 116.479C265.151 116.442 265.147 116.404 265.141 116.367C265.136 116.329 265.13 116.291 265.125 116.253C265.121 116.229 265.118 116.204 265.115 116.18C265.113 116.167 265.111 116.155 265.109 116.141C265.103 116.106 265.098 116.071 265.092 116.036C265.086 115.999 265.079 115.961 265.073 115.924C265.067 115.89 265.06 115.855 265.054 115.821C265.05 115.798 265.046 115.774 265.041 115.752C265.039 115.744 265.038 115.737 265.036 115.729C265.012 115.608 264.986 115.49 264.959 115.372C264.957 115.363 264.955 115.353 264.953 115.344C264.951 115.336 264.949 115.328 264.947 115.32C264.918 115.204 264.888 115.089 264.856 114.976C264.854 114.967 264.852 114.959 264.849 114.95C264.844 114.934 264.84 114.919 264.835 114.904C264.825 114.871 264.815 114.838 264.805 114.805C264.795 114.773 264.785 114.741 264.775 114.709C264.765 114.676 264.754 114.644 264.743 114.611C264.737 114.594 264.732 114.577 264.726 114.56C264.721 114.546 264.716 114.533 264.712 114.52C264.7 114.484 264.687 114.448 264.674 114.413C264.664 114.384 264.653 114.355 264.643 114.326C264.63 114.291 264.616 114.255 264.602 114.221C264.595 114.202 264.588 114.184 264.58 114.165C264.577 114.156 264.573 114.148 264.569 114.14C264.551 114.097 264.533 114.055 264.515 114.012C264.506 113.99 264.497 113.968 264.488 113.947C264.463 113.891 264.438 113.835 264.413 113.78C264.41 113.774 264.408 113.768 264.405 113.762C264.405 113.762 264.405 113.762 264.405 113.761C264.373 113.693 264.34 113.624 264.306 113.558C264.296 113.539 264.286 113.519 264.276 113.5C264.25 113.451 264.224 113.402 264.197 113.354C264.191 113.342 264.184 113.33 264.178 113.318C264.175 113.312 264.171 113.307 264.168 113.302C264.12 113.216 264.071 113.132 264.02 113.05C264.011 113.036 264.003 113.022 263.994 113.008C263.943 112.926 263.89 112.845 263.835 112.767C263.832 112.762 263.828 112.757 263.825 112.752C263.819 112.744 263.813 112.736 263.808 112.728C263.757 112.655 263.704 112.583 263.651 112.511C263.651 112.511 263.65 112.509 263.649 112.509C263.595 112.439 263.54 112.371 263.484 112.303C263.473 112.291 263.463 112.278 263.453 112.266C263.398 112.201 263.342 112.136 263.285 112.074C263.274 112.062 263.263 112.05 263.251 112.038C263.192 111.974 263.132 111.911 263.069 111.849C263.067 111.847 263.065 111.845 263.062 111.843C263.002 111.782 262.94 111.723 262.877 111.665C262.866 111.655 262.855 111.644 262.843 111.634C262.781 111.577 262.716 111.522 262.652 111.466C262.639 111.455 262.626 111.445 262.613 111.434C262.547 111.379 262.479 111.324 262.411 111.271C262.407 111.268 262.402 111.265 262.399 111.262C262.332 111.211 262.264 111.16 262.195 111.11C262.187 111.104 262.18 111.099 262.172 111.093C262.166 111.089 262.16 111.085 262.154 111.081C262.111 111.051 262.068 111.021 262.023 110.991C262.012 110.984 262.002 110.977 261.991 110.969C261.937 110.933 261.881 110.897 261.826 110.862C261.811 110.852 261.795 110.843 261.779 110.833C261.738 110.808 261.698 110.783 261.655 110.757C261.634 110.745 261.614 110.733 261.593 110.721C261.556 110.699 261.518 110.678 261.48 110.656C261.468 110.649 261.457 110.643 261.446 110.636C261.44 110.633 261.433 110.629 261.427 110.626C261.335 110.575 261.241 110.526 261.146 110.478C261.133 110.471 261.119 110.464 261.106 110.458C261.011 110.411 260.913 110.364 260.816 110.319C260.809 110.316 260.802 110.312 260.795 110.309C260.788 110.306 260.781 110.303 260.774 110.3C260.682 110.259 260.588 110.218 260.493 110.179C260.478 110.173 260.463 110.167 260.448 110.161C260.353 110.122 260.257 110.085 260.159 110.048C260.153 110.046 260.147 110.042 260.141 110.04C260.133 110.037 260.124 110.034 260.116 110.031C260.016 109.994 259.915 109.959 259.812 109.924C259.798 109.919 259.785 109.915 259.771 109.91C259.667 109.876 259.562 109.842 259.455 109.81C259.451 109.809 259.447 109.807 259.443 109.806C259.434 109.803 259.426 109.801 259.417 109.799C259.315 109.768 259.212 109.739 259.106 109.71C259.183 109.665 259.258 109.621 259.332 109.575C259.356 109.56 259.38 109.544 259.404 109.529C259.453 109.498 259.503 109.467 259.552 109.434C259.581 109.415 259.608 109.395 259.636 109.376C259.679 109.347 259.723 109.316 259.765 109.286C259.795 109.265 259.824 109.242 259.854 109.221C259.894 109.192 259.935 109.163 259.974 109.133C260.004 109.11 260.034 109.086 260.064 109.062C260.101 109.032 260.139 109.003 260.176 108.973C260.206 108.947 260.235 108.922 260.266 108.897C260.302 108.867 260.338 108.836 260.374 108.805C260.403 108.779 260.432 108.753 260.46 108.726C260.495 108.695 260.529 108.663 260.563 108.631C260.592 108.603 260.621 108.575 260.649 108.547C260.682 108.515 260.715 108.483 260.747 108.45C260.775 108.421 260.802 108.392 260.83 108.363C260.861 108.33 260.893 108.297 260.924 108.263C260.951 108.232 260.979 108.201 261.005 108.171C261.035 108.137 261.065 108.103 261.095 108.068C261.121 108.037 261.147 108.005 261.172 107.973C261.201 107.938 261.229 107.902 261.257 107.865C261.282 107.833 261.307 107.799 261.332 107.766C261.359 107.729 261.387 107.693 261.413 107.656C261.437 107.622 261.46 107.588 261.484 107.554C261.51 107.515 261.536 107.477 261.561 107.439C261.584 107.404 261.606 107.368 261.629 107.333C261.654 107.294 261.678 107.255 261.703 107.216C261.725 107.18 261.746 107.142 261.767 107.105C261.79 107.065 261.813 107.025 261.836 106.984C261.857 106.946 261.877 106.908 261.897 106.87C261.911 106.843 261.926 106.817 261.94 106.789C261.947 106.775 261.953 106.761 261.96 106.747C261.984 106.699 262.007 106.651 262.03 106.603C262.049 106.565 262.067 106.527 262.084 106.488C262.107 106.437 262.128 106.385 262.15 106.334C262.162 106.305 262.176 106.276 262.188 106.247C262.192 106.236 262.196 106.225 262.2 106.215C262.211 106.187 262.222 106.158 262.233 106.13C262.254 106.075 262.275 106.02 262.294 105.965C262.305 105.933 262.316 105.902 262.327 105.87C262.335 105.845 262.345 105.821 262.353 105.796C262.364 105.761 262.375 105.725 262.386 105.69C262.393 105.667 262.401 105.645 262.409 105.622C262.434 105.541 262.458 105.46 262.48 105.378C262.48 105.375 262.482 105.37 262.483 105.366C262.486 105.356 262.488 105.345 262.491 105.335C262.511 105.259 262.53 105.181 262.549 105.103C262.554 105.08 262.56 105.057 262.565 105.034C262.569 105.013 262.574 104.994 262.579 104.974C262.584 104.951 262.588 104.927 262.593 104.903C262.611 104.818 262.628 104.731 262.643 104.643C262.647 104.62 262.652 104.598 262.656 104.576C262.659 104.559 262.661 104.542 262.664 104.525C262.68 104.43 262.694 104.334 262.707 104.236C262.71 104.214 262.714 104.193 262.717 104.171C262.717 104.165 262.718 104.16 262.719 104.154C262.735 104.03 262.748 103.903 262.759 103.774C262.759 103.767 262.761 103.76 262.761 103.753C262.769 103.667 262.775 103.578 262.781 103.49C262.782 103.469 262.783 103.447 262.784 103.425C262.786 103.389 262.788 103.354 262.79 103.317C262.792 103.262 262.794 103.205 262.796 103.149C262.796 103.134 262.797 103.12 262.797 103.106C262.799 103.024 262.801 102.941 262.801 102.856C262.801 102.836 262.801 102.815 262.801 102.795C262.801 102.768 262.801 102.741 262.801 102.713C262.801 102.621 262.799 102.529 262.796 102.434C262.796 102.416 262.796 102.398 262.795 102.38C262.795 102.373 262.795 102.366 262.795 102.359C262.791 102.256 262.786 102.152 262.78 102.047C262.778 102.019 262.776 101.99 262.775 101.962C262.772 101.915 262.768 101.867 262.765 101.82C262.76 101.758 262.756 101.696 262.75 101.634C262.742 101.539 262.732 101.445 262.722 101.351C262.722 101.345 262.721 101.34 262.72 101.334C262.719 101.323 262.717 101.313 262.716 101.303C262.702 101.178 262.685 101.054 262.667 100.934C262.665 100.923 262.664 100.911 262.663 100.9C262.663 100.895 262.661 100.89 262.66 100.886C262.641 100.766 262.621 100.647 262.598 100.53C262.596 100.518 262.594 100.505 262.592 100.493C262.59 100.48 262.586 100.469 262.584 100.456C262.561 100.34 262.537 100.226 262.51 100.114C262.51 100.11 262.508 100.107 262.508 100.103C262.506 100.094 262.503 100.085 262.501 100.076C262.474 99.9644 262.445 99.8551 262.415 99.7478C262.411 99.7368 262.41 99.7258 262.405 99.7157C262.404 99.7107 262.402 99.7067 262.4 99.7017C262.368 99.5904 262.333 99.4811 262.297 99.3738C262.293 99.3628 262.29 99.3517 262.287 99.3407C262.281 99.3216 262.274 99.3036 262.267 99.2855C262.256 99.2535 262.245 99.2214 262.233 99.1903C262.219 99.1532 262.206 99.1151 262.192 99.078C262.18 99.0469 262.168 99.0158 262.156 98.9847C262.15 98.9697 262.145 98.9546 262.139 98.9406C262.131 98.9205 262.122 98.9005 262.114 98.8804C262.1 98.8453 262.085 98.8102 262.07 98.7761C262.056 98.743 262.04 98.7099 262.025 98.6768C262.01 98.6428 261.994 98.6087 261.979 98.5746C261.973 98.5605 261.967 98.5465 261.96 98.5325C261.953 98.5164 261.945 98.5014 261.937 98.4863C261.915 98.4412 261.893 98.3961 261.871 98.3519C261.857 98.3249 261.844 98.2978 261.83 98.2717C261.806 98.2256 261.782 98.1805 261.757 98.1353C261.748 98.1183 261.739 98.1003 261.729 98.0832C261.726 98.0782 261.723 98.0732 261.72 98.0682C261.67 97.9809 261.619 97.8947 261.567 97.8104C261.556 97.7924 261.545 97.7743 261.533 97.7573C261.479 97.6721 261.424 97.5868 261.367 97.5046C261.367 97.5046 261.367 97.5036 261.366 97.5026C261.364 97.5006 261.363 97.4986 261.361 97.4956C261.307 97.4194 261.253 97.3451 261.197 97.2719C261.184 97.2539 261.17 97.2368 261.157 97.2188C261.1 97.1446 261.042 97.0714 260.982 97.0002C260.974 96.9912 260.965 96.9821 260.957 96.9731C260.903 96.9089 260.847 96.8447 260.79 96.7826C260.776 96.7675 260.762 96.7515 260.748 96.7364C260.685 96.6683 260.622 96.6021 260.556 96.5369C260.544 96.5249 260.532 96.5128 260.519 96.5008C260.461 96.4436 260.402 96.3865 260.342 96.3313C260.329 96.3193 260.315 96.3062 260.302 96.2942C260.233 96.232 260.164 96.1719 260.093 96.1117C260.078 96.0987 260.062 96.0856 260.047 96.0736C259.983 96.0205 259.919 95.9683 259.852 95.9172C259.841 95.9081 259.83 95.8991 259.819 95.8911C259.745 95.8339 259.67 95.7788 259.594 95.7246C259.586 95.7196 259.579 95.7136 259.572 95.7076C259.558 95.6976 259.543 95.6875 259.527 95.6775C259.49 95.6514 259.453 95.6254 259.415 95.6003C259.39 95.5832 259.365 95.5662 259.339 95.5501C259.3 95.5251 259.262 95.5 259.222 95.4749C259.197 95.4589 259.172 95.4439 259.147 95.4278C259.105 95.4017 259.062 95.3757 259.019 95.3496C258.997 95.3366 258.975 95.3225 258.953 95.3095C258.894 95.2744 258.835 95.2413 258.774 95.2072C258.768 95.2042 258.762 95.2002 258.756 95.1972C258.756 95.1972 258.756 95.1972 258.755 95.1972C258.641 95.133 258.524 95.0718 258.405 95.0127C258.399 95.0096 258.392 95.0056 258.386 95.0026C258.271 94.9445 258.154 94.8893 258.035 94.8352C258.028 94.8321 258.021 94.8281 258.015 94.8251C258.012 94.8231 258.008 94.8221 258.005 94.8201C257.895 94.77 257.783 94.7218 257.669 94.6747C257.653 94.6677 257.637 94.6617 257.622 94.6547C257.511 94.6095 257.399 94.5654 257.284 94.5233C257.274 94.5193 257.265 94.5153 257.255 94.5123C257.247 94.5093 257.238 94.5062 257.229 94.5032C257.113 94.4601 256.995 94.419 256.877 94.3789C256.858 94.3729 256.839 94.3659 256.821 94.3598C256.702 94.3207 256.581 94.2816 256.459 94.2455C256.451 94.2435 256.444 94.2405 256.436 94.2385C256.426 94.2355 256.416 94.2335 256.406 94.2305C256.274 94.1914 256.142 94.1533 256.008 94.1172C255.99 94.1121 255.971 94.1071 255.953 94.1021C255.818 94.066 255.683 94.0319 255.546 93.9998C255.537 93.9978 255.529 93.9958 255.521 93.9938C255.512 93.9918 255.503 93.9898 255.493 93.9878C255.337 93.9507 255.179 93.9156 255.02 93.8825C255.004 93.8795 254.989 93.8755 254.973 93.8725C254.804 93.8374 254.635 93.8053 254.463 93.7742C254.46 93.7742 254.456 93.7732 254.453 93.7722C254.452 93.7722 254.45 93.7722 254.449 93.7722C254.252 93.7371 254.052 93.704 253.851 93.6729C253.835 93.6709 253.819 93.6679 253.803 93.6659C253.601 93.6358 253.397 93.6077 253.192 93.5817C253.19 93.5817 253.189 93.5817 253.187 93.5817C253.177 93.5807 253.167 93.5797 253.157 93.5777C253.058 93.5656 252.96 93.5536 252.862 93.5426C252.833 93.5395 252.804 93.5365 252.776 93.5325C252.665 93.5205 252.555 93.5085 252.444 93.4974H250.079C250.19 93.5085 250.301 93.5205 250.411 93.5325C250.44 93.5355 250.469 93.5385 250.497 93.5426C250.597 93.5536 250.695 93.5656 250.792 93.5777C250.804 93.5787 250.815 93.5807 250.827 93.5817C251.033 93.6077 251.236 93.6358 251.438 93.6659C251.454 93.6679 251.47 93.6709 251.486 93.6729C251.688 93.704 251.888 93.7361 252.085 93.7722C252.09 93.7722 252.094 93.7742 252.099 93.7752C252.27 93.8063 252.44 93.8394 252.608 93.8735C252.624 93.8765 252.639 93.8805 252.655 93.8835C252.815 93.9166 252.972 93.9517 253.129 93.9888C253.147 93.9928 253.164 93.9968 253.182 94.0018C253.318 94.0349 253.454 94.069 253.588 94.1041C253.606 94.1091 253.625 94.1141 253.643 94.1192C253.777 94.1553 253.91 94.1934 254.041 94.2325C254.059 94.2375 254.076 94.2425 254.094 94.2485C254.216 94.2856 254.337 94.3237 254.456 94.3628C254.475 94.3689 254.494 94.3749 254.513 94.3819C254.631 94.422 254.748 94.4631 254.865 94.5062C254.883 94.5133 254.902 94.5203 254.92 94.5263C255.033 94.5684 255.146 94.6125 255.258 94.6577C255.274 94.6637 255.29 94.6707 255.305 94.6777C255.418 94.7248 255.53 94.773 255.641 94.8231C255.651 94.8281 255.662 94.8332 255.672 94.8372C255.79 94.8913 255.907 94.9465 256.023 95.0046C256.029 95.0076 256.036 95.0117 256.042 95.0147C256.16 95.0748 256.277 95.136 256.392 95.1992C256.398 95.2032 256.405 95.2062 256.411 95.2102C256.471 95.2433 256.53 95.2774 256.589 95.3125C256.611 95.3255 256.633 95.3386 256.655 95.3516C256.699 95.3777 256.742 95.4037 256.785 95.4298C256.81 95.4448 256.834 95.4609 256.859 95.4769C256.898 95.502 256.937 95.5271 256.976 95.5522C257.001 95.5692 257.027 95.5863 257.053 95.6023C257.091 95.6274 257.128 95.6534 257.165 95.6795C257.187 95.6955 257.209 95.7106 257.231 95.7266C257.307 95.7808 257.383 95.8359 257.457 95.8931C257.468 95.9021 257.479 95.9111 257.49 95.9192C257.556 95.9703 257.62 96.0225 257.684 96.0756C257.699 96.0886 257.715 96.1007 257.73 96.1137C257.801 96.1729 257.871 96.234 257.939 96.2962C257.953 96.3083 257.966 96.3213 257.979 96.3333C258.039 96.3885 258.098 96.4456 258.157 96.5028C258.169 96.5148 258.181 96.5269 258.194 96.5389C258.259 96.6041 258.323 96.6703 258.385 96.7385C258.399 96.7535 258.413 96.7685 258.427 96.7846C258.485 96.8468 258.54 96.9099 258.595 96.9751C258.603 96.9841 258.611 96.9932 258.619 97.0022C258.679 97.0734 258.737 97.1466 258.794 97.2208C258.807 97.2379 258.822 97.2559 258.835 97.2739C258.89 97.3471 258.945 97.4214 258.998 97.4976C259 97.5006 259.002 97.5026 259.004 97.5056C259.061 97.5878 259.116 97.6731 259.17 97.7583C259.182 97.7763 259.194 97.7944 259.205 97.8114C259.257 97.8957 259.308 97.9819 259.357 98.0692C259.369 98.0912 259.382 98.1143 259.394 98.1363C259.419 98.1815 259.443 98.2266 259.467 98.2727C259.481 98.2998 259.495 98.3269 259.508 98.354C259.53 98.3981 259.553 98.4432 259.575 98.4883C259.589 98.5174 259.603 98.5475 259.617 98.5766C259.633 98.6107 259.648 98.6448 259.663 98.6789C259.678 98.7119 259.692 98.745 259.707 98.7791C259.722 98.8132 259.736 98.8483 259.751 98.8834C259.765 98.9185 259.779 98.9526 259.793 98.9877C259.805 99.0188 259.817 99.0499 259.829 99.081C259.843 99.1181 259.857 99.1552 259.87 99.1933C259.881 99.2254 259.893 99.2565 259.905 99.2886C259.915 99.3176 259.925 99.3467 259.935 99.3768C259.971 99.4841 260.005 99.5934 260.038 99.7047C260.042 99.7198 260.047 99.7358 260.051 99.7519C260.082 99.8591 260.11 99.9684 260.137 100.08C260.14 100.093 260.143 100.105 260.147 100.118C260.174 100.23 260.198 100.343 260.221 100.46C260.226 100.484 260.231 100.509 260.235 100.534C260.258 100.651 260.279 100.77 260.298 100.89C260.3 100.906 260.303 100.922 260.305 100.938C260.323 101.059 260.339 101.183 260.354 101.308C260.356 101.324 260.358 101.34 260.36 101.356C260.37 101.45 260.38 101.544 260.388 101.639C260.398 101.749 260.405 101.859 260.412 101.967C260.414 101.995 260.416 102.024 260.417 102.052C260.423 102.165 260.429 102.276 260.432 102.386C260.432 102.404 260.432 102.422 260.433 102.44C260.436 102.535 260.437 102.627 260.438 102.719C260.438 102.746 260.438 102.773 260.438 102.801C260.438 102.906 260.438 103.01 260.434 103.112C260.434 103.127 260.433 103.141 260.433 103.155C260.43 103.249 260.426 103.34 260.422 103.431C260.421 103.453 260.42 103.474 260.419 103.496C260.413 103.593 260.406 103.687 260.398 103.781C260.387 103.909 260.374 104.036 260.358 104.161C260.355 104.189 260.35 104.216 260.347 104.243C260.334 104.341 260.32 104.438 260.304 104.532C260.297 104.572 260.29 104.611 260.283 104.65C260.267 104.738 260.25 104.825 260.232 104.91C260.223 104.953 260.214 104.997 260.205 105.041C260.2 105.064 260.194 105.087 260.189 105.11C260.171 105.188 260.151 105.266 260.131 105.342C260.128 105.352 260.126 105.363 260.123 105.373C260.1 105.46 260.075 105.545 260.049 105.629C260.042 105.652 260.035 105.675 260.027 105.697C260.008 105.758 259.988 105.818 259.968 105.876C259.957 105.908 259.946 105.94 259.935 105.971C259.915 106.026 259.895 106.081 259.873 106.136C259.862 106.164 259.851 106.193 259.84 106.221C259.824 106.261 259.807 106.301 259.79 106.341C259.768 106.392 259.747 106.443 259.724 106.495C259.707 106.534 259.689 106.572 259.671 106.61C259.648 106.658 259.625 106.707 259.601 106.754C259.58 106.795 259.559 106.837 259.538 106.877C259.517 106.915 259.497 106.954 259.476 106.991C259.454 107.032 259.431 107.072 259.407 107.112C259.386 107.149 259.364 107.187 259.343 107.223C259.319 107.263 259.295 107.302 259.27 107.34C259.248 107.376 259.225 107.411 259.202 107.446C259.177 107.484 259.15 107.522 259.124 107.561C259.1 107.595 259.077 107.63 259.053 107.663C259.026 107.7 258.999 107.737 258.972 107.773C258.947 107.806 258.923 107.839 258.898 107.872C258.87 107.909 258.841 107.944 258.812 107.98C258.786 108.012 258.761 108.044 258.735 108.075C258.706 108.11 258.676 108.144 258.646 108.178C258.619 108.208 258.593 108.239 258.566 108.27C258.535 108.304 258.504 108.337 258.472 108.37C258.444 108.399 258.416 108.428 258.388 108.457C258.356 108.49 258.323 108.522 258.29 108.554C258.262 108.582 258.234 108.611 258.205 108.638C258.171 108.67 258.136 108.701 258.101 108.733C258.072 108.759 258.044 108.786 258.015 108.812C257.98 108.843 257.943 108.873 257.907 108.904C257.878 108.929 257.848 108.954 257.818 108.98C257.781 109.01 257.743 109.04 257.705 109.069C257.675 109.093 257.645 109.117 257.615 109.14C257.576 109.17 257.536 109.199 257.496 109.228C257.466 109.25 257.437 109.272 257.407 109.293C257.363 109.323 257.32 109.353 257.277 109.383C257.249 109.402 257.221 109.422 257.192 109.441C257.143 109.473 257.094 109.504 257.045 109.536C257.021 109.551 256.996 109.567 256.972 109.582C256.898 109.628 256.823 109.673 256.747 109.717C256.851 109.745 256.954 109.775 257.058 109.806C257.071 109.81 257.083 109.813 257.096 109.817C257.202 109.849 257.307 109.882 257.412 109.917C257.426 109.922 257.439 109.926 257.453 109.931C257.555 109.965 257.656 110.001 257.757 110.038C257.772 110.044 257.786 110.05 257.801 110.055C257.898 110.091 257.994 110.129 258.089 110.168C258.105 110.174 258.12 110.18 258.135 110.186C258.229 110.225 258.323 110.265 258.415 110.307C258.429 110.313 258.443 110.32 258.457 110.326C258.556 110.371 258.652 110.418 258.747 110.465C258.76 110.472 258.774 110.478 258.787 110.485C258.883 110.533 258.976 110.582 259.068 110.633C259.086 110.643 259.103 110.653 259.121 110.663C259.159 110.684 259.198 110.706 259.235 110.728C259.256 110.74 259.276 110.752 259.296 110.765C259.337 110.79 259.378 110.815 259.419 110.84C259.434 110.85 259.45 110.859 259.466 110.869C259.522 110.904 259.578 110.94 259.632 110.976C259.643 110.983 259.653 110.99 259.664 110.998C259.708 111.027 259.751 111.057 259.794 111.088C259.808 111.098 259.821 111.107 259.834 111.117C259.904 111.167 259.972 111.217 260.039 111.269C260.043 111.272 260.047 111.275 260.05 111.278C260.119 111.331 260.186 111.386 260.253 111.441C260.266 111.452 260.279 111.462 260.292 111.473C260.356 111.528 260.42 111.584 260.482 111.641C260.493 111.651 260.504 111.662 260.516 111.672C260.579 111.73 260.642 111.789 260.702 111.85C260.704 111.852 260.706 111.854 260.709 111.856C260.771 111.917 260.83 111.981 260.89 112.045C260.901 112.057 260.912 112.069 260.924 112.081C260.982 112.144 261.038 112.208 261.093 112.273C261.103 112.285 261.113 112.297 261.123 112.31C261.179 112.377 261.234 112.446 261.288 112.516C261.288 112.516 261.289 112.518 261.29 112.518C261.345 112.589 261.397 112.662 261.448 112.735C261.457 112.748 261.466 112.761 261.476 112.774C261.53 112.852 261.583 112.934 261.634 113.015C261.643 113.029 261.651 113.043 261.66 113.057C261.712 113.139 261.761 113.223 261.809 113.309C261.819 113.326 261.828 113.344 261.838 113.361C261.865 113.409 261.891 113.458 261.916 113.507C261.926 113.526 261.936 113.545 261.946 113.565C261.98 113.632 262.013 113.7 262.045 113.768C262.048 113.775 262.052 113.781 262.055 113.788C262.081 113.843 262.106 113.899 262.13 113.955C262.139 113.976 262.148 113.999 262.157 114.02C262.175 114.062 262.193 114.105 262.21 114.148C262.221 114.175 262.231 114.202 262.242 114.229C262.256 114.264 262.269 114.299 262.283 114.334C262.294 114.363 262.304 114.392 262.314 114.421C262.327 114.457 262.34 114.492 262.352 114.528C262.362 114.558 262.373 114.588 262.383 114.619C262.394 114.651 262.404 114.684 262.416 114.718C262.426 114.75 262.436 114.781 262.446 114.813C262.456 114.846 262.466 114.879 262.476 114.912C262.483 114.936 262.49 114.96 262.497 114.984C262.529 115.097 262.559 115.211 262.587 115.328C262.591 115.345 262.595 115.362 262.599 115.38C262.627 115.498 262.653 115.616 262.676 115.737C262.682 115.767 262.688 115.799 262.694 115.829C262.7 115.863 262.707 115.897 262.713 115.931C262.72 115.968 262.726 116.006 262.732 116.043C262.738 116.078 262.744 116.112 262.749 116.147C262.755 116.185 262.76 116.222 262.766 116.259C262.773 116.297 262.778 116.334 262.783 116.372C262.788 116.409 262.793 116.447 262.798 116.485C262.803 116.524 262.808 116.563 262.812 116.602C262.816 116.639 262.82 116.677 262.824 116.715C262.828 116.756 262.833 116.797 262.837 116.838C262.841 116.877 262.844 116.915 262.847 116.954C262.851 116.996 262.854 117.037 262.857 117.079C262.86 117.116 262.862 117.153 262.865 117.19C262.868 117.24 262.871 117.289 262.874 117.339C262.876 117.376 262.878 117.413 262.88 117.45C262.882 117.5 262.885 117.551 262.887 117.602C262.888 117.638 262.89 117.675 262.891 117.712C262.893 117.772 262.894 117.832 262.895 117.893C262.895 117.925 262.896 117.958 262.897 117.991C262.897 118.066 262.898 118.142 262.897 118.218C262.897 118.237 262.897 118.255 262.897 118.274C262.897 118.374 262.895 118.475 262.892 118.576C262.892 118.605 262.89 118.635 262.889 118.665C262.887 118.74 262.884 118.814 262.881 118.888C262.88 118.924 262.878 118.96 262.876 118.996C262.872 119.072 262.868 119.147 262.864 119.223C262.862 119.257 262.86 119.29 262.858 119.324C262.851 119.433 262.843 119.542 262.834 119.652C262.829 119.718 262.822 119.785 262.816 119.85C262.81 119.909 262.805 119.969 262.799 120.027C262.793 120.084 262.786 120.141 262.78 120.198C262.773 120.256 262.767 120.314 262.759 120.371C262.752 120.428 262.744 120.486 262.736 120.542C262.729 120.596 262.722 120.651 262.714 120.705C262.706 120.761 262.697 120.816 262.688 120.872C262.68 120.925 262.672 120.979 262.663 121.031C262.653 121.088 262.643 121.143 262.633 121.2C262.624 121.249 262.615 121.299 262.606 121.348C262.595 121.404 262.584 121.458 262.572 121.513C262.562 121.562 262.553 121.61 262.542 121.657C262.532 121.705 262.52 121.752 262.51 121.799C262.497 121.854 262.485 121.91 262.472 121.964C262.46 122.011 262.448 122.058 262.436 122.104C262.422 122.157 262.408 122.21 262.394 122.263C262.383 122.304 262.371 122.344 262.36 122.385C262.343 122.444 262.327 122.503 262.31 122.561C262.297 122.603 262.284 122.645 262.271 122.687C262.254 122.742 262.237 122.797 262.219 122.852C262.207 122.89 262.194 122.927 262.181 122.964C262.159 123.028 262.138 123.091 262.115 123.152C262.101 123.191 262.087 123.229 262.072 123.267C262.05 123.326 262.026 123.386 262.003 123.445C261.989 123.479 261.976 123.514 261.962 123.548C261.916 123.66 261.869 123.771 261.82 123.879C261.817 123.886 261.814 123.892 261.811 123.899C261.764 124.001 261.716 124.102 261.665 124.2C261.651 124.227 261.638 124.254 261.624 124.281C261.569 124.388 261.513 124.495 261.454 124.598C261.453 124.6 261.451 124.603 261.45 124.605C261.393 124.706 261.333 124.805 261.271 124.903C261.256 124.927 261.241 124.951 261.226 124.975C261.164 125.073 261.1 125.17 261.035 125.264C261.031 125.27 261.026 125.277 261.021 125.283C260.958 125.372 260.894 125.458 260.829 125.544C260.812 125.566 260.795 125.588 260.778 125.61C260.709 125.699 260.638 125.787 260.565 125.873C260.558 125.882 260.55 125.89 260.543 125.899C260.476 125.977 260.408 126.054 260.338 126.129C260.32 126.149 260.302 126.169 260.283 126.188C260.206 126.27 260.129 126.349 260.049 126.426C260.039 126.436 260.028 126.446 260.018 126.456C259.946 126.525 259.872 126.594 259.798 126.66C259.778 126.678 259.759 126.695 259.739 126.713C259.656 126.786 259.572 126.857 259.486 126.928C259.473 126.939 259.459 126.949 259.446 126.96C259.37 127.021 259.292 127.081 259.214 127.14C259.193 127.155 259.173 127.171 259.151 127.186C259.062 127.251 258.971 127.317 258.88 127.379C258.864 127.39 258.848 127.4 258.832 127.411C258.75 127.465 258.668 127.518 258.585 127.57C258.563 127.583 258.542 127.597 258.52 127.61C258.424 127.669 258.327 127.727 258.229 127.782C258.21 127.793 258.191 127.803 258.173 127.813C258.086 127.861 257.999 127.908 257.911 127.954C257.889 127.965 257.867 127.977 257.845 127.988C257.743 128.041 257.64 128.092 257.536 128.141C257.515 128.151 257.493 128.161 257.472 128.171C257.381 128.213 257.288 128.254 257.196 128.295C257.174 128.305 257.152 128.315 257.129 128.324C257.021 128.371 256.912 128.415 256.802 128.458C256.778 128.467 256.754 128.476 256.731 128.485C256.634 128.522 256.537 128.558 256.44 128.593C256.418 128.601 256.396 128.609 256.374 128.617C256.26 128.657 256.145 128.696 256.03 128.734C256.004 128.742 255.978 128.751 255.952 128.759C255.85 128.791 255.747 128.823 255.644 128.853C255.622 128.859 255.601 128.866 255.578 128.872C255.459 128.907 255.339 128.94 255.217 128.972C255.189 128.979 255.161 128.987 255.133 128.994C255.026 129.022 254.918 129.049 254.808 129.075C254.788 129.081 254.768 129.086 254.747 129.091C254.623 129.121 254.496 129.149 254.37 129.176C254.34 129.182 254.31 129.189 254.28 129.195C254.167 129.219 254.052 129.242 253.936 129.265C253.917 129.269 253.899 129.272 253.88 129.276C253.749 129.301 253.618 129.325 253.487 129.347C253.455 129.353 253.422 129.358 253.391 129.363C253.271 129.383 253.149 129.403 253.026 129.422C253.01 129.424 252.995 129.427 252.979 129.429C252.844 129.451 252.707 129.47 252.57 129.489C252.537 129.494 252.503 129.498 252.469 129.502C252.34 129.519 252.211 129.536 252.081 129.551C252.069 129.552 252.057 129.554 252.045 129.555C251.904 129.572 251.763 129.587 251.619 129.602C251.584 129.606 251.549 129.609 251.514 129.613C251.377 129.627 251.238 129.64 251.1 129.653C251.093 129.653 251.086 129.654 251.079 129.655C250.934 129.668 250.787 129.68 250.64 129.691C250.604 129.694 250.567 129.697 250.53 129.699C250.383 129.71 250.235 129.721 250.084 129.73H252.449C252.598 129.72 252.747 129.71 252.895 129.699C252.932 129.696 252.968 129.693 253.005 129.691C253.153 129.68 253.299 129.668 253.445 129.655C253.452 129.655 253.459 129.654 253.466 129.653C253.605 129.64 253.742 129.627 253.88 129.613C253.915 129.609 253.95 129.606 253.985 129.602C254.127 129.587 254.269 129.572 254.41 129.555C254.422 129.554 254.434 129.552 254.446 129.551C254.577 129.535 254.706 129.519 254.834 129.502C254.869 129.498 254.902 129.493 254.936 129.489C255.073 129.47 255.209 129.451 255.345 129.429C255.361 129.427 255.376 129.424 255.392 129.422C255.514 129.403 255.637 129.383 255.757 129.363C255.789 129.358 255.821 129.352 255.852 129.347C255.985 129.324 256.116 129.3 256.245 129.276C256.264 129.272 256.282 129.269 256.301 129.265C256.417 129.243 256.531 129.219 256.645 129.195C256.676 129.189 256.706 129.182 256.736 129.176C256.863 129.149 256.988 129.12 257.113 129.091C257.133 129.086 257.153 129.081 257.174 129.075C257.283 129.049 257.392 129.022 257.499 128.994C257.527 128.987 257.555 128.979 257.583 128.972C257.704 128.94 257.825 128.906 257.944 128.872C257.966 128.866 257.987 128.859 258.009 128.853C258.113 128.822 258.215 128.791 258.317 128.759C258.343 128.751 258.369 128.743 258.395 128.734C258.512 128.695 258.626 128.657 258.739 128.617C258.761 128.609 258.783 128.601 258.805 128.593C258.904 128.558 259.001 128.522 259.096 128.485C259.12 128.476 259.144 128.467 259.167 128.458C259.278 128.415 259.387 128.37 259.494 128.324C259.516 128.314 259.54 128.305 259.562 128.295C259.655 128.255 259.747 128.214 259.837 128.171C259.858 128.161 259.88 128.151 259.902 128.141C260.006 128.092 260.109 128.041 260.21 127.988C260.232 127.977 260.255 127.965 260.277 127.954C260.365 127.908 260.452 127.861 260.538 127.813C260.557 127.803 260.576 127.792 260.594 127.782C260.693 127.726 260.79 127.669 260.885 127.61C260.907 127.597 260.928 127.583 260.95 127.57C261.034 127.518 261.116 127.465 261.197 127.411C261.213 127.4 261.229 127.39 261.245 127.379C261.338 127.317 261.428 127.252 261.517 127.186C261.538 127.171 261.558 127.155 261.579 127.14C261.658 127.081 261.736 127.021 261.812 126.96C261.825 126.949 261.839 126.939 261.852 126.928C261.938 126.857 262.022 126.786 262.105 126.713C262.125 126.696 262.144 126.678 262.164 126.66C262.238 126.594 262.311 126.525 262.383 126.456C262.393 126.446 262.404 126.436 262.415 126.426C262.494 126.349 262.571 126.269 262.648 126.188C262.666 126.168 262.685 126.149 262.703 126.129C262.774 126.054 262.842 125.977 262.909 125.899C262.916 125.89 262.924 125.882 262.932 125.873C263.004 125.787 263.075 125.699 263.145 125.61C263.162 125.588 263.179 125.566 263.196 125.544C263.261 125.458 263.325 125.371 263.387 125.283C263.392 125.277 263.396 125.27 263.401 125.264C263.467 125.17 263.531 125.073 263.593 124.975C263.608 124.951 263.623 124.927 263.638 124.903C263.699 124.806 263.758 124.706 263.816 124.605C263.817 124.603 263.819 124.6 263.82 124.598C263.879 124.495 263.936 124.388 263.991 124.281C263.998 124.268 264.005 124.255 264.012 124.242C264.019 124.228 264.025 124.214 264.032 124.2C264.082 124.101 264.13 124.001 264.177 123.899C264.18 123.892 264.183 123.886 264.186 123.879C264.236 123.771 264.283 123.66 264.329 123.548C264.334 123.535 264.34 123.522 264.346 123.509C264.354 123.488 264.362 123.466 264.371 123.445C264.394 123.387 264.417 123.327 264.439 123.267C264.453 123.229 264.468 123.191 264.482 123.152C264.504 123.09 264.526 123.028 264.548 122.964C264.557 122.938 264.567 122.913 264.576 122.886C264.58 122.875 264.583 122.863 264.587 122.851C264.605 122.797 264.622 122.741 264.639 122.686C264.652 122.644 264.665 122.602 264.678 122.56C264.695 122.502 264.712 122.443 264.728 122.384C264.738 122.35 264.748 122.316 264.757 122.282C264.759 122.275 264.76 122.269 264.762 122.262C264.776 122.209 264.789 122.155 264.803 122.102C264.815 122.056 264.827 122.01 264.839 121.963C264.852 121.909 264.865 121.852 264.877 121.797C264.887 121.755 264.897 121.714 264.906 121.671C264.907 121.666 264.908 121.66 264.909 121.655C264.919 121.608 264.93 121.56 264.94 121.511C264.951 121.456 264.963 121.401 264.974 121.346C264.983 121.297 264.992 121.247 265.001 121.198C265.01 121.148 265.019 121.1 265.028 121.051C265.029 121.044 265.03 121.037 265.031 121.029C265.04 120.976 265.048 120.923 265.056 120.87C265.065 120.814 265.074 120.759 265.082 120.703C265.09 120.649 265.097 120.594 265.104 120.54C265.111 120.491 265.118 120.442 265.124 120.393C265.125 120.385 265.126 120.377 265.127 120.369C265.134 120.312 265.14 120.254 265.147 120.196C265.153 120.14 265.16 120.082 265.166 120.025C265.172 119.967 265.177 119.907 265.183 119.848C265.188 119.798 265.193 119.749 265.197 119.698C265.198 119.682 265.2 119.666 265.201 119.65C265.21 119.54 265.218 119.431 265.225 119.322C265.227 119.289 265.229 119.255 265.231 119.222C265.236 119.146 265.24 119.071 265.243 118.995C265.243 118.976 265.245 118.956 265.246 118.937C265.246 118.92 265.247 118.904 265.248 118.887C265.251 118.812 265.254 118.738 265.256 118.664C265.256 118.634 265.258 118.605 265.259 118.575L265.25 118.569Z" fill="#D0D0D0"/>
<g style="mix-blend-mode:multiply" opacity="0.3">
<path d="M250.401 221.524C286.153 221.524 315.136 219.105 315.136 216.121C315.136 213.137 286.153 210.718 250.401 210.718C214.649 210.718 185.666 213.137 185.666 216.121C185.666 219.105 214.649 221.524 250.401 221.524Z" fill="#1A1A1A"/>
</g>
<g style="mix-blend-mode:multiply" opacity="0.3">
<path d="M73.4284 224.466C109.181 224.466 138.164 222.047 138.164 219.063C138.164 216.079 109.181 213.66 73.4284 213.66C37.6761 213.66 8.69318 216.079 8.69318 219.063C8.69318 222.047 37.6761 224.466 73.4284 224.466Z" fill="#1A1A1A"/>
</g>
<path d="M231.483 213.652C235.193 209.942 235.193 203.928 231.483 200.218C227.773 196.508 221.758 196.508 218.049 200.218C214.339 203.928 214.339 209.942 218.049 213.652C221.758 217.362 227.773 217.362 231.483 213.652Z" fill="black"/>
<path d="M231.658 206.935C231.658 210.742 228.572 213.827 224.766 213.827C220.959 213.827 217.874 210.742 217.874 206.935C217.874 203.128 220.959 200.043 224.766 200.043C228.572 200.043 231.658 203.128 231.658 206.935Z" fill="white"/>
<path d="M288.214 213.653C291.924 209.943 291.924 203.928 288.214 200.219C284.504 196.509 278.489 196.509 274.78 200.219C271.07 203.928 271.07 209.943 274.78 213.653C278.489 217.363 284.504 217.363 288.214 213.653Z" fill="black"/>
<path d="M288.389 206.935C288.389 210.742 285.303 213.827 281.497 213.827C277.69 213.827 274.605 210.742 274.605 206.935C274.605 203.128 277.69 200.043 281.497 200.043C285.303 200.043 288.389 203.128 288.389 206.935Z" fill="white"/>
<path d="M234.187 195.084L233.038 199.024L232.385 201.26L231.336 204.853L230.893 206.37C230.098 209.092 227.602 210.964 224.765 210.964C221.928 210.964 219.43 209.092 218.636 206.37L218.192 204.853L217.146 201.261L216.492 199.023L215.343 195.083H234.186L234.187 195.084Z" fill="#E74036"/>
<path d="M281.497 210.965C278.66 210.965 276.163 209.093 275.369 206.369L272.076 195.084H290.92L287.627 206.369C286.832 209.093 284.336 210.965 281.499 210.965H281.497Z" fill="#E74036"/>
<path d="M226.878 206.935C226.878 208.102 225.932 209.048 224.765 209.048C223.597 209.048 222.652 208.102 222.652 206.935C222.652 205.768 223.597 204.822 224.765 204.822C225.932 204.822 226.878 205.768 226.878 206.935Z" fill="white"/>
<path d="M225.381 205.451H224.15L223.281 206.32V207.551L224.15 208.42H225.381L226.25 207.551V206.32L225.381 205.451Z" fill="#1A1A1A"/>
<path d="M225.085 207.707C225.511 207.531 225.714 207.042 225.537 206.616C225.361 206.19 224.872 205.987 224.446 206.164C224.02 206.341 223.817 206.829 223.994 207.255C224.17 207.682 224.659 207.884 225.085 207.707Z" fill="white"/>
<path d="M283.61 206.935C283.61 208.102 282.664 209.048 281.497 209.048C280.329 209.048 279.384 208.102 279.384 206.935C279.384 205.768 280.329 204.822 281.497 204.822C282.664 204.822 283.61 205.768 283.61 206.935Z" fill="white"/>
<path d="M282.111 205.451H280.882L280.013 206.32V207.551L280.882 208.42H282.111L282.982 207.551V206.32L282.111 205.451Z" fill="#1A1A1A"/>
<path d="M282.087 207.526C282.414 207.2 282.414 206.671 282.087 206.345C281.761 206.019 281.232 206.019 280.906 206.345C280.58 206.671 280.58 207.2 280.906 207.526C281.232 207.853 281.761 207.853 282.087 207.526Z" fill="white"/>
<path d="M234.187 195.084L233.038 199.024H216.493L215.344 195.084H234.187Z" fill="#C1231F"/>
<path d="M290.919 195.084L289.77 199.024H273.225L272.076 195.084H290.919Z" fill="#C1231F"/>
<path d="M308.501 112.252C307.988 111.622 307.227 111.23 306.414 111.178C303.307 110.98 299.315 110.724 294.673 110.427C294.664 110.426 294.654 110.426 294.645 110.425C294.629 110.424 294.611 110.423 294.594 110.422H294.588C285.755 109.856 274.578 109.141 262.658 108.38C262.641 108.378 262.625 108.377 262.608 108.376H262.59C259.009 108.146 255.361 107.913 251.69 107.679C251.672 107.678 251.654 107.677 251.637 107.676C248.158 107.453 244.658 107.228 241.174 107.008C241.166 107.006 241.156 107.006 241.148 107.005C241.135 107.004 241.123 107.004 241.11 107.003H241.102C237.543 106.774 234.003 106.549 230.516 106.327C223.025 105.849 215.794 105.386 209.214 104.968C209.192 104.966 209.172 104.965 209.152 104.964C209.148 104.963 209.143 104.963 209.138 104.963C205.357 104.722 201.791 104.496 198.514 104.287C198.508 104.287 198.501 104.286 198.495 104.286C194.804 104.053 191.483 103.842 188.636 103.661C187.636 103.598 186.697 103.538 185.818 103.483C183.73 103.351 181.999 103.242 180.685 103.161C180.011 103.119 179.366 103.301 178.836 103.67C178.54 103.874 178.279 104.138 178.069 104.451C177.48 105.323 177.401 106.411 177.855 107.36L184.884 122.028L185.034 122.34L189.031 130.684C189.036 130.695 189.042 130.705 189.046 130.715L200.771 155.185C200.783 155.209 200.793 155.232 200.806 155.256L207.935 170.135C208.43 171.167 209.457 171.802 210.576 171.802C210.718 171.802 210.86 171.791 211.005 171.77L216.964 170.906C216.964 170.906 216.968 170.905 216.969 170.905C216.983 170.904 216.996 170.902 217.009 170.9C217.011 170.901 217.013 170.9 217.015 170.899C217.029 170.898 217.041 170.896 217.055 170.893C217.059 170.893 217.063 170.893 217.069 170.891L224.928 169.752H224.929L224.979 169.744L230.66 168.92L230.693 168.916L233.214 168.55C233.214 168.55 233.217 168.55 233.219 168.549L233.276 168.541C233.283 168.541 233.291 168.539 233.298 168.538L233.982 168.439H233.983L240.362 167.513C240.383 167.511 240.405 167.509 240.426 167.505L248.105 166.392C248.11 166.392 248.117 166.391 248.123 166.39L256.292 165.205L264.247 164.053C264.256 164.052 264.266 164.05 264.275 164.049L272.237 162.894C272.244 162.893 272.251 162.892 272.258 162.891L287.841 160.632C287.863 160.629 287.884 160.627 287.904 160.624L296.212 159.419L300.841 158.748C302.126 158.562 303.148 157.533 303.328 156.247L304.704 146.357C304.708 146.331 304.711 146.304 304.715 146.278L306.931 130.362C306.931 130.362 306.933 130.354 306.933 130.348C306.936 130.33 306.938 130.312 306.94 130.294C306.94 130.29 306.941 130.286 306.941 130.281L309.135 114.517C309.248 113.709 309.016 112.885 308.502 112.256L308.501 112.252ZM300.835 155.894C300.81 156.077 300.662 156.226 300.48 156.252L297.257 156.719L294.751 157.082L288.863 157.936L286.366 158.298L280.736 159.114L278.245 159.475L273.094 160.222L270.602 160.583L265.019 161.392L262.519 161.754L257.05 162.547L254.542 162.91L248.819 163.74L246.301 164.106L241.079 164.863L238.547 165.23L233.872 165.908L231.315 166.279L225.55 167.114L222.979 167.487L217.606 168.265L215.016 168.641L210.645 169.275C210.464 169.301 210.287 169.208 210.206 169.042L203.85 155.778L202.687 153.35L192.173 131.408L190.968 128.892L187.314 121.268C187.311 121.26 187.308 121.251 187.303 121.243L187.201 121.032L180.127 106.268C180.035 106.078 180.106 105.926 180.158 105.852C180.205 105.78 180.311 105.667 180.501 105.667C180.51 105.667 180.52 105.667 180.531 105.668C182.107 105.766 184.285 105.903 186.959 106.071C187.85 106.128 188.798 106.188 189.796 106.251C192.124 106.397 194.728 106.564 197.561 106.743C198.473 106.801 199.406 106.86 200.364 106.922C202.844 107.079 205.469 107.246 208.214 107.421C209.125 107.479 210.05 107.537 210.986 107.597C213.629 107.765 216.365 107.94 219.174 108.119C220.072 108.176 220.977 108.234 221.89 108.293H221.891C224.373 108.451 226.902 108.612 229.464 108.775C230.354 108.832 231.248 108.889 232.145 108.947H232.146C234.768 109.114 237.415 109.283 240.074 109.454C240.958 109.51 241.841 109.567 242.726 109.623C245.339 109.79 247.958 109.957 250.567 110.123C251.442 110.18 252.317 110.236 253.188 110.292C255.977 110.47 258.747 110.647 261.482 110.822H261.483C262.349 110.878 263.211 110.934 264.07 110.988C266.811 111.162 269.507 111.336 272.142 111.503C272.987 111.557 273.825 111.611 274.656 111.665C277.66 111.857 280.57 112.043 283.356 112.22C284.212 112.275 285.057 112.331 285.888 112.383C288.501 112.549 290.99 112.71 293.328 112.859C294.19 112.914 295.03 112.968 295.85 113.021C299.923 113.28 303.449 113.507 306.254 113.686C306.412 113.697 306.508 113.787 306.552 113.84C306.595 113.893 306.664 114.005 306.642 114.163L304.592 128.892L304.241 131.408L302.352 144.98L301.997 147.534L300.834 155.891L300.835 155.894Z" fill="#DCE8F2"/>
<path d="M305.687 131.41H190.174C189.48 131.41 188.916 130.846 188.916 130.151C188.916 129.456 189.48 128.893 190.174 128.893H305.687C306.382 128.893 306.946 129.456 306.946 130.151C306.946 130.846 306.382 131.41 305.687 131.41Z" fill="#DCE8F2"/>
<path d="M201.925 155.936C201.278 155.936 200.728 155.44 200.673 154.783C200.615 154.09 201.129 153.482 201.821 153.424L303.355 144.896C304.046 144.839 304.655 145.353 304.713 146.045C304.772 146.737 304.257 147.345 303.565 147.403L202.031 155.931C201.995 155.934 201.96 155.935 201.924 155.935L201.925 155.936Z" fill="#DCE8F2"/>
<path d="M296.043 159.424C295.367 159.424 294.809 158.887 294.787 158.206L293.291 111.72C293.269 111.026 293.813 110.444 294.508 110.422C295.202 110.401 295.783 110.945 295.806 111.64L297.302 158.126C297.324 158.82 296.779 159.402 296.084 159.424C296.07 159.424 296.057 159.424 296.043 159.424Z" fill="#DCE8F2"/>
<path d="M287.695 160.634C287.037 160.634 286.485 160.124 286.44 159.458L283.284 111.12C283.239 110.427 283.764 109.829 284.457 109.783C285.146 109.74 285.749 110.263 285.795 110.956L288.951 159.293C288.997 159.986 288.471 160.585 287.778 160.631C287.75 160.633 287.723 160.634 287.695 160.634Z" fill="#DCE8F2"/>
<path d="M279.498 160.635C278.874 160.635 278.333 160.172 278.252 159.537L272.142 111.84C272.053 111.151 272.541 110.521 273.23 110.432C273.92 110.345 274.549 110.832 274.638 111.52L280.748 159.217C280.836 159.906 280.349 160.537 279.66 160.625C279.605 160.632 279.551 160.635 279.498 160.635Z" fill="#DCE8F2"/>
<path d="M272.073 162.9C271.478 162.9 270.948 162.475 270.837 161.868L261.305 109.858C261.18 109.174 261.632 108.519 262.316 108.394C262.998 108.267 263.655 108.721 263.78 109.405L273.312 161.414C273.437 162.098 272.985 162.753 272.301 162.878C272.225 162.892 272.148 162.9 272.072 162.9H272.073Z" fill="#DCE8F2"/>
<path d="M264.052 164.063C263.48 164.063 262.962 163.67 262.828 163.088L250.356 109.214C250.2 108.537 250.621 107.861 251.298 107.705C251.974 107.548 252.65 107.97 252.807 108.646L265.279 162.52C265.435 163.197 265.014 163.873 264.337 164.03C264.242 164.052 264.146 164.063 264.052 164.063Z" fill="#DCE8F2"/>
<path d="M256.126 165.212C255.572 165.212 255.064 164.843 254.913 164.282L239.841 108.586C239.659 107.915 240.055 107.224 240.726 107.043C241.397 106.861 242.088 107.258 242.269 107.928L257.341 163.624C257.523 164.295 257.127 164.986 256.456 165.168C256.346 165.198 256.235 165.212 256.126 165.212Z" fill="#DCE8F2"/>
<path d="M247.93 166.401C247.391 166.401 246.892 166.052 246.727 165.509L229.211 107.945C229.009 107.281 229.384 106.578 230.049 106.376C230.713 106.173 231.416 106.549 231.618 107.213L249.134 164.777C249.336 165.442 248.961 166.144 248.296 166.346C248.174 166.383 248.051 166.401 247.929 166.401H247.93Z" fill="#DCE8F2"/>
<path d="M240.224 167.518C239.699 167.518 239.21 167.188 239.032 166.664L218.904 107.325C218.681 106.667 219.034 105.953 219.692 105.729C220.35 105.507 221.064 105.859 221.287 106.516L241.415 165.856C241.638 166.514 241.286 167.227 240.628 167.451C240.494 167.496 240.357 167.518 240.224 167.518Z" fill="#DCE8F2"/>
<path d="M233.066 168.556C232.563 168.556 232.089 168.253 231.895 167.757L207.921 106.678C207.667 106.031 207.986 105.301 208.632 105.047C209.279 104.793 210.009 105.112 210.262 105.758L234.236 166.837C234.49 167.484 234.171 168.214 233.525 168.468C233.375 168.527 233.218 168.555 233.066 168.555V168.556Z" fill="#DCE8F2"/>
<path d="M224.766 169.76C224.273 169.76 223.806 169.469 223.605 168.986L197.259 106.025C196.991 105.384 197.293 104.647 197.934 104.378C198.576 104.111 199.312 104.413 199.581 105.053L225.926 168.015C226.194 168.655 225.892 169.392 225.251 169.661C225.093 169.727 224.928 169.76 224.766 169.76Z" fill="#DCE8F2"/>
<path d="M216.847 170.908C216.366 170.908 215.907 170.631 215.698 170.164L186.443 104.925L182.78 96.4565C180.587 91.3874 175.602 88.1123 170.078 88.1123H154.007C153.312 88.1123 152.748 87.5487 152.748 86.8538C152.748 86.1588 153.312 85.5952 154.007 85.5952H170.078C176.606 85.5952 182.498 89.466 185.089 95.4567L188.746 103.91L217.995 169.134C218.279 169.768 217.995 170.513 217.361 170.796C217.194 170.872 217.019 170.907 216.847 170.907V170.908Z" fill="#DCE8F2"/>
<path d="M186.169 123.05C185.701 123.05 185.252 122.787 185.035 122.337L175.917 103.4C173.505 98.1683 168.414 92.8725 163.348 92.8725H153.616C152.921 92.8725 152.357 92.309 152.357 91.614C152.357 90.9191 152.921 90.3555 153.616 90.3555H163.348C169.753 90.3555 175.534 96.5648 178.197 102.337L187.301 121.245C187.603 121.87 187.34 122.622 186.714 122.924C186.538 123.008 186.352 123.049 186.169 123.049V123.05Z" fill="#DCE8F2"/>
<path d="M162.406 94.8459H153.927C150.813 94.8459 148.289 92.3219 148.289 89.2082C148.289 86.0945 150.813 83.5705 153.927 83.5705H162.406V94.8449V94.8459Z" fill="#E74036"/>
<path d="M154.341 93.6055C151.227 93.6055 148.703 91.0815 148.703 87.9678C148.703 87.5747 148.743 87.1906 148.82 86.8196C148.48 87.5446 148.29 88.3539 148.29 89.2082C148.29 92.3219 150.814 94.8459 153.928 94.8459H162.407V93.6055H154.342H154.341Z" fill="#C1231F"/>
<path d="M296.737 196.298H206.784C204.559 196.298 202.627 195.031 201.741 192.991C200.854 190.951 201.247 188.673 202.766 187.048L215.175 173.76C216.87 171.945 219.149 170.707 221.594 170.274L221.634 170.267L233.773 168.453C234.599 168.331 235.366 168.898 235.49 169.723C235.613 170.548 235.044 171.317 234.219 171.44L222.101 173.25C220.303 173.573 218.628 174.486 217.381 175.82L204.972 189.108C204.277 189.852 204.104 190.854 204.509 191.788C204.914 192.721 205.765 193.279 206.783 193.279H296.736C297.57 193.279 298.246 193.955 298.246 194.789C298.246 195.624 297.57 196.299 296.736 196.299L296.737 196.298Z" fill="#DCE8F2"/>
<path d="M146.483 87.8284H156.546" stroke="#F2CA99" stroke-width="23" stroke-miterlimit="10" stroke-linecap="round"/>
<path d="M146.483 89.6694H156.546" stroke="#F2CA99" stroke-width="23" stroke-miterlimit="10" stroke-linecap="round"/>
<path d="M146.483 91.5117H156.546" stroke="#F2CA99" stroke-width="23" stroke-miterlimit="10" stroke-linecap="round"/>
<path d="M146.483 93.3528H156.546" stroke="#F2CA99" stroke-width="23" stroke-miterlimit="10" stroke-linecap="round"/>
<path d="M146.483 83.5715H156.546" stroke="#F2CA99" stroke-width="23" stroke-miterlimit="10" stroke-linecap="round"/>
<path d="M146.483 85.4137H156.546" stroke="#F2CA99" stroke-width="23" stroke-miterlimit="10" stroke-linecap="round"/>
<path d="M146.483 87.2547H156.546" stroke="#F2CA99" stroke-width="23" stroke-miterlimit="10" stroke-linecap="round"/>
<path d="M146.483 89.0969H156.546" stroke="#F2CA99" stroke-width="23" stroke-miterlimit="10" stroke-linecap="round"/>
<path d="M15.6044 136.249L58.7184 151.759L63.3784 96.7534L101.397 110.859L110.867 155.128C111.503 158.103 111.147 161.206 109.854 163.96L87.3772 211.819L73.9268 211.831C73.9268 211.831 92.9497 159.713 92.9497 159.202C92.9497 158.692 85.4428 142.012 85.4428 142.012L76.0567 161.138C72.6903 167.998 64.4243 170.863 57.5341 167.558L12.6271 149.264L15.6054 136.249H15.6044Z" fill="#011826"/>
<path d="M126.777 53.7917L121.263 69.1745C121.248 69.2156 121.255 69.2608 121.279 69.2958C129.632 81.206 148.445 81.8207 150.366 81.8528C150.449 81.8538 150.509 81.931 150.492 82.0123L148.965 89.4279C148.954 89.48 148.913 89.5212 148.86 89.5312C117.197 95.912 103.63 76.6002 103.225 76.0106C103.219 76.0015 103.214 75.9915 103.21 75.9815C101.14 70.5213 104.408 55.2949 106.47 46.9506C107.645 42.2004 111.985 38.8842 116.874 39.0837C116.968 39.0877 117.061 39.0918 117.154 39.0978C124.448 39.523 129.242 46.9135 126.777 53.7917Z" fill="#E2562B"/>
<path d="M128.342 34.3607L139.554 10.0901L161.07 14.6218C161.07 14.6218 164.36 51.9407 144.659 38.8923L138.936 46.7272L135.819 51.9407C135.819 51.9407 129.522 47.6116 129.522 47.2175C129.522 46.8234 129.259 41.5758 129.259 41.5758L129.39 38.0339L128.34 34.3607H128.342Z" fill="#FFB692"/>
<path d="M130.504 28.6869V12.9842C130.504 12.9842 129.252 0.222625 139.553 0.222625C148.369 0.222625 180.548 -2.9452 161.07 14.6217H149.678C149.678 17.3483 148.191 19.8573 145.799 21.1669L145.788 21.1729L144.369 28.0862H142.811C142.811 28.0862 142.073 19.2075 138.798 19.2075C135.523 19.2075 134.373 23.0101 133.801 32.4915L130.505 30.6724V28.6869H130.504Z" fill="#6F3E15"/>
<path d="M127.859 75.1062C127.859 75.1062 112.382 91.6472 111.622 97.7161C110.865 103.788 102.821 105.91 102.214 109.857C101.607 113.804 98.5704 115.775 89.0117 113.804C79.4501 111.829 76.4147 108.493 72.3173 109.404C70.783 109.744 69.3711 109.482 68.0644 108.902C63.962 107.081 61.8872 102.457 63.0545 98.1243C64.2909 93.5234 67.4357 86.8198 75.2033 79.0522C89.0709 65.1856 99.8409 42.2918 119.949 33.3429C121.583 32.6159 123.294 32.0533 125.054 31.7224C125.391 31.6582 125.761 31.5639 126.132 31.4276C126.995 31.1097 127.84 30.5531 128.163 29.5834C128.442 28.7481 129.561 28.2186 130.858 28.9176C133.089 30.1149 135.846 34.9474 135.752 48.096L138.938 46.7312L138.941 46.7372C138.974 46.8435 139.478 48.456 139.548 51.1013C139.682 56.3209 138.114 65.5506 127.859 75.1092V75.1062Z" fill="#F26835"/>
<path d="M125.753 58.6754L120.204 74.1545C128.989 86.7696 149.489 86.7696 149.489 86.7696L147.912 94.4289C115.697 100.962 102.18 80.9123 102.18 80.9123C100.098 75.4651 103.37 60.2187 105.434 51.8664C106.609 47.1162 110.949 43.8 115.838 43.9995C116.038 44.0075 116.24 44.0196 116.443 44.0356C123.59 44.5962 128.172 51.9266 125.752 58.6754H125.753Z" fill="#E2562B"/>
<path d="M105.435 51.8664C105.761 50.4534 106.396 49.1137 107.266 47.9434C108.146 46.7802 109.287 45.8205 110.564 45.1086C111.845 44.3986 113.291 44.0025 114.751 43.8922C116.215 43.7929 117.691 43.9794 119.087 44.4347C120.477 44.909 121.761 45.6761 122.848 46.6579C123.931 47.6446 124.816 48.847 125.431 50.1737C126.053 51.4983 126.393 52.9474 126.456 54.4024C126.516 55.8595 126.259 57.3196 125.753 58.6753C126.686 55.9297 126.502 52.8471 125.238 50.2649C124.606 48.9783 123.746 47.801 122.678 46.8454C121.61 45.8917 120.354 45.1527 118.998 44.6974C117.645 44.2462 116.194 44.0546 114.767 44.1439C113.341 44.2401 111.934 44.6302 110.664 45.2961C109.401 45.971 108.263 46.8955 107.372 48.0267C106.477 49.1548 105.821 50.4695 105.434 51.8664H105.435Z" fill="white"/>
<path d="M117.897 92.4926C117.141 92.1687 116.371 91.8728 115.625 91.5239C114.885 91.1618 114.129 90.8309 113.412 90.4228C113.05 90.2252 112.684 90.0347 112.326 89.8311L111.27 89.1873C110.914 88.9788 110.571 88.7491 110.231 88.5165C109.891 88.2828 109.541 88.0632 109.209 87.8175C107.864 86.8609 106.585 85.8109 105.383 84.6768C104.186 83.5376 103.05 82.3363 102.072 80.9855L102.064 80.9745L102.058 80.9594C101.676 79.9276 101.522 78.8426 101.44 77.7645C101.363 76.6845 101.368 75.6025 101.412 74.5255C101.503 72.3695 101.743 70.2266 102.048 68.0946C102.364 65.9647 102.745 63.8458 103.169 61.7359C103.598 59.627 104.079 57.5302 104.584 55.4394C104.126 57.5412 103.706 59.6501 103.315 61.764C102.918 63.8769 102.567 65.9978 102.281 68.1267C101.987 70.2536 101.756 72.3916 101.676 74.5345C101.637 75.6055 101.637 76.6785 101.718 77.7435C101.795 78.8064 101.944 79.8734 102.307 80.8642L102.293 80.8371C103.241 82.1588 104.371 83.3681 105.552 84.5003C106.744 85.6264 107.998 86.6914 109.323 87.6601C109.649 87.9088 109.995 88.1314 110.33 88.3691C110.666 88.6047 111.004 88.8384 111.356 89.051L112.4 89.7068L113.47 90.3195C114.175 90.7437 114.921 91.0906 115.651 91.4707C116.388 91.8357 117.149 92.1496 117.898 92.4916L117.897 92.4926Z" fill="white"/>
<path d="M135.752 48.0929C132.983 35.5019 126.132 31.4235 126.132 31.4235C126.996 31.1057 127.84 30.5491 128.163 29.5794C128.923 27.3041 135.902 27.3041 135.752 48.0919V48.0929Z" fill="white"/>
<path d="M139.548 51.0983L137.361 49.3655L135.752 48.0929L138.938 46.7281L138.941 46.7342C138.974 46.8405 139.478 48.4529 139.549 51.0983H139.548Z" fill="white"/>
<path d="M124.545 78.7853C126.358 80.0639 128.295 81.1529 130.286 82.1176C132.28 83.0733 134.325 83.9357 136.439 84.5875C136.958 84.778 137.496 84.9114 138.025 85.0688C138.557 85.2203 139.085 85.3847 139.628 85.496L141.244 85.8681L142.878 86.1589L143.695 86.3053L144.519 86.4016L146.169 86.5941L147.828 86.6944C148.381 86.7264 148.935 86.7656 149.489 86.7696C148.935 86.7956 148.38 86.7816 147.825 86.7686L146.158 86.7315L144.498 86.578L143.668 86.4998L142.844 86.3725C142.294 86.2862 141.744 86.206 141.196 86.1067L139.568 85.7447C139.021 85.6364 138.489 85.475 137.952 85.3276C137.418 85.1731 136.876 85.0438 136.352 84.8552L134.773 84.3137L133.22 83.703C132.196 83.2698 131.175 82.8246 130.188 82.3122C129.196 81.8108 128.229 81.2612 127.276 80.6886C126.34 80.092 125.408 79.4833 124.542 78.7884L124.545 78.7853Z" fill="white"/>
<path d="M103.367 217.099C103.298 217.306 103.174 217.494 103.033 217.654C102.746 217.966 102.398 218.172 102.052 218.331C101.704 218.492 101.353 218.6 100.999 218.699C100.645 218.793 100.294 218.863 99.9412 218.921C99.7687 218.954 99.5902 218.98 99.4148 219.003L98.9354 219.064H72.922V216.14C72.9641 216.137 73.0052 216.132 73.0473 216.129C74.2116 216.02 75.3788 215.95 76.5431 215.909C76.7075 215.903 76.872 215.898 77.0365 215.892C77.1287 215.889 77.22 215.886 77.3122 215.884C78.0082 215.865 78.7071 215.856 79.404 215.851C79.5765 215.851 79.749 215.848 79.9225 215.848H80.9223C81.0777 215.848 81.2311 215.851 81.3876 215.851C81.6694 215.854 81.9531 215.857 82.2339 215.862C84.4621 215.893 86.6903 215.981 88.9185 216.116C89.6756 216.16 90.4337 216.213 91.1909 216.272C91.1909 216.269 91.1939 216.269 91.1969 216.272C91.23 216.272 91.261 216.275 91.2911 216.278C93.1684 216.42 95.0426 216.598 96.9168 216.813C97.5827 216.888 98.2505 216.969 98.9164 217.06L99.8881 217.189C100.203 217.225 100.515 217.253 100.827 217.267C101.134 217.284 101.439 217.281 101.732 217.25C102.025 217.225 102.301 217.16 102.534 217.052C102.76 216.941 102.939 216.77 102.994 216.487C103.061 216.205 103.016 215.868 102.876 215.559C102.983 215.648 103.077 215.749 103.155 215.871L103.158 215.874C103.276 216.049 103.365 216.256 103.412 216.484C103.448 216.678 103.434 216.896 103.368 217.102L103.367 217.099Z" fill="white"/>
<path d="M103.305 216.144C103.28 216.567 103.018 216.985 102.286 217.269C101.704 217.494 100.827 217.639 99.5311 217.639H73.1035C73.0534 217.639 72.923 217.641 72.923 217.641C72.923 217.641 72.917 217.085 72.8418 216.236C72.6803 214.34 72.6974 210.983 74.5214 209.098C74.5214 209.098 75.6386 210.856 78.4203 211.466C80.0889 211.834 82.3583 211.786 85.3436 210.7C85.6554 210.585 85.9733 210.46 86.3012 210.324C86.8969 210.076 87.5216 209.786 88.1704 209.452C88.1704 209.452 88.1765 209.449 88.1845 209.449C88.2406 209.435 88.4432 209.399 88.7661 209.468C88.9356 209.507 89.1361 209.574 89.3648 209.691C89.6576 209.838 89.9965 210.067 90.3726 210.418C91.6451 211.607 93.74 214.27 101.625 214.459C101.854 214.465 102.073 214.512 102.274 214.595C102.73 214.788 103.098 215.164 103.243 215.656C103.249 215.675 103.254 215.692 103.257 215.713L103.26 215.716C103.297 215.858 103.314 216.002 103.305 216.145V216.144Z" fill="#A02932"/>
<path d="M91.0223 211.977C90.9942 211.977 90.9662 211.969 90.9411 211.951C90.8789 211.906 90.8649 211.819 90.909 211.756C91.0203 211.601 90.9842 211.384 90.8298 211.273C90.6743 211.162 90.4577 211.198 90.3464 211.352C90.3013 211.415 90.2151 211.43 90.1519 211.384C90.0897 211.339 90.0747 211.252 90.1198 211.19C90.3204 210.91 90.7125 210.846 90.9922 211.046C91.272 211.248 91.3362 211.639 91.1356 211.919C91.1086 211.957 91.0654 211.977 91.0223 211.977Z" fill="white"/>
<path d="M91.7624 212.509C91.7343 212.509 91.7062 212.5 91.6811 212.482C91.619 212.437 91.6039 212.35 91.649 212.288C91.7604 212.132 91.7253 211.915 91.5698 211.804C91.4144 211.692 91.1978 211.728 91.0865 211.883C91.0414 211.945 90.9551 211.959 90.8919 211.915C90.8298 211.87 90.8157 211.783 90.8598 211.72C91.0604 211.441 91.4525 211.376 91.7323 211.577C92.0121 211.777 92.0762 212.169 91.8757 212.449C91.8486 212.487 91.8055 212.508 91.7624 212.508V212.509Z" fill="white"/>
<path d="M92.5024 213.04C92.4744 213.04 92.4463 213.032 92.4212 213.014C92.359 212.969 92.345 212.882 92.3891 212.819C92.5004 212.664 92.4643 212.447 92.3099 212.336C92.2347 212.282 92.1424 212.26 92.0512 212.276C91.9599 212.291 91.8797 212.341 91.8256 212.415C91.7804 212.478 91.6942 212.492 91.631 212.447C91.5688 212.402 91.5538 212.315 91.5989 212.253C91.6962 212.117 91.8406 212.027 92.0051 212C92.1695 211.973 92.335 212.012 92.4714 212.109C92.7511 212.311 92.8153 212.702 92.6148 212.982C92.5877 213.02 92.5446 213.04 92.5014 213.04H92.5024Z" fill="white"/>
<path d="M93.2415 213.57C93.2134 213.57 93.1854 213.562 93.1603 213.544C93.0981 213.499 93.0831 213.412 93.1282 213.35C93.1824 213.275 93.2034 213.182 93.1884 213.091C93.1733 213 93.1232 212.92 93.048 212.865C92.8925 212.754 92.6759 212.789 92.5646 212.945C92.5195 213.007 92.4333 213.021 92.3701 212.977C92.3079 212.932 92.2939 212.844 92.338 212.782C92.5386 212.502 92.9306 212.438 93.2104 212.639C93.3458 212.736 93.4361 212.881 93.4631 213.045C93.4902 213.209 93.4511 213.376 93.3538 213.511C93.3268 213.549 93.2836 213.569 93.2405 213.569L93.2415 213.57Z" fill="white"/>
<path d="M103.305 216.144C103.279 216.567 103.018 216.985 102.286 217.269C101.704 217.494 100.827 217.639 99.531 217.639H73.3903C74.5014 217.182 75.5603 216.6 76.543 215.906C77.0003 215.588 77.4395 215.243 77.8607 214.878C77.5879 215.218 77.3122 215.552 77.0364 215.889C76.9833 215.953 76.9301 216.02 76.878 216.083C77.0224 216.014 77.1678 215.947 77.3122 215.88C79.3759 214.949 81.6372 214.454 83.9045 214.443C83.1725 214.886 82.3221 215.142 81.4647 215.178C85.3917 215.54 89.3437 215.902 93.2676 215.509C92.6739 215.963 91.9419 216.228 91.1958 216.266C91.1928 216.263 91.1898 216.263 91.1898 216.266C91.1397 216.266 91.0895 216.269 91.0394 216.269C91.1226 216.269 91.2069 216.272 91.2901 216.272C93.8302 216.314 96.3702 216.353 98.9073 216.394C99.6764 216.408 100.484 216.411 101.155 216.037C101.645 215.765 102.004 215.285 102.171 214.748C102.629 214.94 102.996 215.316 103.141 215.809C103.147 215.828 103.152 215.845 103.155 215.865L103.158 215.868C103.214 215.951 103.264 216.043 103.306 216.141L103.305 216.144Z" fill="#882027"/>
<path d="M0.636716 161.051C0.47326 160.908 0.344901 160.722 0.252645 160.53C0.0741476 160.145 0.0179901 159.745 0.00395103 159.365C-0.0120936 158.982 0.0230056 158.616 0.0681312 158.252C0.116265 157.889 0.186461 157.538 0.26869 157.189C0.303787 157.016 0.348912 156.842 0.396043 156.671L0.5234 156.205L10.5002 132.181L13.2007 133.302C13.1877 133.342 13.1766 133.382 13.1626 133.422C12.8166 134.54 12.4336 135.644 12.0254 136.735C11.9673 136.888 11.9101 137.043 11.8519 137.196C11.8188 137.282 11.7868 137.367 11.7537 137.454C11.505 138.105 11.2443 138.753 10.9825 139.398C10.9163 139.558 10.8522 139.718 10.786 139.877L10.4029 140.801C10.3427 140.945 10.2816 141.086 10.2224 141.229C10.1121 141.488 10.0008 141.75 9.88747 142.006C9.00501 144.052 8.0674 146.076 7.08968 148.082C6.75776 148.765 6.41881 149.444 6.07385 150.121C6.07686 150.122 6.07586 150.125 6.07185 150.126C6.05881 150.157 6.04477 150.184 6.03073 150.211C5.17936 151.89 4.2959 153.553 3.37935 155.202C3.05444 155.788 2.72352 156.374 2.38358 156.954L1.89221 157.802C1.73778 158.079 1.59238 158.357 1.46001 158.64C1.32664 158.916 1.21232 159.2 1.12808 159.482C1.03883 159.762 0.992706 160.041 1.00273 160.298C1.01878 160.549 1.10803 160.78 1.3487 160.94C1.58335 161.11 1.91126 161.198 2.25021 161.188C2.12686 161.251 1.99851 161.3 1.85511 161.325L1.8511 161.327C1.64452 161.368 1.41989 161.371 1.19026 161.327C0.996717 161.286 0.801173 161.19 0.636716 161.048V161.051Z" fill="white"/>
<path d="M1.5422 161.361C1.16114 161.176 0.87534 160.774 0.894393 159.988C0.909435 159.365 1.112 158.498 1.60838 157.303L11.7446 132.896C11.7637 132.85 11.8128 132.729 11.8128 132.729C11.8128 132.729 12.3282 132.936 13.1415 133.193C14.9555 133.771 18.0482 135.074 19.0901 137.482C19.0901 137.482 17.0383 137.839 15.4078 140.174C14.4281 141.574 13.6018 143.688 13.4594 146.862C13.4453 147.194 13.4393 147.535 13.4393 147.891C13.4393 148.537 13.4674 149.223 13.5276 149.951C13.5276 149.951 13.5276 149.957 13.5246 149.966C13.5165 150.023 13.4714 150.224 13.2829 150.496C13.1816 150.638 13.0432 150.798 12.8477 150.963C12.599 151.177 12.258 151.403 11.7897 151.616C10.2033 152.335 6.94123 153.249 3.74232 160.458C3.65007 160.666 3.52171 160.852 3.36728 161.004C3.0143 161.352 2.52594 161.548 2.01552 161.493C1.99546 161.491 1.97741 161.489 1.95836 161.485H1.95435C1.80894 161.465 1.66955 161.424 1.5412 161.362L1.5422 161.361Z" fill="#A02932"/>
<path d="M10.6435 152.039C10.5954 152.039 10.5473 152.033 10.4991 152.022C10.3367 151.984 10.1983 151.885 10.111 151.742C10.0709 151.677 10.091 151.591 10.1562 151.551C10.2213 151.511 10.3076 151.531 10.3477 151.596C10.3968 151.675 10.473 151.729 10.5633 151.751C10.6536 151.773 10.7468 151.757 10.825 151.708C10.9043 151.659 10.9584 151.583 10.9795 151.493C11.0005 151.402 10.9855 151.309 10.9363 151.231C10.8962 151.166 10.9163 151.08 10.9815 151.039C11.0466 150.999 11.1329 151.019 11.173 151.085C11.2612 151.227 11.2883 151.394 11.2502 151.557C11.2121 151.719 11.1128 151.858 10.9704 151.945C10.8702 152.007 10.7578 152.039 10.6425 152.039H10.6435Z" fill="white"/>
<path d="M9.86936 152.519C9.82122 152.519 9.77309 152.513 9.72495 152.502C9.5625 152.463 9.42412 152.364 9.33687 152.222C9.29676 152.157 9.31682 152.07 9.382 152.03C9.44718 151.99 9.53342 152.01 9.57353 152.075C9.62267 152.155 9.69888 152.209 9.78913 152.231C9.87939 152.252 9.97264 152.237 10.0509 152.188C10.1301 152.138 10.1842 152.062 10.2053 151.972C10.2264 151.882 10.2113 151.789 10.1622 151.71C10.1221 151.645 10.1421 151.559 10.2073 151.519C10.2725 151.479 10.3587 151.499 10.3988 151.564C10.4871 151.706 10.5142 151.874 10.476 152.036C10.4379 152.199 10.3387 152.336 10.1963 152.424C10.096 152.486 9.98367 152.519 9.86835 152.519H9.86936Z" fill="white"/>
<path d="M9.09525 152.998C8.88567 152.998 8.6811 152.893 8.56277 152.702C8.52265 152.637 8.54271 152.551 8.60789 152.511C8.67307 152.47 8.75931 152.491 8.79942 152.556C8.8997 152.718 9.1143 152.768 9.27675 152.668C9.43921 152.567 9.48935 152.353 9.38907 152.191C9.34895 152.125 9.36901 152.039 9.43419 151.999C9.49937 151.959 9.58561 151.979 9.62572 152.044C9.80723 152.337 9.71597 152.723 9.42316 152.905C9.32087 152.968 9.20756 152.998 9.09525 152.998Z" fill="white"/>
<path d="M8.32108 153.477C8.11149 153.477 7.90692 153.372 7.78859 153.181C7.74848 153.116 7.76854 153.03 7.83372 152.99C7.8989 152.95 7.98514 152.97 8.02525 153.035C8.12553 153.197 8.34013 153.248 8.50258 153.147C8.66503 153.046 8.71517 152.832 8.61489 152.67C8.57478 152.605 8.59484 152.519 8.66002 152.479C8.7252 152.438 8.81145 152.458 8.85156 152.524C9.03306 152.816 8.94281 153.203 8.64899 153.384C8.54671 153.447 8.43339 153.477 8.32108 153.477Z" fill="white"/>
<path d="M1.5422 161.361C1.16114 161.176 0.87534 160.774 0.894393 159.988C0.909435 159.365 1.112 158.498 1.60838 157.303L11.6343 133.161C11.6303 134.362 11.7617 135.562 12.0254 136.737C12.1437 137.28 12.2931 137.819 12.4696 138.347C12.26 137.965 12.0575 137.582 11.8519 137.198C11.8128 137.125 11.7717 137.05 11.7326 136.976C11.7416 137.137 11.7476 137.296 11.7536 137.456C11.8208 139.718 11.4117 141.997 10.5523 144.095C10.4239 143.249 10.5132 142.366 10.809 141.56C8.96887 145.048 7.11872 148.559 5.97554 152.334C5.78401 151.612 5.82011 150.834 6.07081 150.13C6.07482 150.129 6.07582 150.126 6.07281 150.125C6.09187 150.079 6.10891 150.032 6.12796 149.985C6.09588 150.062 6.06178 150.138 6.02969 150.215C5.01687 152.545 4.00706 154.876 2.99524 157.203C2.68739 157.908 2.37552 158.652 2.46276 159.415C2.52694 159.972 2.83179 160.488 3.26399 160.848C2.91101 161.196 2.42265 161.391 1.91223 161.336C1.89217 161.334 1.87412 161.332 1.85507 161.328L1.85106 161.33C1.75278 161.349 1.6485 161.36 1.5422 161.362V161.361Z" fill="#882027"/>
<path d="M63.2721 119.768C64.1566 119.843 65.041 119.924 65.9225 120.021C66.8049 120.114 67.6874 120.208 68.5668 120.319L68.4284 120.42L68.8376 118.087L69.2748 115.758C69.4172 114.981 69.5837 114.209 69.7371 113.435C69.8935 112.661 70.062 111.888 70.2365 111.118C70.1302 111.902 70.0179 112.684 69.8935 113.463C69.7662 114.242 69.6519 115.024 69.5135 115.801L69.1083 118.135L68.6751 120.463L68.6531 120.581L68.5357 120.566C67.6563 120.452 66.7789 120.321 65.9014 120.19C65.023 120.062 64.1475 119.918 63.2721 119.768Z" fill="white"/>
<path d="M22.4785 146.011L32.9316 150.124L43.3687 154.278L53.8058 158.432L55.1104 158.952L55.7622 159.211L56.419 159.435L56.747 159.546C56.8583 159.575 56.9726 159.597 57.0849 159.623L57.7618 159.774L58.4497 159.854C58.565 159.865 58.6783 159.886 58.7947 159.889L59.1406 159.893C60.9898 159.949 62.8369 159.42 64.4123 158.463C65.2005 157.98 65.9065 157.376 66.5402 156.705L66.9784 156.169C67.0496 156.079 67.1269 155.991 67.194 155.898L67.3826 155.608C67.5059 155.413 67.6413 155.225 67.7546 155.025L68.0695 154.408C68.1848 154.206 68.258 153.987 68.3422 153.772C68.4225 153.556 68.5127 153.344 68.5859 153.122L69.0201 151.787L69.8875 149.116L73.3592 138.432L76.8309 127.75L80.3447 117.08L76.9602 127.792L73.5347 138.49L70.1082 149.187L69.2518 151.862L68.8236 153.199C68.7504 153.421 68.6591 153.642 68.5769 153.863C68.4917 154.084 68.4165 154.31 68.3001 154.517L67.9792 155.152C67.8639 155.359 67.7255 155.553 67.6002 155.754L67.4066 156.052C67.3374 156.149 67.2592 156.238 67.186 156.331C67.0366 156.516 66.8912 156.703 66.7378 156.884C66.089 157.576 65.367 158.201 64.5567 158.699C62.9322 159.677 61.0319 160.211 59.1336 160.146L58.7776 160.14C58.6593 160.137 58.542 160.115 58.4246 160.103L57.7187 160.018L57.0257 159.86C56.9104 159.833 56.7941 159.809 56.6798 159.779L56.3438 159.664L55.672 159.432L55.0212 159.169L53.7185 158.645L43.2995 154.447L32.8805 150.248L22.4775 146.01L22.4785 146.011Z" fill="white"/>
<path d="M92.7522 133.44L96.4906 142.174L100.189 150.924L101.113 153.112C101.416 153.841 101.75 154.564 101.992 155.327C102.486 156.844 102.722 158.447 102.664 160.043C102.613 161.638 102.286 163.226 101.686 164.709C101.076 166.177 100.447 167.625 99.8279 169.083L92.2839 186.52L88.5104 195.239L84.6968 203.94L88.385 195.184L92.1134 186.447L99.5732 168.972C100.198 167.519 100.839 166.066 101.451 164.612C102.047 163.161 102.376 161.602 102.434 160.034C102.499 158.464 102.275 156.886 101.795 155.39C101.562 154.641 101.235 153.921 100.934 153.187L100.02 150.994L96.3673 142.225L92.7542 133.439L92.7522 133.44Z" fill="white"/>
<path d="M85.4419 142.011C85.854 140.885 86.2942 139.77 86.7385 138.658C87.1827 137.545 87.649 136.442 88.1033 135.334C88.5786 134.234 89.0429 133.13 89.5282 132.035L90.2613 130.394C90.515 129.851 90.7597 129.304 91.0214 128.765C90.8178 129.329 90.5982 129.886 90.3866 130.447L89.7248 132.118C89.2805 133.231 88.8142 134.334 88.359 135.442C87.8837 136.541 87.4204 137.646 86.934 138.741C86.4487 139.836 85.9583 140.93 85.4409 142.012L85.4419 142.011Z" fill="white"/>
<path d="M96.1215 115.155C96.7964 115.805 97.3139 116.621 97.6608 117.502C98.0078 118.385 98.1612 119.353 98.073 120.305C97.9877 121.257 97.6839 122.182 97.2136 123.003C96.986 123.419 96.7112 123.804 96.4264 124.178C96.278 124.36 96.1185 124.534 95.9661 124.711C95.8037 124.881 95.6382 125.046 95.4717 125.211C96.0694 124.492 96.6109 123.73 97.0231 122.903C97.4362 122.08 97.718 121.191 97.7942 120.281C97.8855 119.37 97.7481 118.447 97.4593 117.575C97.3149 117.138 97.1243 116.715 96.8977 116.312C96.6781 115.904 96.4174 115.517 96.1215 115.155Z" fill="white"/>
</svg>
