<svg width="281" height="202" viewBox="0 0 281 202" fill="none" xmlns="http://www.w3.org/2000/svg">
<path style="mix-blend-mode:multiply" d="M101.198 183.049L94.0595 181.272C92.6792 180.928 91.2466 180.84 89.8336 181.01L38.7085 187.149C36.5989 187.402 34.5202 187.857 32.4986 188.51L10.8421 195.487C10.3706 195.639 10.4261 196.322 10.9156 196.396L40.9618 200.961C43.7633 201.387 46.6251 201.162 49.3255 200.303L101.222 183.806C101.601 183.685 101.583 183.145 101.198 183.049Z" fill="url(#paint0_linear_26_676)"/>
<path d="M65.6988 1.03564C64.4702 0.325889 63.067 -0.0232714 61.6491 0.00120281L17.7031 0.719108C17.7031 0.719108 7.61156 0.458052 9.65924 15.1312L37.9629 185.545C37.9629 185.545 39.8066 198.171 48.9111 197.611L92.2909 181.493C93.5227 181.034 94.5964 180.23 95.3763 179.172C96.9328 177.066 98.8908 173.039 97.995 166.739L72.8942 14.2012C72.8942 14.2012 72.4994 4.96458 65.6988 1.03728V1.03564Z" fill="#464646"/>
<path d="M48.3351 194.702L91.2695 178.748C91.9711 178.487 92.578 178.032 93.0202 177.431C94.3712 175.604 95.8266 172.342 95.0989 167.18L69.9753 14.4998L69.9671 14.3236C69.9638 14.2567 69.5233 6.6256 64.2336 3.56958C63.5043 3.14863 62.6558 2.92673 61.7813 2.92673H61.6964L17.6558 3.64627H17.6411C17.385 3.65116 15.4352 3.75559 14.0287 5.38068C12.4689 7.18198 11.9582 10.3995 12.5521 14.6891L40.8541 185.094L40.859 185.121C40.8623 185.141 41.2784 187.818 42.5918 190.383C44.8043 194.702 47.4573 194.702 48.3302 194.702H48.3367H48.3351Z" fill="white"/>
<path d="M0.274167 17.7745L28.5762 186.216C28.5762 186.216 30.0544 197.747 39.9975 197.629L47.8048 197.613C39.6533 197.137 37.9613 185.546 37.9613 185.546L9.6576 15.1312C8.28215 5.27628 12.3824 2.15826 15.2247 1.17276L7.98193 2.95285C7.98193 2.95285 -1.73762 5.03806 0.274167 17.7745Z" fill="#222222"/>
<path d="M11.5651 46.8629L13.9472 60.5603C14.112 61.5083 13.5165 62.4236 12.5816 62.6553H12.5799C11.5471 62.9115 10.5143 62.2376 10.3316 61.1901L7.95103 47.491C7.79113 46.5757 8.34425 45.6848 9.23511 45.4189C10.2875 45.1056 11.3774 45.7811 11.5651 46.8629Z" fill="#C4211A"/>
<path d="M8.72095 45.6653C8.87432 45.5592 9.04727 45.476 9.23491 45.4205C9.41112 45.3683 9.5857 45.3422 9.76029 45.3422C10.625 45.3422 11.4082 45.9606 11.5649 46.8629L13.9487 60.5603C14.0335 61.0514 13.9144 61.5311 13.6533 61.9129C14.2293 61.5181 14.5507 60.8099 14.4234 60.0839L12.0397 46.3864C11.883 45.4858 11.0998 44.8658 10.2351 44.8658C10.0621 44.8658 9.88592 44.8902 9.71134 44.9441C9.29365 45.0681 8.951 45.3275 8.72258 45.6636L8.72095 45.6653Z" fill="#49D3F2"/>
<path d="M36.0751 7.29944L47.0624 6.93559C48.2323 6.89643 49.1084 5.85057 48.942 4.69212L48.6614 2.72928L33.7402 2.93813L34.0584 5.56993C34.1808 6.58153 35.0553 7.33207 36.0751 7.29944Z" fill="#464646"/>
<path d="M19.2745 5.98599L19.281 6.30904L17.9382 6.35147V6.02351L18.4032 6.01046L18.3967 5.07228C18.2335 5.11797 18.0541 5.12938 17.8811 5.13591V4.84712C18.1487 4.83733 18.3053 4.77206 18.413 4.62032L18.8046 4.6138L18.8225 5.99904L19.2761 5.98599H19.2745Z" fill="#464646"/>
<path d="M19.9027 5.96805L20.8425 5.94194L20.8556 6.26011L19.4981 6.30253L19.4948 6.12468C19.4883 5.79836 19.6433 5.60093 20.0561 5.4133C20.3302 5.28766 20.4183 5.20283 20.4134 5.06251C20.4102 4.9434 20.3253 4.86671 20.1507 4.86834C19.9762 4.86998 19.8815 4.95481 19.8864 5.12613V5.17346L19.5046 5.18161V5.10166C19.4948 4.75413 19.7233 4.56975 20.1442 4.56322C20.5652 4.5567 20.7952 4.73455 20.8083 5.05108C20.8197 5.32846 20.6663 5.50956 20.2682 5.68578C20.0202 5.79509 19.9256 5.86363 19.9027 5.96642V5.96805Z" fill="#464646"/>
<path d="M21.1362 5.01188L21.5457 5.00372L21.5636 5.38063L21.1508 5.39042L21.1345 5.01188H21.1362ZM21.1737 5.86196L21.5881 5.85053L21.6077 6.23559L21.1916 6.24865L21.1753 5.86196H21.1737Z" fill="#464646"/>
<path d="M23.2637 5.84239L23.0825 5.84729L23.1054 6.1883L22.7187 6.19972L22.6975 5.85708L21.8637 5.87992L21.8474 5.56013L22.5882 4.55505L22.9912 4.54852L23.0613 5.55197L23.2408 5.54707L23.262 5.84076L23.2637 5.84239ZM22.6795 5.56338L22.642 4.97764L22.2227 5.57481L22.6795 5.56338Z" fill="#464646"/>
<path d="M24.7747 5.82931L24.8024 6.13442L23.5999 6.17195L23.5771 5.86194L23.9931 5.85052L23.9213 4.96292C23.7778 5.00534 23.6179 5.01677 23.4629 5.02167L23.4417 4.74918C23.6815 4.74102 23.8169 4.67902 23.9034 4.53544L24.2542 4.53055L24.3668 5.8391L24.7731 5.82768L24.7747 5.82931Z" fill="#464646"/>
<path d="M26.4454 5.75756L25.9249 5.77225L25.8548 6.10184L25.4795 6.11325L25.8695 4.50611L26.2398 4.50122L26.9692 6.06594L26.5857 6.07736L26.4454 5.75593V5.75756ZM25.9837 5.47529L26.323 5.46714L26.0897 4.89444L25.9837 5.47529Z" fill="#464646"/>
<path d="M28.8733 6.00724L28.5258 6.01867L28.3594 4.84553L28.131 6.03171L27.8944 6.03988L27.3429 4.86511L27.4946 6.0513L27.1569 6.06271L26.9644 4.49147L27.4783 4.48331L27.9499 5.48676L28.1456 4.47352L28.6514 4.46536L28.8766 6.00724H28.8733Z" fill="#464646"/>
<path d="M61.6196 6.0561L58.1508 6.21437C57.9534 6.22416 57.7935 6.07078 57.7935 5.87173V4.81771C57.7935 4.62028 57.9534 4.45222 58.1508 4.44406L61.6196 4.2858C61.817 4.27601 61.9769 4.42938 61.9769 4.62843V5.68246C61.9769 5.87989 61.817 6.04794 61.6196 6.0561Z" fill="#464646"/>
<path d="M58.1507 6.01532C58.0626 6.01858 57.9924 5.95169 57.9924 5.86358V4.80955C57.9924 4.72145 58.0642 4.64803 58.1507 4.64313L60.2685 4.54686C60.3876 4.54197 60.4839 4.63334 60.4839 4.75245V5.69226C60.4839 5.81137 60.3876 5.91253 60.2685 5.91743L58.1507 6.01369V6.01532Z" fill="white"/>
<path d="M62.3702 5.55032L62.1809 5.55848C62.1222 5.56174 62.0732 5.51442 62.0732 5.45568V4.84546C62.0732 4.78672 62.1206 4.73614 62.1809 4.73288L62.3702 4.72472C62.4289 4.72146 62.4779 4.76878 62.4779 4.82752V5.43774C62.4779 5.49648 62.4306 5.54706 62.3702 5.55032Z" fill="#464646"/>
<path d="M54.421 6.38411L54.1191 6.39716V5.2534L54.421 5.23871V6.38411Z" fill="#464646"/>
<path d="M55.0182 6.35631L54.718 6.37099V4.79649L55.0182 4.7818V6.35631Z" fill="#464646"/>
<path d="M55.6154 6.33022L55.3152 6.34327V4.36249L55.6154 4.34781V6.33022Z" fill="#464646"/>
<path d="M56.2142 6.30247L55.9124 6.31552V3.90562L56.2142 3.89093V6.30247Z" fill="#464646"/>
<path d="M56.7364 51.5392L55.4196 56.1974L41.9278 59.459L39.3237 56.589" stroke="#FAAA1F" stroke-width="2.76" stroke-miterlimit="10"/>
<path d="M49.9391 55.4403L46.8929 56.1664L46.6057 54.3585L49.647 53.6406L49.9391 55.4403Z" fill="#FAAA1F"/>
<path d="M50.1299 56.6281L47.082 57.3607L46.9531 56.5449L49.9994 55.8172L50.1299 56.6281Z" fill="#FAAA1F"/>
<path d="M52.3278 54.1595L44.2415 56.08L47.3187 48.9384L52.3278 54.1595Z" fill="#FAAA1F"/>
<path d="M48.2502 45.0095L45.2285 45.6817L44.615 41.8197L47.6286 41.167L48.2502 45.0095Z" fill="#FAAA1F"/>
<path d="M48.4102 45.9949L45.3852 46.672L45.2759 45.9786L48.2993 45.3031L48.4102 45.9949Z" fill="#FAAA1F"/>
<path d="M48.5636 46.9429L45.537 47.6265L45.426 46.9298L48.4527 46.2511L48.5636 46.9429Z" fill="#FAAA1F"/>
<path d="M48.7153 47.8746L45.6854 48.5631L45.5745 47.8664L48.6027 47.1811L48.7153 47.8746Z" fill="#FAAA1F"/>
<path d="M50.4091 42.4788L42.3914 44.2393L45.4555 37.3164L50.4091 42.4788Z" fill="#FAAA1F"/>
<mask id="mask0_26_676" style="mask-type:luminance" maskUnits="userSpaceOnUse" x="30" y="111" width="65" height="78">
<path d="M41.572 187.924C39.9731 185.206 34.5496 148.87 30.3792 123.505C38.2909 111.759 85.7416 111.516 85.7416 111.516L94.1362 161.327C94.1362 161.327 43.1531 193.351 41.572 187.924Z" fill="white"/>
</mask>
<g mask="url(#mask0_26_676)">
<path d="M32.321 187.91L33.8057 188.048C37.0739 188.353 47.5423 187.029 50.272 185.208L88.4763 162.494C89.5157 161.801 88.925 160.838 87.8319 160.11L73.627 152.18L32.3193 187.91H32.321Z" fill="url(#paint1_linear_26_676)"/>
<path d="M2.96979 209.135L51.3326 182.121C51.7584 180.708 51.5969 180.473 51.4925 178.68L48.6681 130.322C48.5621 128.506 47.7854 127.106 45.8617 127.838L-1.354 142.397C-3.49468 143.058 -5.13772 145.419 -4.99087 147.661L-1.0962 207.267C-0.952621 209.475 0.882949 210.302 2.97305 209.135H2.96979Z" fill="#222222"/>
<path d="M37.8259 130.335L42.2737 131.927L46.3234 128.214C46.3234 128.214 47.0854 127.553 47.7103 127.964L47.6793 127.892C47.6793 127.892 47.1963 127.545 46.5208 127.662C45.8421 127.78 37.8259 130.335 37.8259 130.335Z" fill="#3F0B02"/>
<path d="M79.4502 164.158L52.4828 181.453C51.4924 182.134 50.5885 181.005 50.4694 178.928L47.7462 131.273C47.557 128.861 48.3532 127.063 49.3664 126.598L77.5396 113.653C78.3309 113.289 79.0456 114.502 79.1418 116.358L81.2988 158.24C81.3935 160.068 80.2187 163.634 79.4502 164.157V164.158Z" fill="#222222"/>
<path d="M-2.22693 142.564C-3.87486 143.164 -5.16547 145.837 -4.98599 148.32L-4.58951 153.838L2.13602 158.723L47.8947 140.604L76.9587 124.456L79.2283 118.045L79.0651 115.508C78.9754 114.118 78.437 113.247 77.8365 113.526" fill="#BF7960"/>
<mask id="mask1_26_676" style="mask-type:luminance" maskUnits="userSpaceOnUse" x="-5" y="113" width="85" height="46">
<path d="M-4.5896 153.838L2.13593 158.723L47.8946 140.604L76.9586 124.456L79.2282 118.045L78.3276 113.554C78.2378 112.159 -2.40323 140.11 -2.22702 142.564L-4.5896 153.838Z" fill="white"/>
</mask>
<g mask="url(#mask1_26_676)">
<path d="M1.29565 146.928L2.8669 190.964L79.3441 150.598L77.1071 115.901L1.29565 146.928Z" fill="#FAAA1F"/>
<path d="M5.54759 185.028L4.29614 150.167L76.0155 119.374L77.8854 148.32L5.54759 185.028Z" fill="#FFDD00"/>
<path d="M54.9219 147.263C55.0068 155.817 51.6424 164.715 47.2125 167.214C42.5543 169.843 38.5519 164.436 38.4964 155.046C38.441 145.698 42.3258 136.639 46.9547 134.863C51.3568 133.172 54.8387 138.743 54.9219 147.263Z" fill="#FAAA1F"/>
<path d="M47.9567 159.996L47.9746 162.093L46.3854 162.948L46.3691 160.861C44.4715 161.487 43.5937 160.082 43.5676 156.452L45.55 155.471C45.5615 157.025 45.8992 157.648 46.5877 157.524L46.5519 152.947C44.4715 153.241 43.6247 152.045 43.6019 148.715C43.5774 145.362 44.4846 143.07 46.2223 141.913L46.2059 139.818L47.7886 139.17L47.8049 141.245C49.4186 140.978 50.2148 142.425 50.2442 145.654L48.3825 146.496C48.3727 145.251 48.1149 144.615 47.5945 144.538L47.6304 148.903C49.6797 148.615 50.502 149.854 50.5314 153.146C50.5607 156.444 49.7253 158.65 47.9616 159.994L47.9567 159.996ZM46.5176 148.912L46.4866 144.997C45.9465 145.488 45.6789 146.308 45.6871 147.292C45.6953 148.248 45.9286 148.761 46.5176 148.912ZM48.5441 154.603C48.5359 153.603 48.2928 153.081 47.6581 152.944L47.6907 156.935C48.2651 156.419 48.5522 155.631 48.5441 154.603Z" fill="#FFDD00"/>
<path d="M76.1087 125.616C75.0351 126.277 73.8423 124.954 73.6808 122.456C73.6498 121.979 73.6629 121.322 73.6939 120.853L75.7611 119.995L76.1087 125.615V125.616Z" fill="#FAAA1F"/>
</g>
<path d="M-2.20741 142.614C-4.06745 143.486 -4.83431 146.184 -4.71357 148.08C-4.58141 149.656 -4.29262 152.212 -4.14251 153.806L-4.32525 153.476C-2.41789 154.763 0.595711 156.876 2.51449 158.206L1.90264 158.129C3.79205 157.33 5.68799 156.55 7.58393 155.767C19.6856 150.75 35.6494 144.354 47.4394 139.783C57.0089 134.559 67.1004 129.088 76.7482 124.078L76.5491 124.314L79.0031 117.969L78.99 118.065L78.9443 116.763C78.9052 116.068 78.9688 114.89 78.6947 114.223C78.5821 113.867 78.2803 113.413 77.8626 113.578L77.8169 113.479C78.7877 113.125 79.0716 114.803 79.1206 115.445L79.2919 118.044C79.3098 118.062 77.019 124.461 77.0256 124.481C77.0615 124.528 47.942 140.668 47.9355 140.697C35.1599 145.791 15.0975 153.678 2.16859 158.795L2.13106 158.81L2.09843 158.785L-4.6222 153.894L-4.64668 153.876V153.845C-4.74131 152.801 -4.88979 150.25 -4.97463 149.249C-5.00726 148.738 -5.06111 148.229 -5.05132 147.71C-5.00727 146.171 -4.50636 144.6 -3.49149 143.425C-3.14885 143.04 -2.73116 142.702 -2.23841 142.516L-2.20088 142.619L-2.20741 142.614Z" fill="#3F0B02"/>
<path d="M50.166 146.708C50.6816 148.488 51.6736 152.086 52.1663 153.871L51.698 153.677C54.1096 151.874 56.5831 150.164 59.104 148.522C62.5956 146.24 66.2407 144.018 69.8694 141.96C71.9219 140.78 74.1116 139.612 76.2147 138.529L75.97 138.914C76.1429 137.695 76.4432 135.938 76.6292 134.734C76.7956 133.698 77.1594 131.594 77.3471 130.56L77.4548 130.571L76.5508 138.976L76.5476 139.008L76.5182 139.026C69.5349 143.329 59.0061 149.712 51.8906 153.993L51.8188 154.037L51.7992 153.956L50.0566 146.729L50.1627 146.703L50.166 146.708Z" fill="#3F0B02"/>
<path d="M50.4418 156.005C50.9573 157.769 51.9494 161.336 52.4421 163.104L51.964 162.917C53.8828 161.365 55.8506 159.883 57.846 158.434C62.3134 155.202 66.9717 152.128 71.6756 149.25C73.2044 148.328 74.9111 147.326 76.4595 146.452L76.2311 146.827C76.5297 144.863 76.9066 142.461 77.2362 140.501L77.6065 138.397L77.7142 138.408L76.8119 146.889L76.8087 146.92L76.7826 146.938C69.8042 151.616 59.2819 158.563 52.1713 163.225L52.0978 163.272L52.0766 163.187L50.3357 156.025L50.4418 155.998V156.005Z" fill="#3F0B02"/>
<path d="M-2.91382 160.445C-0.673608 161.962 1.61881 163.445 3.88024 164.969L3.69913 164.951C11.5815 161.43 29.7887 153.277 37.4198 149.944C37.3153 149.947 49.0108 144.858 48.5996 145.019C56.805 140.1 68.954 132.717 77.0958 127.894L76.683 128.463L77.8382 123.161L79.2071 116.871C79.447 120.539 79.9968 128.731 80.2432 132.467C80.5793 138.152 81.2238 147.433 81.5664 153.096L81.6398 154.241C81.7867 156.529 82.4606 159.061 81.5469 161.463C81.0003 162.912 79.9789 164.16 78.6964 165.012L78.2053 165.333L77.2426 165.958C76.0711 166.692 68.9589 171.357 67.6128 172.21C67.5704 172.238 52.1973 182.209 52.1582 182.235C40.8445 187.972 18.0623 199.465 6.71272 205.131L5.29322 205.844L4.5802 206.203C4.33056 206.34 4.02545 206.466 3.7187 206.548C2.37915 206.934 1.04285 206.254 0.383679 205.05C-0.208598 204.032 -0.399496 202.865 -0.453339 201.733L-0.660555 198.522C-1.44047 185.939 -2.1078 172.892 -2.91219 160.443L-2.91382 160.445ZM-2.85997 160.539C-2.10617 170.668 -0.544711 191.777 0.178096 201.697C0.230308 202.739 0.417944 203.805 0.948219 204.714C1.67429 205.978 2.991 206.326 4.25714 205.593C4.66015 205.383 5.94749 204.732 6.37824 204.508C6.37498 204.508 51.6817 181.334 51.6426 181.354C57.7856 177.348 70.633 168.978 76.652 165.054L77.6147 164.427C80.0947 162.977 81.1846 160.569 80.9056 157.731C80.8289 156.592 80.6152 155.449 80.5646 154.303C80.5222 153.535 80.3949 151.647 80.3492 150.865C79.9887 144.98 79.0064 129.429 78.6328 123.365L78.8172 123.379L77.6359 128.677L77.6277 128.716L77.5934 128.736C77.5934 128.736 48.9863 145.68 48.9847 145.68C48.9814 145.675 3.80029 165.181 3.79702 165.178C1.5666 163.724 -0.632817 162.078 -2.85997 160.541V160.539Z" fill="#3F0B02"/>
</g>
<path d="M38.8341 75.0507L36.9855 71.7548L37.7491 75.2954L37.0965 75.4423L35.9951 70.337L36.7848 70.1477L38.8896 73.8939L39.273 69.5489L40.0725 69.3564L41.1771 74.5269L40.5114 74.6771L39.7478 71.1054L39.415 74.9234L38.8374 75.0523L38.8341 75.0507Z" fill="black"/>
<path d="M42.4775 70.2097C43.3325 70.0074 44.1809 70.704 44.4159 71.8184C44.6508 72.9328 44.1646 73.9412 43.3096 74.1321C42.4547 74.323 41.6176 73.6116 41.3827 72.5168C41.1477 71.4122 41.6193 70.412 42.4759 70.2097H42.4775ZM43.135 73.3081C43.6278 73.1972 43.8807 72.6016 43.7485 71.9718C43.6164 71.342 43.1432 70.9129 42.6521 71.0287C42.161 71.1446 41.9048 71.7401 42.0386 72.3667C42.1724 72.9932 42.6521 73.4191 43.1367 73.3081H43.135Z" fill="black"/>
<path d="M45.3589 70.1787C45.4372 69.7708 45.6624 69.4575 46.0605 69.3645C46.7213 69.2079 47.2761 69.73 47.4556 70.5833L47.963 73.003L47.294 73.1531L46.8323 70.9553C46.7246 70.4447 46.4146 70.151 46.0214 70.2423C45.6281 70.3337 45.4813 70.709 45.571 71.1985L46.0426 73.4338L45.3818 73.5822L44.5823 69.7953L45.2431 69.6386L45.3573 70.1787H45.3589Z" fill="black"/>
<path d="M48.8587 71.0989C49.0414 71.6357 49.4836 71.9359 49.9763 71.8234C50.3777 71.732 50.735 71.4546 50.952 71.1593L51.1299 72.0126C50.908 72.259 50.5474 72.5119 50.0905 72.6147C49.1997 72.8138 48.3659 72.1399 48.1196 70.9668C47.8732 69.7936 48.3447 68.8228 49.2176 68.6172C50.0905 68.4117 50.8395 69.1149 51.0516 70.1363C51.0826 70.2847 51.1022 70.4691 51.0989 70.585L48.8587 71.0989ZM48.7135 70.4381L50.3451 70.0596C50.2194 69.5228 49.8034 69.234 49.3596 69.3368C48.9158 69.4396 48.6515 69.9274 48.7135 70.4365V70.4381Z" fill="black"/>
<path d="M52.7241 71.6211L50.8298 68.3187L51.5967 68.1376L52.8759 70.4496L53.1647 67.7672L53.9479 67.5828L53.2136 73.5089L52.419 73.6834L52.7241 71.6211Z" fill="black"/>
<path d="M57.8441 66.3248C57.5651 66.1551 57.1588 66.0589 56.8047 66.1421C56.387 66.2416 56.2076 66.5532 56.281 66.9122C56.3283 67.1439 56.4898 67.3071 56.7656 67.4343L57.5422 67.7982C58.19 68.0837 58.4935 68.4753 58.6142 69.0692C58.7806 69.8866 58.4657 70.7351 57.4982 70.9521C57.0544 71.0516 56.6399 70.9864 56.3446 70.8868L56.1358 69.8687C56.4131 70.0465 56.8651 70.1934 57.2893 70.0988C57.7331 69.9976 57.9077 69.6582 57.8327 69.2976C57.7837 69.0578 57.6189 68.8783 57.291 68.7282L56.5029 68.3676C55.8845 68.1017 55.6218 67.7035 55.5043 67.1308C55.3559 66.4048 55.5778 65.5302 56.6383 65.2757C56.9924 65.1909 57.3464 65.2316 57.6385 65.3295L57.8424 66.3265L57.8441 66.3248Z" fill="black"/>
<path d="M59.7579 68.5977C59.9456 69.1524 60.4122 69.4591 60.936 69.34C61.3634 69.2438 61.7453 68.9533 61.9802 68.6466L62.158 69.5277C61.9198 69.7838 61.5331 70.0482 61.0469 70.1575C60.0973 70.3696 59.2211 69.6778 58.9748 68.4671C58.7382 67.3022 59.2391 66.2481 60.1691 66.0279C61.0959 65.8092 61.8856 66.532 62.0993 67.586C62.1303 67.7394 62.1483 67.9303 62.145 68.0511L59.7596 68.5977H59.7579ZM59.6127 67.9156L61.3504 67.5126C61.2248 66.9579 60.7859 66.6609 60.3127 66.7719C59.8395 66.8828 59.554 67.3886 59.6127 67.914V67.9156Z" fill="black"/>
<path d="M63.1679 66.0017C63.2626 65.5694 63.5171 65.2365 63.9593 65.1321C64.6919 64.9591 65.2939 65.5041 65.475 66.4048L65.9857 68.9566L65.245 69.123L64.78 66.8045C64.6723 66.2644 64.3362 65.9577 63.9005 66.0605C63.4649 66.1633 63.2952 66.5598 63.3849 67.077L63.8597 69.4347L63.1271 69.5995L62.3228 65.6053L63.0553 65.4323L63.1696 66.0034L63.1679 66.0017Z" fill="black"/>
<path d="M67.027 68.7233L66.376 65.4568L65.813 65.5889L65.6597 64.8172L66.2634 64.6752L66.0741 63.7289L66.7414 63.3618L66.9699 64.5088L67.5768 64.3652L67.7318 65.1419L67.1249 65.2838L67.7759 68.5568L67.0286 68.7249L67.027 68.7233Z" fill="black"/>
<path d="M33.7908 25.5785C33.4368 25.3223 32.9 25.1331 32.4089 25.1755C31.8264 25.2244 31.5392 25.5769 31.5931 26.0337C31.6273 26.3291 31.8264 26.5575 32.187 26.7631L33.1969 27.3423C34.0372 27.8008 34.3994 28.3343 34.4892 29.0881C34.6132 30.1307 34.0813 31.1505 32.7287 31.2843C32.1038 31.3463 31.5359 31.2043 31.1395 31.033L30.9894 29.7098C31.3499 29.9774 31.9569 30.2319 32.5557 30.1748C33.1545 30.1177 33.458 29.7147 33.4041 29.2529C33.3683 28.9462 33.1659 28.6965 32.7384 28.4567L31.7056 27.8791C30.8882 27.4467 30.5798 26.905 30.4966 26.1708C30.3922 25.244 30.8197 24.2063 32.3012 24.0856C32.7923 24.0464 33.2638 24.159 33.644 24.332L33.7925 25.5818L33.7908 25.5785Z" fill="#00E15A"/>
<path d="M38.2631 29.9104C38.095 30.4097 37.7393 30.7849 37.1389 30.8453C36.1811 30.9399 35.4567 30.1731 35.3229 29.0603L34.9395 25.8885L35.9119 25.8052L36.2627 28.6638C36.3459 29.3442 36.7473 29.7701 37.3135 29.7146C37.8796 29.6591 38.1488 29.2039 38.095 28.5627L37.7279 25.647L38.6775 25.5654L39.3073 30.5157L38.3512 30.6104L38.2631 29.9088V29.9104Z" fill="#00E15A"/>
<path d="M43.3944 29.9284C43.1611 30.1339 42.7549 30.2873 42.4204 30.3199C41.0988 30.4505 40.03 29.3997 39.844 27.9508C39.6564 26.4987 40.4298 25.3125 41.7416 25.1999C42.0745 25.1706 42.5052 25.2342 42.7842 25.3794L42.9409 26.5477C42.6749 26.36 42.3013 26.223 41.8819 26.2605C41.1608 26.3241 40.7055 27.0404 40.8132 27.8611C40.9209 28.6818 41.5523 29.3051 42.2768 29.2349C42.6896 29.1958 43.0273 29 43.2378 28.7569L43.3944 29.9284Z" fill="#00E15A"/>
<path d="M47.1587 29.558C46.9319 29.762 46.5338 29.9121 46.2058 29.9447C44.9103 30.0736 43.853 29.0326 43.6589 27.5984C43.4647 26.1642 44.2136 24.9895 45.501 24.8785C45.8273 24.8508 46.2515 24.9128 46.5256 25.058L46.6888 26.2132C46.4261 26.0288 46.059 25.8918 45.6478 25.9277C44.9413 25.9897 44.4991 26.6994 44.6117 27.5103C44.7227 28.3245 45.3476 28.9396 46.0573 28.8711C46.462 28.8319 46.7932 28.6394 46.9971 28.3996L47.1603 29.558H47.1587Z" fill="#00E15A"/>
<path d="M48.3774 27.5299C48.5683 28.2185 49.1279 28.6541 49.7904 28.5905C50.3272 28.5383 50.8199 28.2527 51.1299 27.9248L51.2882 28.9919C50.9782 29.2611 50.4805 29.5205 49.8687 29.5809C48.6646 29.7 47.6122 28.7406 47.4017 27.2526C47.1994 25.8298 47.9173 24.6713 49.0904 24.5702C50.2472 24.4706 51.1609 25.4398 51.3469 26.6994C51.3747 26.8838 51.3828 27.1106 51.3698 27.2493L48.3774 27.5299ZM48.2501 26.6978L50.4381 26.4987C50.3223 25.8298 49.8051 25.4137 49.2128 25.4659C48.6205 25.5181 48.2191 26.068 48.2518 26.6994L48.2501 26.6978Z" fill="#00E15A"/>
<path d="M54.0783 25.4136C53.7895 25.2342 53.4387 25.1297 53.1336 25.1558C52.7943 25.1852 52.6474 25.4039 52.6866 25.6649C52.7176 25.8672 52.8383 25.9651 53.0553 26.0908L53.7634 26.4856C54.31 26.7973 54.545 27.2166 54.6168 27.68C54.744 28.5039 54.3084 29.1386 53.4077 29.2284C53.0259 29.2659 52.6148 29.1778 52.3227 29.0587L52.1579 27.9557C52.3945 28.1499 52.853 28.344 53.2185 28.3081C53.584 28.2722 53.7373 28.0405 53.6949 27.7599C53.6655 27.5657 53.553 27.4189 53.2756 27.2688L52.5201 26.8478C52.0617 26.5949 51.8349 26.1838 51.7647 25.7188C51.6456 24.9258 52.0649 24.3139 52.9705 24.2372C53.3001 24.2095 53.6525 24.2666 53.9168 24.3498L54.08 25.4136H54.0783Z" fill="#00E15A"/>
<path d="M57.1621 25.138C56.8766 24.9601 56.5307 24.8557 56.2305 24.8818C55.896 24.9112 55.7524 25.1282 55.7932 25.386C55.8242 25.5867 55.9449 25.6829 56.1587 25.8085L56.857 26.2018C57.3971 26.5118 57.632 26.9262 57.7054 27.3863C57.836 28.2021 57.4101 28.8319 56.5258 28.92C56.1489 28.9576 55.7442 28.8695 55.4571 28.7504L55.2874 27.6572C55.5207 27.8497 55.9743 28.0422 56.3332 28.008C56.6922 27.9737 56.8423 27.7437 56.7983 27.4646C56.7673 27.2721 56.6563 27.1269 56.3822 26.9768L55.6365 26.5591C55.183 26.3078 54.9578 25.8999 54.886 25.4398C54.7636 24.655 55.1715 24.048 56.0624 23.9713C56.3871 23.9436 56.733 24.0007 56.9941 24.0839L57.1621 25.1396V25.138Z" fill="#00E15A"/>
<path style="mix-blend-mode:multiply" d="M179.604 181.989L186.742 180.212C188.122 179.867 189.555 179.779 190.968 179.949L242.093 186.089C244.203 186.342 246.281 186.797 248.303 187.45L269.959 194.426C270.431 194.578 270.376 195.262 269.886 195.335L239.84 199.9C237.038 200.326 234.176 200.101 231.476 199.243L179.579 182.746C179.201 182.625 179.219 182.085 179.604 181.989Z" fill="url(#paint2_linear_26_676)"/>
<path d="M215.256 1.03561C216.485 0.325859 217.888 -0.023302 219.306 0.0011723L263.252 0.719078C263.252 0.719078 273.343 0.458022 271.296 15.1312L242.992 185.545C242.992 185.545 241.148 198.171 232.044 197.611L188.664 181.492C187.432 181.034 186.359 180.23 185.579 179.172C184.022 177.066 182.064 173.039 182.96 166.739L208.061 14.2011C208.061 14.2011 208.456 4.96455 215.256 1.03725V1.03561Z" fill="#464646"/>
<path d="M232.62 194.702L189.685 178.748C188.984 178.487 188.377 178.032 187.935 177.431C186.584 175.604 185.128 172.342 185.856 167.18L210.98 14.4998L210.988 14.3235C210.991 14.2566 211.432 6.62557 216.721 3.56955C217.451 3.1486 218.299 2.9267 219.174 2.9267H219.259L263.299 3.64624H263.314C263.57 3.65113 265.52 3.75555 266.926 5.38065C268.486 7.18195 268.997 10.3995 268.403 14.689L240.101 185.093L240.096 185.121C240.093 185.141 239.677 187.818 238.363 190.383C236.151 194.702 233.498 194.702 232.625 194.702H232.618H232.62Z" fill="white"/>
<path d="M280.681 17.7744L252.379 186.216C252.379 186.216 250.901 197.747 240.957 197.629L233.15 197.613C241.302 197.136 242.994 185.545 242.994 185.545L271.297 15.1312C272.673 5.27624 268.573 2.15823 265.73 1.17273L272.973 2.95282C272.973 2.95282 282.693 5.03803 280.681 17.7744Z" fill="#222222"/>
<path d="M269.388 46.8628L267.006 60.5603C266.841 61.5082 267.437 62.4236 268.372 62.6553H268.373C269.406 62.9114 270.439 62.2376 270.622 61.1901L273.002 47.491C273.162 46.5757 272.609 45.6848 271.718 45.4189C270.666 45.1056 269.576 45.7811 269.388 46.8628Z" fill="#C4211A"/>
<path d="M272.232 45.6653C272.079 45.5592 271.906 45.476 271.718 45.4205C271.542 45.3683 271.367 45.3422 271.193 45.3422C270.328 45.3422 269.545 45.9606 269.388 46.8629L267.004 60.5603C266.92 61.0514 267.039 61.5311 267.3 61.9129C266.724 61.5181 266.402 60.8099 266.53 60.0839L268.913 46.3864C269.07 45.4858 269.853 44.8658 270.718 44.8658C270.891 44.8658 271.067 44.8902 271.242 44.9441C271.659 45.0681 272.002 45.3275 272.23 45.6636L272.232 45.6653Z" fill="#49D3F2"/>
<path d="M244.88 7.29941L233.893 6.93556C232.723 6.8964 231.847 5.85054 232.013 4.69209L232.294 2.72925L247.215 2.9381L246.897 5.5699C246.774 6.5815 245.9 7.33204 244.88 7.29941Z" fill="#464646"/>
<path d="M220.221 5.14566L220.162 5.43283L219.17 5.40019L219.229 5.11466L219.57 5.12608L219.743 4.28906C219.614 4.32332 219.479 4.32659 219.35 4.32496L219.404 4.06553C219.603 4.06553 219.733 4.01332 219.843 3.8779L220.14 3.88606L219.882 5.13587L220.223 5.14729L220.221 5.14566Z" fill="#464646"/>
<path d="M220.698 5.16195L221.428 5.18479L221.368 5.47358L220.322 5.43932L220.355 5.28105C220.415 4.98899 220.574 4.81767 220.929 4.66593C221.169 4.56314 221.257 4.48809 221.283 4.35756C221.306 4.24661 221.257 4.17155 221.118 4.16829C220.98 4.16502 220.89 4.23682 220.857 4.39672L220.849 4.43914L220.552 4.43097L220.567 4.35918C220.632 4.03939 220.848 3.87623 221.179 3.88439C221.51 3.89254 221.657 4.06876 221.597 4.36408C221.543 4.62188 221.383 4.78177 221.035 4.92373C220.822 5.0102 220.735 5.06731 220.696 5.16031L220.698 5.16195Z" fill="#464646"/>
<path d="M221.869 4.33969L222.202 4.34948L222.129 4.70355L221.796 4.69376L221.869 4.33969ZM221.706 5.12777L222.037 5.13755L221.964 5.49161L221.633 5.4802L221.706 5.12777Z" fill="#464646"/>
<path d="M223.406 5.21904L223.254 5.21415L223.188 5.53394L222.868 5.52415L222.935 5.20598L222.251 5.18478L222.313 4.88783L223.171 3.96432L223.514 3.97248L223.313 4.93677L223.465 4.94166L223.408 5.21904H223.406ZM222.992 4.92698L223.108 4.36897L222.613 4.91556L222.992 4.92698Z" fill="#464646"/>
<path d="M224.698 5.28763L224.636 5.58133L223.602 5.54706L223.662 5.25501L224.018 5.26643L224.196 4.41145C224.06 4.44735 223.92 4.45062 223.786 4.44899L223.842 4.18467C224.05 4.18467 224.184 4.13081 224.299 3.99213L224.609 4.00029L224.343 5.27622L224.698 5.28763Z" fill="#464646"/>
<path d="M226.207 5.31213L225.731 5.29745L225.57 5.61236L225.233 5.60093L226.07 4.03784L226.416 4.046L226.593 5.64498L226.237 5.63357L226.207 5.31213ZM225.875 5.00866L226.186 5.01845L226.152 4.43759L225.875 5.01029V5.00866Z" fill="#464646"/>
<path d="M228.413 5.707L228.072 5.69558L228.327 4.49146L227.691 5.68254L227.462 5.67438L227.335 4.46208L227.082 5.66132L226.764 5.65154L227.098 4.06396L227.594 4.07702L227.702 5.12615L228.249 4.09334L228.754 4.10639L228.417 5.70537L228.413 5.707Z" fill="#464646"/>
<path d="M262.085 7.14928L258.445 7.10685C258.238 7.10359 258.098 6.93717 258.132 6.73485L258.313 5.65308C258.347 5.44913 258.543 5.2876 258.749 5.28923L262.389 5.33165C262.596 5.33491 262.736 5.50134 262.702 5.70366L262.521 6.78543C262.487 6.98938 262.291 7.15091 262.085 7.14928Z" fill="#464646"/>
<path d="M258.479 6.89963C258.388 6.89963 258.324 6.82458 258.341 6.73484L258.522 5.65308C258.536 5.56334 258.623 5.48991 258.716 5.49154L260.938 5.51765C261.062 5.51765 261.147 5.61881 261.127 5.74119L260.966 6.7071C260.945 6.82947 260.827 6.92737 260.703 6.92574L258.481 6.89963H258.479Z" fill="white"/>
<path d="M262.953 6.67286H262.756C262.694 6.6696 262.651 6.61902 262.661 6.55865L262.765 5.9321C262.775 5.87173 262.834 5.82278 262.896 5.82278H263.093C263.155 5.82605 263.198 5.87663 263.188 5.937L263.084 6.56354C263.074 6.6239 263.015 6.67286 262.953 6.67286Z" fill="#464646"/>
<path d="M254.523 6.96164L254.208 6.94859L254.436 5.77872L254.751 5.79014L254.523 6.96164Z" fill="#464646"/>
<path d="M255.149 6.9861L254.834 6.97305L255.147 5.36264L255.464 5.3757L255.149 6.9861Z" fill="#464646"/>
<path d="M255.776 7.01058L255.461 6.99753L255.856 4.97269L256.171 4.98411L255.776 7.01058Z" fill="#464646"/>
<path d="M256.402 7.03504L256.087 7.02198L256.569 4.55661L256.884 4.56967L256.402 7.03504Z" fill="#464646"/>
<path d="M249.376 120.062L243.842 153.572L236.622 170.897L244.372 124.234L249.376 120.062Z" fill="#FAAA1F"/>
<path d="M198.349 113.417L208.55 110.002L249.215 120.1L244.353 124.153L198.349 113.417Z" fill="#FFDD00"/>
<path d="M208.553 110.078L249.055 120.136L244.335 124.071L198.623 113.404L208.553 110.078ZM208.547 109.923L198.075 113.43L244.372 124.234L249.376 120.062L208.547 109.923Z" fill="#FAAA1F"/>
<path d="M214.084 115.045L216.421 113.462L235.617 118.005L232.788 120.062L214.084 115.045Z" fill="#FAAA1F"/>
<path d="M216.677 113.82L215.238 114.898L232.693 119.587L234.749 118.093L216.677 113.82Z" fill="white"/>
<path d="M198.075 113.43L244.372 124.234L236.622 170.897L191.175 155.362L198.075 113.43Z" fill="#222222"/>
<path d="M227.624 19.4256C227.361 19.0977 226.886 18.804 226.364 18.7567C225.746 18.6996 225.305 19.0096 225.17 19.4909C225.082 19.8042 225.191 20.0799 225.478 20.3606L226.289 21.1584C226.979 21.8045 227.139 22.4441 226.922 23.2779C226.619 24.4478 225.615 25.4789 224.104 25.3647C223.406 25.3125 222.863 25.0417 222.515 24.7741L222.951 23.286C223.213 23.6483 223.747 24.0447 224.406 24.097C225.065 24.1492 225.565 23.7641 225.705 23.2485C225.796 22.9075 225.69 22.5991 225.341 22.2598L224.506 21.4472C223.84 20.8354 223.752 20.2088 223.982 19.4273C224.267 18.4548 225.139 17.4775 226.695 17.6243C227.213 17.6733 227.648 17.874 227.968 18.1171L227.625 19.424L227.624 19.4256Z" fill="#00E15A"/>
<path d="M230.603 24.9095C230.226 25.4333 229.696 25.7857 229.025 25.7351C227.957 25.6552 227.5 24.6582 227.816 23.4084L228.688 19.9576L229.727 20.0506L228.97 23.1571C228.786 23.9159 229.042 24.4608 229.665 24.5098C230.269 24.5571 230.757 24.1068 230.946 23.397L231.667 20.2235L232.682 20.3132L231.486 25.7906L230.422 25.7106L230.603 24.9111V24.9095Z" fill="#00E15A"/>
<path d="M236.098 25.926C235.775 26.112 235.283 26.2034 234.909 26.1756C233.437 26.0647 232.685 24.686 233.026 23.0658C233.367 21.4456 234.588 20.3736 235.989 20.4992C236.345 20.5302 236.772 20.6754 237.012 20.881L236.784 22.1439C236.567 21.8943 236.224 21.6789 235.772 21.6397C234.995 21.5728 234.264 22.25 234.083 23.1522C233.899 24.0676 234.346 24.8736 235.146 24.9356C235.601 24.9715 236.032 24.8214 236.34 24.593L236.098 25.9244V25.926Z" fill="#00E15A"/>
<path d="M240.277 26.2425C239.967 26.4269 239.489 26.5199 239.124 26.4922C237.681 26.3845 236.905 25.0172 237.187 23.4084C237.464 21.8306 238.631 20.7342 240.005 20.8566C240.354 20.8876 240.775 21.0312 241.016 21.2335L240.832 22.4882C240.613 22.2418 240.271 22.0281 239.828 21.9889C239.068 21.9236 238.375 22.5959 238.225 23.4916C238.074 24.3874 238.534 25.1999 239.318 25.2603C239.763 25.2946 240.179 25.1461 240.475 24.9193L240.28 26.2409L240.277 26.2425Z" fill="#00E15A"/>
<path d="M242.215 24.2308C242.21 25.0238 242.677 25.6144 243.408 25.6715C244 25.7172 244.61 25.4953 245.036 25.1918L244.903 26.4106C244.49 26.6537 243.876 26.8479 243.196 26.7973C241.856 26.6978 241.026 25.4186 241.264 23.7429C241.488 22.1766 242.584 21.0867 243.835 21.1976C245.069 21.3069 245.759 22.5013 245.611 23.893C245.589 24.0986 245.536 24.3466 245.483 24.4967L242.217 24.2324L242.215 24.2308ZM242.331 23.3024L244.703 23.4998C244.77 22.7591 244.343 22.2174 243.707 22.1619C243.051 22.1048 242.486 22.6171 242.331 23.3008V23.3024Z" fill="#00E15A"/>
<path d="M248.837 23.0218C248.577 22.777 248.236 22.5992 247.907 22.5698C247.543 22.5388 247.331 22.7428 247.303 23.0299C247.282 23.2535 247.384 23.3807 247.58 23.5586L248.228 24.1215C248.729 24.5653 248.874 25.0694 248.833 25.5948C248.758 26.5379 248.122 27.1677 247.123 27.0926C246.699 27.0616 246.278 26.8805 245.998 26.688L246.126 25.4235C246.326 25.6846 246.766 25.988 247.169 26.019C247.562 26.05 247.799 25.8216 247.827 25.5018C247.846 25.2816 247.765 25.0988 247.507 24.8802L246.815 24.2749C246.396 23.9126 246.267 23.4248 246.319 22.9124C246.407 22.0461 247.006 21.4799 247.972 21.5647C248.324 21.5957 248.677 21.7214 248.933 21.8584L248.838 23.0201L248.837 23.0218Z" fill="#00E15A"/>
<path d="M252.158 23.3057C251.899 23.0626 251.558 22.8863 251.233 22.857C250.874 22.826 250.672 23.0299 250.654 23.3138C250.639 23.5357 250.744 23.6614 250.939 23.8392L251.589 24.3972C252.093 24.8378 252.248 25.3387 252.22 25.8608C252.171 26.7973 251.564 27.4239 250.582 27.3505C250.164 27.3194 249.748 27.1416 249.468 26.9507L249.561 25.696C249.763 25.9554 250.204 26.2573 250.598 26.2883C250.993 26.3193 251.21 26.0925 251.23 25.7727C251.243 25.554 251.158 25.3713 250.9 25.1543L250.205 24.5539C249.784 24.1949 249.646 23.7103 249.683 23.2012C249.747 22.3414 250.319 21.7768 251.269 21.8617C251.615 21.8927 251.964 22.0167 252.22 22.1538L252.158 23.3073V23.3057Z" fill="#00E15A"/>
<path d="M246.268 58.4278C242.71 67.3527 233.047 72.0289 224.848 68.7902C216.772 65.602 213.336 55.982 217.015 47.3768C220.64 38.8973 229.908 34.4153 237.865 37.2902C245.94 40.2075 249.771 49.635 246.266 58.4262L246.268 58.4278Z" stroke="#023E73" stroke-width="2.47" stroke-miterlimit="20"/>
<path d="M243.478 57.3737C240.577 64.6034 232.744 68.392 226.088 65.7863C219.514 63.2116 216.688 55.3978 219.671 48.3802C222.618 41.4475 230.188 37.7845 236.684 40.1503C243.256 42.5456 246.345 50.2321 243.48 57.3737H243.478Z" fill="#FFDD00" stroke="#FAAA1F" stroke-width="6.92" stroke-miterlimit="10"/>
<path d="M225.101 49.9075C226.747 51.9617 227.989 54.2721 229.12 56.6314L226.731 55.6361C227.766 54.941 228.841 54.3292 229.936 53.7597C232.722 52.3533 235.672 51.2634 238.784 50.8016C239.424 50.7086 240.079 50.6466 240.763 50.6434L240.861 50.8473C236.539 53.0712 231.974 55.282 227.575 57.3803L227.361 57.4831L227.288 57.2612C226.681 55.4501 225.472 51.7985 224.887 49.9809L225.101 49.9075Z" fill="#FAAA1F"/>
<path d="M225.08 49.9157C226.573 52.0515 227.725 54.3798 228.793 56.744L226.883 55.9478C230.045 53.9817 233.43 52.4203 237.017 51.3989C238.247 51.0579 239.482 50.7772 240.773 50.663L240.851 50.8262C239.748 51.3793 238.652 51.9471 237.542 52.4839C234.449 54.0078 230.673 55.863 227.552 57.3314L227.393 57.4065L227.338 57.2433C226.93 56.0408 225.886 52.9619 225.507 51.7937L224.908 49.9728L225.08 49.9141V49.9157Z" fill="white"/>
<path d="M244.102 42.6435C244.501 42.2144 244.924 41.8049 245.361 41.4133C245.798 41.0201 246.247 40.6399 246.712 40.2744C247.658 39.5696 248.683 38.9691 249.753 38.46C250.829 37.9689 251.977 37.5725 253.188 37.5056C253.788 37.4746 254.407 37.5137 254.993 37.6948C255.578 37.8727 256.127 38.1729 256.598 38.558L256.939 38.8614C257.057 38.9773 257.159 39.1143 257.236 39.2644C257.389 39.563 257.446 39.9155 257.378 40.245C257.319 40.5763 257.145 40.8863 256.906 41.1098C256.67 41.3366 256.389 41.4981 256.097 41.6107C255.805 41.7249 255.5 41.7918 255.195 41.8261C255.041 41.844 254.888 41.8489 254.733 41.8489L254.501 41.8408C254.42 41.8293 254.337 41.8244 254.257 41.8065C253.934 41.7396 253.629 41.5732 253.394 41.3382C253.159 41.1016 253.004 40.7949 252.935 40.4735C252.865 40.1504 252.894 39.811 253 39.5027C253.054 39.3444 253.123 39.2122 253.19 39.0752C253.263 38.9414 253.335 38.8076 253.418 38.6803C253.741 38.1664 254.149 37.7144 254.59 37.3081C255.035 36.9051 255.523 36.5576 256.025 36.2394C256.275 36.0763 256.547 35.9539 256.817 35.8266C257.086 35.7026 257.362 35.5917 257.636 35.4823L257.742 35.7222C257.484 35.856 257.228 35.9914 256.978 36.1383C256.729 36.2818 256.489 36.4434 256.241 36.5886C255.748 36.8839 255.285 37.2265 254.86 37.6067C254.443 37.9918 254.058 38.4176 253.759 38.8957C253.682 39.0132 253.615 39.1372 253.547 39.2595C253.485 39.3852 253.421 39.5141 253.381 39.6332C253.296 39.8779 253.273 40.1422 253.328 40.3919C253.382 40.6399 253.5 40.8765 253.679 41.056C253.859 41.2354 254.087 41.3594 254.337 41.4116C254.399 41.4263 254.464 41.428 254.526 41.4377L254.733 41.4443C254.872 41.4443 255.01 41.4394 255.148 41.4231C255.422 41.3937 255.694 41.3317 255.947 41.2338C256.2 41.1359 256.435 40.9988 256.621 40.8194C256.809 40.6415 256.933 40.4147 256.977 40.17C257.029 39.9269 256.986 39.6675 256.872 39.4472C256.815 39.3362 256.742 39.2351 256.65 39.147L256.335 38.868C255.901 38.5139 255.407 38.243 254.872 38.0799C254.337 37.9135 253.767 37.8759 253.204 37.9053C252.07 37.9673 250.962 38.3458 249.917 38.8239C249.394 39.0703 248.885 39.3444 248.386 39.6397C248.14 39.7915 247.892 39.9416 247.65 40.1031C247.53 40.183 247.41 40.2662 247.291 40.3478L246.924 40.5812C245.94 41.2028 245.002 41.8995 244.095 42.6419L244.102 42.6435Z" fill="#222222"/>
<path d="M257.161 37.424L257.234 35.8022L256.12 34.6241L259.957 34.7905L257.161 37.424Z" fill="#222222"/>
<path d="M233.795 37.1907L234.234 34.2734" stroke="#FFDD00" stroke-width="2.01" stroke-miterlimit="20"/>
<path d="M226.066 38.7277L225.064 36.1041" stroke="#FFDD00" stroke-width="2.01" stroke-miterlimit="20"/>
<path d="M219.755 43.9831L217.572 42.3335" stroke="#FFDD00" stroke-width="2.01" stroke-miterlimit="20"/>
<path d="M216.49 51.6354L213.677 51.4118" stroke="#FFDD00" stroke-width="2.01" stroke-miterlimit="20"/>
<path d="M217.183 59.7282L214.47 61.04" stroke="#FFDD00" stroke-width="2.01" stroke-miterlimit="20"/>
<path d="M221.744 66.1029L219.879 68.6548" stroke="#FFDD00" stroke-width="2.01" stroke-miterlimit="20"/>
<path d="M229.019 68.9648L228.549 72.0926" stroke="#FFDD00" stroke-width="2.01" stroke-miterlimit="20"/>
<path d="M237.025 67.4507L238.109 70.2929" stroke="#FFDD00" stroke-width="2.01" stroke-miterlimit="20"/>
<path d="M243.509 61.9553L245.847 63.7224" stroke="#FFDD00" stroke-width="2.01" stroke-miterlimit="20"/>
<path d="M246.673 54.0421L249.6 54.2754" stroke="#FFDD00" stroke-width="2.01" stroke-miterlimit="20"/>
<path d="M245.707 45.9279L248.419 44.6161" stroke="#FFDD00" stroke-width="2.01" stroke-miterlimit="20"/>
<path d="M240.97 39.7931L242.762 37.3407" stroke="#FFDD00" stroke-width="2.01" stroke-miterlimit="20"/>
<path d="M237.578 37.9885L240.269 31.4767" stroke="#222222" stroke-width="2.01" stroke-miterlimit="20"/>
<path d="M229.874 37.4452L229.188 30.7392" stroke="#222222" stroke-width="2.01" stroke-miterlimit="20"/>
<path d="M222.618 40.9549L218.769 35.7794" stroke="#222222" stroke-width="2.01" stroke-miterlimit="20"/>
<path d="M217.664 47.6216L211.616 45.3373" stroke="#222222" stroke-width="2.01" stroke-miterlimit="20"/>
<path d="M216.322 55.7634L209.607 57.0654" stroke="#222222" stroke-width="2.01" stroke-miterlimit="20"/>
<path d="M219.027 63.2574L213.438 67.9515" stroke="#222222" stroke-width="2.01" stroke-miterlimit="20"/>
<path d="M225.152 68.0543L222.287 74.9903" stroke="#222222" stroke-width="2.01" stroke-miterlimit="20"/>
<path d="M233.073 68.7608L233.821 76.0688" stroke="#222222" stroke-width="2.01" stroke-miterlimit="20"/>
<path d="M240.589 65.1256L244.782 70.7661" stroke="#222222" stroke-width="2.01" stroke-miterlimit="20"/>
<path d="M245.585 58.1683L252.025 60.601" stroke="#222222" stroke-width="2.01" stroke-miterlimit="20"/>
<path d="M246.71 49.865L253.581 48.532" stroke="#222222" stroke-width="2.01" stroke-miterlimit="20"/>
<path d="M214.816 76.2957L215.984 76.4801C216.819 76.6123 217.141 77.0136 217.007 77.6875L216.935 78.0448C216.801 78.717 216.346 78.983 215.516 78.8378L214.945 78.7383L214.595 80.502L214.008 80.3927L214.816 76.2957ZM215.599 78.4185C216.021 78.4902 216.243 78.376 216.325 77.9665L216.407 77.557C216.488 77.1474 216.323 76.968 215.901 76.8994L215.326 76.8064L215.028 78.3189L215.601 78.4168L215.599 78.4185Z" fill="black"/>
<path d="M218.577 81.2444C218.565 81.1808 218.572 81.0192 218.595 80.8251C218.374 81.0959 218.015 81.202 217.575 81.1204C217.035 81.0192 216.756 80.6717 216.845 80.2214C216.935 79.771 217.257 79.5426 218.023 79.4121C218.736 79.3011 218.836 79.2555 218.878 79.0499L218.893 78.9781C218.953 78.6762 218.808 78.4968 218.466 78.438C218.123 78.3793 217.878 78.5065 217.818 78.8051L217.8 78.8949L217.242 78.7986L217.255 78.7333C217.368 78.1721 217.837 77.9306 218.55 78.0481C219.319 78.1753 219.601 78.5473 219.479 79.1527L219.205 80.5053C219.128 80.8854 219.105 81.1612 219.126 81.3472L218.575 81.2444H218.577ZM218.647 80.1985L218.769 79.5916C218.673 79.6552 218.5 79.6993 218.131 79.771C217.707 79.851 217.505 79.9995 217.452 80.2622C217.4 80.5249 217.534 80.7043 217.857 80.7631C218.26 80.8381 218.557 80.6309 218.645 80.1985H218.647Z" fill="black"/>
<path d="M219.51 82.3898L219.59 81.9982C219.68 82.0537 219.782 82.0847 219.903 82.1076C220.187 82.1614 220.322 82.119 220.446 81.884L220.572 81.6801L220.148 78.376L220.776 78.4805L221.037 80.9442L222.197 78.7154L222.791 78.8133L221.031 82.0619C220.786 82.5089 220.471 82.6378 219.908 82.5285C219.763 82.5008 219.611 82.4584 219.508 82.3882L219.51 82.3898Z" fill="black"/>
<path d="M227.503 80.4579L227.005 82.814L226.343 82.69L226.831 80.3747C226.894 80.0712 226.785 79.8493 226.407 79.7857C226.028 79.7221 225.692 79.913 225.594 80.378L225.157 82.4697L224.501 82.3473L224.979 80.0565C225.041 79.7563 224.935 79.5377 224.565 79.4757C224.188 79.4121 223.865 79.603 223.77 80.0614L223.341 82.1303L222.708 82.0129L223.349 78.9063L223.9 78.9976L223.824 79.4088C224.055 79.1396 224.418 79.0188 224.847 79.089C225.276 79.1592 225.579 79.3598 225.651 79.7041C225.888 79.4382 226.257 79.3223 226.687 79.3941C227.315 79.4985 227.632 79.8395 227.501 80.4563L227.503 80.4579Z" fill="black"/>
<path d="M230.933 81.1873L230.778 81.9052L228.743 81.5462L228.616 82.1467C228.532 82.5366 228.72 82.7569 229.166 82.8385C229.613 82.92 229.89 82.7846 229.973 82.3914L229.994 82.2951L230.668 82.4159L230.657 82.4681C230.513 83.1403 229.942 83.4291 229.064 83.2643C228.187 83.0995 227.8 82.6394 227.94 81.9786L228.208 80.7174C228.348 80.0533 228.896 79.7612 229.781 79.9081C230.665 80.0549 231.076 80.5118 230.931 81.1873H230.933ZM230.18 81.3847L230.257 81.0241C230.34 80.6374 230.13 80.4139 229.689 80.3405C229.249 80.267 228.986 80.4074 228.905 80.7924L228.828 81.1514L230.18 81.3863V81.3847Z" fill="black"/>
<path d="M234.516 81.6865L233.984 84.1144L233.255 83.9789L233.767 81.6262C233.85 81.2444 233.711 81.0159 233.289 80.9441C232.866 80.8723 232.484 81.06 232.378 81.5495L231.907 83.726L231.204 83.5955L231.908 80.3258L232.522 80.4269L232.439 80.8609C232.697 80.5787 233.116 80.4579 233.604 80.5395C234.317 80.657 234.658 81.0225 234.514 81.6849L234.516 81.6865Z" fill="black"/>
<path d="M236.562 81.5446L236.08 83.7228C236.022 83.9888 236.126 84.1193 236.483 84.1845C236.612 84.209 236.754 84.2204 236.913 84.2074L236.816 84.643C236.625 84.6626 236.464 84.6463 236.245 84.6055C235.506 84.4668 235.209 84.1503 235.322 83.6396L235.811 81.4173L235.203 81.3145L235.296 80.8887L235.934 80.9947L236.226 80.0386L236.872 80.1414L236.656 81.1139L237.565 81.2656L237.469 81.6963L236.56 81.543L236.562 81.5446Z" fill="black"/>
<path d="M213.138 83.2366L214.282 83.4732C215.124 83.6461 215.424 84.0149 215.297 84.6528L215.246 84.9041C215.157 85.3544 214.912 85.5812 214.468 85.5943V85.6008C214.897 85.7868 215.015 86.1115 214.92 86.5912L214.775 87.3206C214.737 87.5066 214.713 87.6713 214.752 87.8329L214.155 87.6925C214.132 87.5653 214.13 87.456 214.186 87.1835L214.334 86.4346C214.422 85.9924 214.248 85.7966 213.753 85.6857L213.284 85.5812L212.925 87.4037L212.349 87.2683L213.142 83.2382L213.138 83.2366ZM213.832 85.2729C214.29 85.374 214.555 85.2729 214.636 84.865L214.693 84.5729C214.772 84.1764 214.623 83.9741 214.184 83.8827L213.638 83.7685L213.362 85.1701L213.832 85.2729Z" fill="black"/>
<path d="M218.027 86.4166L217.893 87.0774L216.157 86.6858L216.046 87.2389C215.974 87.5979 216.134 87.8067 216.514 87.8948C216.894 87.9829 217.133 87.8655 217.206 87.5049L217.224 87.4168L217.798 87.5473L217.788 87.5946C217.663 88.2114 217.177 88.4643 216.428 88.2881C215.679 88.1119 215.349 87.6729 215.47 87.0644L215.702 85.9043C215.824 85.294 216.294 85.0379 217.048 85.201C217.801 85.3626 218.152 85.7982 218.027 86.4182V86.4166ZM217.384 86.5781L217.451 86.2453C217.522 85.8896 217.345 85.6775 216.968 85.5959C216.591 85.5143 216.367 85.6383 216.295 85.9908L216.229 86.3203L217.382 86.5765L217.384 86.5781Z" fill="black"/>
<path d="M218.372 87.7399L218.617 86.5341C218.743 85.9174 219.221 85.6645 219.996 85.8309C220.789 86.0006 221.099 86.4477 220.975 87.0546L220.947 87.1884L220.348 87.0563L220.384 86.8817C220.454 86.5423 220.319 86.3253 219.913 86.2355C219.508 86.1474 219.302 86.291 219.234 86.6271L218.97 87.921C218.901 88.2555 219.032 88.4806 219.435 88.5736C219.839 88.6683 220.048 88.5214 220.117 88.1837L220.166 87.9487L220.763 88.0842L220.724 88.2783C220.6 88.8837 220.14 89.161 219.353 88.9766C218.583 88.7955 218.247 88.355 218.371 87.7415L218.372 87.7399Z" fill="black"/>
<path d="M224.062 87.7481L223.918 88.4333L222.044 88.0108L221.925 88.5835C221.848 88.9555 222.021 89.1741 222.43 89.2687C222.841 89.365 223.098 89.2443 223.176 88.869L223.196 88.7776L223.816 88.9196L223.806 88.9685C223.672 89.6097 223.147 89.8659 222.337 89.6766C221.53 89.4857 221.172 89.0273 221.303 88.3958L221.551 87.1917C221.681 86.5586 222.187 86.2975 223.003 86.4721C223.817 86.6467 224.196 87.1019 224.062 87.7464V87.7481ZM223.369 87.9112L223.44 87.5669C223.517 87.1966 223.324 86.9747 222.918 86.8866C222.512 86.7985 222.269 86.9241 222.194 87.2912L222.124 87.6338L223.369 87.9112Z" fill="black"/>
<path d="M225.199 85.839L225.852 85.9744L225.71 86.6499L225.057 86.5112L225.199 85.839ZM224.964 86.9599L225.615 87.1002L224.956 90.2313L224.31 90.0796L224.964 86.9616V86.9599Z" fill="black"/>
<path d="M226.193 87.2227L226.872 87.3679L227.107 90.0682L228.428 87.7024L229.073 87.8411L227.364 90.7959L226.531 90.6001L226.195 87.2243L226.193 87.2227Z" fill="black"/>
<path d="M232.096 89.5216L231.94 90.2411L229.872 89.7761L229.743 90.3765C229.66 90.7665 229.851 90.9982 230.301 91.1026C230.755 91.2087 231.037 91.0847 231.122 90.6914L231.143 90.5952L231.829 90.7518L231.817 90.804C231.67 91.4763 231.091 91.7389 230.2 91.5301C229.309 91.3212 228.916 90.835 229.058 90.1726L229.329 88.9114C229.471 88.2473 230.029 87.9797 230.926 88.1722C231.824 88.3648 232.243 88.8477 232.096 89.5232V89.5216ZM231.331 89.6847L231.409 89.3241C231.494 88.9358 231.28 88.7009 230.832 88.6046C230.386 88.5083 230.117 88.6372 230.034 89.0223L229.957 89.3813L231.331 89.6864V89.6847Z" fill="black"/>
<path d="M234.602 92.496C234.579 92.4144 234.584 92.2496 234.623 92.031C234.348 92.3051 233.919 92.403 233.419 92.2855C232.721 92.1207 232.369 91.7242 232.511 91.0765L232.84 89.5689C232.982 88.9179 233.468 88.7139 234.172 88.8657C234.607 88.9587 234.937 89.1806 235.097 89.4775L235.457 87.8459L236.196 87.9993L235.369 91.7259C235.276 92.1485 235.25 92.4471 235.276 92.6543L234.602 92.496ZM234.682 91.349L234.922 90.2639C235.03 89.7761 234.744 89.4514 234.297 89.3551C233.85 89.2589 233.631 89.4367 233.558 89.7696L233.243 91.2054C233.168 91.5431 233.294 91.7993 233.736 91.9021C234.18 92.0049 234.575 91.8352 234.682 91.349Z" fill="black"/>
<path d="M217.754 115.198C217.459 113.08 220.995 98.59 201.046 91.5316C221.28 92.1957 222.063 92.15 222.063 92.15C223.625 93.7115 225.175 99.1415 225.555 103.25C226.155 109.755 229.505 108.905 231.822 118.651C231.868 118.84 231.693 119.01 231.505 118.956C227.448 117.784 219.288 115.761 217.968 115.435C217.855 115.407 217.772 115.314 217.756 115.2L217.754 115.198Z" fill="#FAAA1F"/>
<path d="M230.704 117.815C226.771 116.721 220.582 115.177 218.567 114.678C217.802 109.576 220.239 100.471 207.707 93.5451C217.113 95.0364 221.078 93.5011 221.318 93.4374C221.522 93.4994 222.307 94.2532 223.237 96.9111C223.94 98.9229 224.506 101.442 224.681 103.33C224.994 106.712 226.022 108.269 227.214 110.07C228.342 111.775 229.61 113.689 230.706 117.815H230.704Z" fill="#FFDD00"/>
<path d="M196.235 79.2587C195.257 82.69 194.243 86.1098 193.172 89.5134C179.615 80.0125 163.235 76.1178 146.886 78.947C148.299 72.1187 149.712 65.2904 151.124 58.4621C168.274 59.7706 184.056 67.1357 196.233 79.2587H196.235Z" fill="#222222"/>
<path d="M152.796 60.3612C168.331 61.7204 182.665 68.0902 194.207 78.557C193.355 81.4515 192.471 84.3346 191.55 87.2062C179.041 78.7479 164.296 74.943 149.264 76.6187C150.447 71.2001 151.625 65.7815 152.796 60.3612Z" fill="#FFDD00"/>
<path d="M165.962 69.7773C166.802 66.457 171.085 66.1927 173.684 67.2451C176.061 68.3529 179.612 70.9717 178.75 74.0979C177.825 76.9581 173.191 76.6057 171.007 76.033C168.337 75.333 165.056 72.9818 165.96 69.7773H165.962Z" fill="#FAAA1F"/>
<path d="M170.803 74.9397C170.901 74.6216 170.95 74.4617 171.046 74.1435C170.153 73.8759 169.109 73.2575 168.979 72.2394C169.398 72.2655 169.607 72.2818 170.024 72.3177C170.029 72.7436 170.488 73.2135 171.243 73.4908C171.444 72.83 171.543 72.4972 171.742 71.8315C171.61 71.7515 171.543 71.7108 171.411 71.6308C170.679 71.2164 169.858 70.5605 170.034 69.6304C170.387 68.5699 171.752 68.5993 172.617 68.8799C172.728 68.5014 172.783 68.3121 172.893 67.9319C173.173 68.0412 173.314 68.0967 173.594 68.2109C173.48 68.5895 173.423 68.7771 173.31 69.154C174.099 69.5146 174.939 70.2113 174.97 71.1478C174.567 71.0777 174.366 71.0434 173.963 70.983C173.95 70.5017 173.638 70.1297 173.098 69.8556C172.899 70.5083 172.8 70.8329 172.601 71.4807C172.744 71.5753 172.816 71.6226 172.96 71.7173C174.071 72.3797 174.495 73.1417 174.319 73.6491C173.901 74.6183 172.548 74.5383 171.711 74.3328C171.612 74.6477 171.563 74.8043 171.463 75.1176C171.201 75.0458 171.069 75.0099 170.804 74.9414L170.803 74.9397ZM171.917 71.0353C171.938 71.0499 171.95 71.0565 171.971 71.0712C172.147 70.4805 172.234 70.1852 172.408 69.5897C171.813 69.4477 171.292 69.5489 171.173 69.9731C171.109 70.1966 171.1 70.5148 171.917 71.0353ZM172.371 72.2149C172.188 72.8023 172.097 73.096 171.914 73.6785C172.627 73.809 173.105 73.6785 173.226 73.3114C173.348 72.9426 172.981 72.5967 172.423 72.2492C172.402 72.2361 172.392 72.228 172.371 72.2149Z" fill="#FFDD00"/>
<path d="M149.371 76.5191C149.645 75.2676 149.92 74.0145 150.194 72.7631C152.158 72.6097 153.667 74.243 153.168 76.1895C151.899 76.2694 150.636 76.3804 149.371 76.5191Z" fill="#FAAA1F"/>
<path d="M152.869 60.446C152.625 61.5767 152.38 62.7074 152.135 63.8381C154.018 63.9034 156.302 62.8461 156.795 60.8719C155.488 60.7022 154.183 60.5618 152.869 60.4476V60.446Z" fill="#FAAA1F"/>
<path d="M191.477 87.1034C191.715 86.3659 191.836 85.989 192.079 85.2189C191.147 84.6184 188.532 82.964 187.727 84.7082C189.003 85.4652 190.258 86.2598 191.477 87.105V87.1034Z" fill="#FAAA1F"/>
<path d="M194.113 78.5292C193.885 79.3092 193.771 79.6942 193.546 80.4497C192.391 79.3614 190.237 77.4034 190.645 75.5418C191.831 76.5011 192.993 77.4948 194.115 78.5292H194.113Z" fill="#FAAA1F"/>
<path d="M225.147 155.251C226.924 157.514 229.397 160.719 233.088 165.591C214.178 155.121 205 152.93 195.687 153.691C199.301 151.412 201.71 149.891 203.432 148.806C208.713 149.094 214.781 150.606 225.147 155.253V155.251Z" fill="#FAAA1F"/>
<path d="M223.178 154.764C214.244 150.836 208.635 149.433 203.675 149.113C202.329 150.011 200.573 151.18 198.188 152.765C205.803 152.496 213.597 154.385 227.459 161.569C225.633 158.614 224.258 156.436 223.178 154.764Z" fill="#FFDD00"/>
<path d="M207.17 151.03C207.799 150.277 209.472 150.262 210.487 150.518C211.482 150.802 213.185 151.534 213.016 152.507C212.748 153.59 210.162 153.336 209.017 153.062C207.697 152.747 206.396 151.908 207.17 151.032V151.03Z" fill="#FAAA1F"/>
<path d="M208.974 152.65C209.041 152.54 209.074 152.486 209.139 152.38C208.717 152.274 208.26 152.057 208.276 151.743C208.467 151.758 208.562 151.766 208.752 151.782C208.73 151.911 208.917 152.065 209.266 152.166C209.39 151.96 209.451 151.859 209.568 151.665C209.51 151.639 209.482 151.627 209.423 151.601C209.11 151.474 208.78 151.283 208.906 151.043C209.103 150.787 209.671 150.81 210.028 150.888C210.081 150.799 210.107 150.753 210.159 150.665C210.273 150.694 210.332 150.709 210.446 150.738C210.396 150.828 210.371 150.872 210.319 150.963C210.657 151.065 211.029 151.257 211.053 151.515C210.869 151.489 210.777 151.477 210.595 151.455C210.59 151.322 210.453 151.218 210.219 151.14C210.123 151.309 210.072 151.397 209.97 151.575C210.033 151.605 210.066 151.619 210.13 151.649C210.642 151.862 210.847 152.107 210.764 152.27C210.555 152.593 209.872 152.54 209.459 152.455C209.397 152.562 209.364 152.616 209.299 152.727C209.169 152.696 209.103 152.681 208.973 152.652L208.974 152.65ZM209.673 151.441C209.683 151.446 209.686 151.448 209.696 151.451C209.79 151.293 209.836 151.215 209.926 151.063C209.673 151.019 209.448 151.038 209.381 151.146C209.345 151.203 209.327 151.288 209.673 151.441ZM209.847 151.787C209.746 151.964 209.692 152.053 209.585 152.239C209.931 152.295 210.167 152.261 210.232 152.143C210.296 152.027 210.126 151.913 209.87 151.799C209.86 151.794 209.855 151.792 209.847 151.787Z" fill="#FFDD00"/>
<path d="M198.095 152.799C198.738 152.373 199.33 151.98 199.878 151.616C200.762 151.601 200.922 152.112 200.031 152.755C199.395 152.76 198.752 152.773 198.093 152.799H198.095Z" fill="#FAAA1F"/>
<path d="M203.665 149.1C203.406 149.273 203.132 149.454 202.843 149.647C203.474 149.673 204.424 149.506 204.861 149.19C204.461 149.156 204.065 149.126 203.663 149.1H203.665Z" fill="#FAAA1F"/>
<path d="M227.651 161.706C227.102 160.823 226.839 160.402 226.335 159.6C224.953 158.953 221.601 157.402 221.967 158.831C223.652 159.647 225.532 160.59 227.651 161.706Z" fill="#FAAA1F"/>
<path d="M223.256 154.781C223.53 155.201 223.67 155.418 223.961 155.867C222.522 155.18 220.229 154.104 219.8 153.297C220.859 153.734 222.006 154.223 223.257 154.78L223.256 154.781Z" fill="#FAAA1F"/>
<path d="M233.899 156.762C233.721 158.753 233.414 161.171 232.891 164.144C216.023 152.832 209.009 150.221 203.916 149.686C205.76 148.927 207.369 148.266 208.785 147.684C213.422 148.227 220.082 150.144 233.899 156.764V156.762Z" fill="#FAAA1F"/>
<path d="M230.143 155.517C219.086 150.226 213.179 148.474 208.899 147.899C207.759 148.376 206.496 148.901 205.093 149.485C209.676 150.087 215.821 152.329 228.342 160.154C229.096 158.389 229.685 156.855 230.145 155.516L230.143 155.517Z" fill="#FFDD00"/>
<path d="M211.172 149.405C212.001 148.988 213.649 149.152 214.6 149.448C215.558 149.776 217.131 150.546 216.285 151.145C215.359 151.729 212.952 151.135 212.046 150.81C211.056 150.456 210.276 149.834 211.172 149.405Z" fill="#FAAA1F"/>
<path d="M212.159 150.578C212.259 150.526 212.309 150.5 212.407 150.448C212.073 150.329 211.753 150.144 211.88 149.963C212.043 149.996 212.125 150.012 212.29 150.046C212.22 150.12 212.329 150.236 212.606 150.343C212.805 150.239 212.903 150.187 213.097 150.082C213.053 150.059 213.03 150.048 212.986 150.024C212.743 149.904 212.513 149.745 212.73 149.608C213.032 149.464 213.588 149.547 213.916 149.643C214.016 149.59 214.066 149.562 214.166 149.508C214.274 149.542 214.328 149.559 214.435 149.594C214.334 149.648 214.284 149.676 214.182 149.732C214.489 149.844 214.788 150.024 214.675 150.197C214.492 150.152 214.403 150.133 214.221 150.092C214.283 150.006 214.194 149.919 213.99 149.836C213.807 149.934 213.716 149.983 213.53 150.082C213.58 150.11 213.605 150.123 213.655 150.151C214.07 150.358 214.159 150.539 213.995 150.624C213.637 150.782 213.012 150.647 212.668 150.538C212.569 150.59 212.518 150.616 212.419 150.668C212.314 150.632 212.264 150.614 212.161 150.578H212.159ZM213.298 149.957C213.298 149.957 213.308 149.963 213.316 149.966C213.482 149.878 213.564 149.834 213.725 149.746C213.491 149.686 213.257 149.67 213.145 149.732C213.084 149.764 213.03 149.815 213.298 149.957ZM213.314 150.197C213.14 150.29 213.05 150.337 212.872 150.43C213.172 150.513 213.414 150.526 213.53 150.466C213.644 150.405 213.53 150.312 213.332 150.206C213.326 150.203 213.321 150.2 213.314 150.197Z" fill="#FFDD00"/>
<path d="M205.044 149.493C205.39 149.35 205.727 149.209 206.057 149.072C206.558 149.134 206.59 149.404 206.034 149.637C205.7 149.583 205.37 149.537 205.044 149.495V149.493Z" fill="#FAAA1F"/>
<path d="M208.894 147.891C208.661 147.989 208.423 148.089 208.178 148.19C208.625 148.247 209.379 148.204 209.811 148.023C209.5 147.976 209.194 147.932 208.894 147.891Z" fill="#FAAA1F"/>
<path d="M228.493 160.29C228.702 159.794 228.804 159.549 228.999 159.061C227.376 158.152 223.692 156.106 222.801 156.796C224.445 157.769 226.327 158.917 228.493 160.29Z" fill="#FAAA1F"/>
<path d="M230.283 155.563C230.169 155.915 230.109 156.092 229.983 156.45C228.09 155.45 225.23 153.964 225.498 153.321C226.917 153.964 228.506 154.705 230.283 155.563Z" fill="#FAAA1F"/>
<path d="M237.634 159.926C234.189 160.928 230.544 161.916 226.694 162.863C217.924 152.096 212.734 148.992 208.669 147.979C210.511 147.571 212.291 147.178 214.013 146.796C218.681 147.834 225.359 150.712 237.632 159.926H237.634Z" fill="#FAAA1F"/>
<path d="M213.993 146.99C218.232 148.022 224.008 150.601 233.659 157.867C231.017 158.555 228.262 159.229 225.403 159.88C218.071 151.72 213.368 148.976 209.612 147.951C211.112 147.623 212.57 147.304 213.993 146.99Z" fill="#FFDD00"/>
<path d="M215.318 148.607C216.48 148.353 218.177 148.725 219.027 149.129C219.872 149.572 221.069 150.508 219.542 150.854C218.048 151.148 215.966 150.28 215.274 149.885C214.527 149.459 214.151 148.847 215.32 148.607H215.318Z" fill="#FAAA1F"/>
<path d="M215.537 149.719C215.672 149.691 215.741 149.678 215.876 149.65C215.615 149.505 215.416 149.306 215.667 149.175C215.812 149.226 215.886 149.252 216.033 149.304C215.909 149.355 215.943 149.466 216.155 149.595C216.436 149.537 216.576 149.51 216.857 149.453C216.826 149.426 216.811 149.413 216.782 149.387C216.61 149.25 216.481 149.082 216.813 148.996C217.247 148.914 217.796 149.068 218.088 149.2C218.245 149.167 218.323 149.151 218.478 149.118C218.573 149.164 218.62 149.188 218.717 149.236C218.557 149.268 218.477 149.285 218.317 149.317C218.573 149.461 218.766 149.663 218.498 149.794C218.328 149.728 218.243 149.696 218.075 149.632C218.212 149.568 218.181 149.48 218.018 149.378C217.739 149.433 217.601 149.462 217.322 149.518C217.356 149.549 217.372 149.564 217.406 149.595C217.7 149.833 217.658 149.998 217.418 150.04C216.922 150.112 216.364 149.905 216.086 149.763C215.949 149.79 215.881 149.803 215.742 149.829C215.662 149.785 215.621 149.763 215.542 149.719H215.537ZM217.162 149.378C217.162 149.378 217.168 149.384 217.173 149.389C217.42 149.338 217.544 149.314 217.79 149.262C217.578 149.175 217.333 149.126 217.163 149.162C217.074 149.182 216.977 149.218 217.162 149.378ZM217.002 149.581C216.747 149.632 216.62 149.657 216.367 149.707C216.622 149.82 216.866 149.87 217.033 149.838C217.201 149.805 217.147 149.71 217.013 149.591C217.008 149.586 217.007 149.585 217.002 149.58V149.581Z" fill="#FFDD00"/>
<path d="M209.604 147.953C209.953 147.876 210.302 147.8 210.648 147.725C211.053 147.829 210.948 148.051 210.361 148.173C210.105 148.095 209.854 148.022 209.604 147.953Z" fill="#FAAA1F"/>
<path d="M213.996 146.985C213.703 147.051 213.407 147.114 213.11 147.18C213.512 147.278 214.285 147.32 214.845 147.201C214.556 147.124 214.274 147.052 213.996 146.984V146.985Z" fill="#FAAA1F"/>
<path d="M225.352 159.766C226.09 159.6 226.464 159.515 227.219 159.338C226.154 158.335 223.724 156.069 222.065 156.242C223.052 157.247 224.148 158.41 225.352 159.766Z" fill="#FAAA1F"/>
<path d="M233.497 157.787C232.796 157.971 232.448 158.061 231.755 158.237C230.288 156.968 228.051 155.078 229.258 154.679C230.531 155.574 231.946 156.602 233.499 157.787H233.497Z" fill="#FAAA1F"/>
<path d="M223.008 150.583C224.455 153.07 226.464 156.586 229.446 161.92C212.162 148.94 203.375 145.502 194.045 144.97C197.94 143.212 200.536 142.038 202.391 141.201C207.581 142.215 213.383 144.551 223.008 150.583Z" fill="#FAAA1F"/>
<path d="M221.125 149.828C212.82 144.705 207.457 142.539 202.588 141.539C201.131 142.242 199.23 143.158 196.649 144.398C204.228 145.183 211.688 148.129 224.426 157.157C223.024 153.979 221.963 151.631 221.125 149.826V149.828Z" fill="#FFDD00"/>
<path d="M205.786 143.921C206.514 143.261 208.173 143.479 209.142 143.871C210.089 144.29 211.675 145.251 211.373 146.189C210.958 147.225 208.433 146.615 207.335 146.186C206.07 145.692 204.898 144.682 205.786 143.921Z" fill="#FAAA1F"/>
<path d="M207.349 145.775C207.431 145.675 207.472 145.626 207.55 145.528C207.147 145.365 206.724 145.088 206.783 144.78C206.969 144.82 207.064 144.842 207.25 144.884C207.209 145.008 207.374 145.187 207.707 145.336C207.858 145.148 207.932 145.059 208.074 144.881C208.02 144.848 207.992 144.832 207.94 144.797C207.648 144.628 207.346 144.393 207.504 144.173C207.736 143.946 208.294 144.047 208.637 144.173C208.702 144.091 208.733 144.05 208.796 143.97C208.906 144.014 208.961 144.037 209.072 144.083C209.01 144.164 208.979 144.205 208.916 144.288C209.235 144.435 209.578 144.677 209.567 144.936C209.387 144.886 209.299 144.861 209.121 144.812C209.134 144.68 209.013 144.559 208.793 144.448C208.674 144.603 208.612 144.683 208.486 144.846C208.545 144.884 208.575 144.904 208.635 144.941C209.113 145.225 209.283 145.496 209.178 145.644C208.927 145.936 208.256 145.788 207.86 145.646C207.783 145.744 207.744 145.793 207.664 145.892C207.539 145.843 207.477 145.819 207.353 145.772L207.349 145.775ZM208.207 144.673C208.216 144.678 208.221 144.682 208.229 144.687C208.345 144.541 208.4 144.471 208.509 144.332C208.266 144.254 208.039 144.243 207.958 144.339C207.914 144.391 207.886 144.473 208.206 144.672L208.207 144.673ZM208.333 145.041C208.207 145.201 208.144 145.284 208.012 145.452C208.346 145.555 208.586 145.553 208.666 145.445C208.744 145.339 208.593 145.204 208.354 145.055C208.346 145.049 208.341 145.047 208.333 145.041Z" fill="#FFDD00"/>
<path d="M196.553 144.419C197.248 144.086 197.891 143.778 198.483 143.494C199.361 143.602 199.449 144.129 198.478 144.644C197.847 144.561 197.209 144.486 196.553 144.421V144.419Z" fill="#FAAA1F"/>
<path d="M202.58 141.525C202.299 141.66 202.002 141.802 201.691 141.952C202.312 142.065 203.275 142.032 203.753 141.777C203.363 141.688 202.973 141.605 202.58 141.525Z" fill="#FAAA1F"/>
<path d="M224.597 157.322C224.174 156.371 223.972 155.919 223.584 155.054C222.305 154.223 219.2 152.223 219.364 153.69C220.921 154.729 222.652 155.924 224.597 157.322Z" fill="#FAAA1F"/>
<path d="M221.2 149.856C221.414 150.309 221.523 150.544 221.748 151.029C220.417 150.149 218.294 148.769 217.981 147.909C218.968 148.488 220.038 149.131 221.2 149.856Z" fill="#FAAA1F"/>
<path d="M231.468 153.287C231.016 155.233 230.378 157.586 229.449 160.458C214.305 146.925 207.718 143.371 202.748 142.138C204.678 141.642 206.364 141.208 207.847 140.826C212.365 142.004 218.695 144.822 231.466 153.287H231.468Z" fill="#FAAA1F"/>
<path d="M227.919 151.536C217.699 144.77 212.089 142.218 207.93 141.059C206.736 141.373 205.413 141.72 203.941 142.104C208.397 143.332 214.173 146.401 225.495 155.881C226.485 154.236 227.28 152.799 227.921 151.536H227.919Z" fill="#FFDD00"/>
<path d="M209.973 142.862C210.852 142.564 212.46 142.954 213.362 143.378C214.266 143.836 215.716 144.814 214.798 145.292C213.799 145.742 211.497 144.822 210.645 144.375C209.714 143.887 209.027 143.164 209.973 142.862Z" fill="#FAAA1F"/>
<path d="M210.79 144.161C210.897 144.124 210.95 144.104 211.055 144.067C210.74 143.903 210.449 143.675 210.6 143.513C210.756 143.567 210.836 143.597 210.994 143.654C210.914 143.717 211.007 143.846 211.267 143.992C211.477 143.915 211.582 143.877 211.789 143.802C211.748 143.773 211.727 143.758 211.688 143.729C211.464 143.577 211.257 143.386 211.49 143.282C211.809 143.182 212.349 143.341 212.66 143.481C212.766 143.442 212.82 143.422 212.926 143.381C213.027 143.43 213.08 143.455 213.181 143.504C213.073 143.543 213.019 143.564 212.912 143.603C213.199 143.757 213.47 143.975 213.336 144.132C213.161 144.063 213.075 144.031 212.902 143.965C212.975 143.889 212.899 143.791 212.708 143.68C212.513 143.752 212.416 143.788 212.218 143.859C212.264 143.894 212.287 143.91 212.332 143.944C212.714 144.207 212.778 144.398 212.603 144.46C212.228 144.567 211.626 144.347 211.301 144.191C211.195 144.228 211.143 144.248 211.035 144.285C210.937 144.235 210.888 144.21 210.792 144.161H210.79ZM212.004 143.703C212.004 143.703 212.014 143.709 212.021 143.714C212.197 143.649 212.285 143.618 212.458 143.553C212.234 143.461 212.004 143.412 211.884 143.458C211.82 143.482 211.76 143.525 212.004 143.703ZM211.986 143.941C211.8 144.009 211.706 144.044 211.515 144.112C211.8 144.235 212.039 144.284 212.161 144.24C212.283 144.195 212.182 144.088 212.001 143.954C211.995 143.949 211.991 143.946 211.985 143.941H211.986Z" fill="#FFDD00"/>
<path d="M203.892 142.104C204.256 142.009 204.608 141.916 204.954 141.826C205.442 141.957 205.437 142.228 204.853 142.381C204.528 142.281 204.21 142.19 203.892 142.104Z" fill="#FAAA1F"/>
<path d="M207.927 141.048C207.682 141.112 207.432 141.178 207.176 141.245C207.612 141.364 208.364 141.425 208.816 141.306C208.514 141.216 208.219 141.13 207.925 141.05L207.927 141.048Z" fill="#FAAA1F"/>
<path d="M225.627 156.034C225.902 155.573 226.036 155.343 226.297 154.887C224.814 153.763 221.448 151.228 220.471 151.789C221.965 152.98 223.67 154.377 225.627 156.034Z" fill="#FAAA1F"/>
<path d="M228.053 151.6C227.891 151.933 227.806 152.099 227.633 152.438C225.897 151.187 223.271 149.32 223.623 148.72C224.941 149.554 226.411 150.505 228.053 151.601V151.6Z" fill="#FAAA1F"/>
<path d="M234.729 156.937C231.179 157.452 227.433 157.929 223.489 158.335C216.289 146.46 211.577 142.672 207.692 141.107C209.571 140.957 211.389 140.813 213.148 140.673C217.628 142.345 223.845 146.117 234.729 156.937Z" fill="#FAAA1F"/>
<path d="M213.1 140.86C217.157 142.466 222.521 145.821 231.076 154.347C228.364 154.666 225.543 154.951 222.621 155.201C216.484 146.108 212.206 142.74 208.628 141.206C210.159 141.089 211.648 140.973 213.099 140.859L213.1 140.86Z" fill="#FFDD00"/>
<path d="M214.19 142.645C215.377 142.552 217.005 143.156 217.791 143.675C218.566 144.23 219.624 145.323 218.064 145.455C216.543 145.54 214.6 144.393 213.97 143.907C213.288 143.381 213.001 142.725 214.192 142.647L214.19 142.645Z" fill="#FAAA1F"/>
<path d="M214.254 143.776C214.393 143.768 214.461 143.763 214.6 143.755C214.362 143.575 214.192 143.352 214.458 143.256C214.595 143.326 214.664 143.362 214.802 143.433C214.673 143.466 214.691 143.582 214.882 143.739C215.168 143.721 215.31 143.712 215.595 143.694C215.569 143.663 215.556 143.649 215.528 143.619C215.378 143.461 215.272 143.275 215.612 143.236C216.054 143.215 216.576 143.442 216.847 143.615C217.007 143.605 217.085 143.598 217.245 143.588C217.333 143.647 217.377 143.677 217.465 143.737C217.302 143.747 217.22 143.752 217.059 143.761C217.292 143.939 217.455 144.166 217.173 144.257C217.013 144.169 216.935 144.125 216.777 144.039C216.922 143.995 216.902 143.903 216.755 143.778C216.472 143.796 216.33 143.804 216.047 143.82C216.077 143.854 216.091 143.872 216.121 143.908C216.379 144.184 216.315 144.341 216.07 144.352C215.569 144.354 215.045 144.071 214.789 143.894C214.649 143.902 214.579 143.905 214.44 143.913C214.367 143.858 214.329 143.83 214.256 143.776H214.254ZM215.91 143.662C215.91 143.662 215.917 143.67 215.92 143.675C216.171 143.659 216.297 143.65 216.548 143.634C216.349 143.518 216.114 143.437 215.941 143.45C215.85 143.456 215.75 143.479 215.91 143.662ZM215.723 143.841C215.463 143.856 215.334 143.864 215.076 143.879C215.313 144.026 215.548 144.109 215.718 144.101C215.887 144.093 215.848 143.991 215.732 143.854C215.729 143.849 215.726 143.846 215.723 143.841Z" fill="#FFDD00"/>
<path d="M208.62 141.208C208.977 141.18 209.332 141.152 209.686 141.126C210.072 141.286 209.937 141.492 209.34 141.531C209.098 141.417 208.858 141.311 208.62 141.208Z" fill="#FAAA1F"/>
<path d="M213.105 140.857C212.805 140.88 212.505 140.904 212.201 140.927C212.585 141.079 213.347 141.227 213.916 141.188C213.641 141.072 213.371 140.961 213.105 140.857Z" fill="#FAAA1F"/>
<path d="M222.588 155.082C223.341 155.02 223.722 154.987 224.496 154.917C223.58 153.776 221.485 151.197 219.82 151.138C220.66 152.27 221.585 153.574 222.588 155.082Z" fill="#FAAA1F"/>
<path d="M230.929 154.246C230.21 154.331 229.853 154.372 229.141 154.45C227.864 152.99 225.909 150.81 227.159 150.582C228.296 151.644 229.554 152.858 230.929 154.246Z" fill="#FAAA1F"/>
<path d="M225.33 146.256C227.106 148.519 229.58 151.724 233.271 156.596C214.36 146.126 205.182 143.934 195.869 144.696C199.483 142.417 201.893 140.896 203.614 139.811C208.896 140.099 214.964 141.611 225.33 146.258V146.256Z" fill="#FAAA1F"/>
<path d="M223.362 145.768C214.429 141.841 208.819 140.438 203.859 140.118C202.513 141.015 200.757 142.185 198.372 143.77C205.987 143.5 213.781 145.39 227.643 152.574C225.818 149.619 224.442 147.441 223.362 145.768Z" fill="#FFDD00"/>
<path d="M207.353 142.035C207.982 141.281 209.655 141.267 210.67 141.523C211.665 141.807 213.368 142.539 213.199 143.512C212.931 144.595 210.345 144.341 209.2 144.067C207.88 143.752 206.579 142.913 207.353 142.037V142.035Z" fill="#FAAA1F"/>
<path d="M209.159 143.655C209.226 143.544 209.258 143.491 209.324 143.384C208.901 143.278 208.444 143.061 208.46 142.748C208.651 142.763 208.746 142.771 208.937 142.787C208.914 142.916 209.102 143.07 209.451 143.171C209.575 142.965 209.635 142.864 209.753 142.67C209.694 142.644 209.666 142.632 209.607 142.606C209.294 142.479 208.965 142.288 209.09 142.048C209.288 141.792 209.855 141.815 210.213 141.893C210.265 141.803 210.291 141.758 210.343 141.67C210.457 141.699 210.516 141.714 210.63 141.743C210.58 141.833 210.555 141.877 210.503 141.968C210.841 142.069 211.213 142.262 211.237 142.52C211.053 142.494 210.962 142.482 210.779 142.459C210.774 142.327 210.637 142.223 210.404 142.144C210.307 142.314 210.257 142.402 210.154 142.58C210.218 142.609 210.25 142.624 210.314 142.654C210.826 142.867 211.032 143.112 210.949 143.275C210.74 143.598 210.056 143.544 209.643 143.46C209.581 143.567 209.549 143.621 209.483 143.732C209.353 143.701 209.288 143.686 209.157 143.657L209.159 143.655ZM209.857 142.446C209.867 142.451 209.87 142.453 209.88 142.456C209.975 142.298 210.02 142.22 210.11 142.068C209.857 142.024 209.632 142.043 209.565 142.151C209.529 142.208 209.511 142.293 209.857 142.446ZM210.032 142.792C209.93 142.968 209.877 143.058 209.769 143.244C210.115 143.3 210.351 143.265 210.417 143.148C210.48 143.032 210.311 142.918 210.054 142.804C210.045 142.799 210.04 142.797 210.032 142.792Z" fill="#FFDD00"/>
<path d="M198.278 143.804C198.92 143.378 199.513 142.985 200.061 142.621C200.945 142.606 201.105 143.117 200.214 143.76C199.578 143.765 198.935 143.778 198.276 143.804H198.278Z" fill="#FAAA1F"/>
<path d="M203.848 140.105C203.589 140.278 203.314 140.459 203.026 140.652C203.657 140.678 204.607 140.511 205.044 140.195C204.644 140.16 204.248 140.131 203.846 140.105H203.848Z" fill="#FAAA1F"/>
<path d="M227.834 152.711C227.284 151.828 227.022 151.407 226.518 150.604C225.136 149.958 221.784 148.407 222.15 149.836C223.835 150.652 225.715 151.595 227.834 152.711Z" fill="#FAAA1F"/>
<path d="M223.439 145.786C223.713 146.206 223.853 146.423 224.144 146.871C222.704 146.184 220.412 145.109 219.983 144.302C221.042 144.739 222.189 145.228 223.44 145.785L223.439 145.786Z" fill="#FAAA1F"/>
<path d="M234.083 147.767C233.905 149.758 233.599 152.176 233.075 155.148C216.207 143.836 209.193 141.226 204.101 140.691C205.944 139.932 207.553 139.271 208.969 138.689C213.606 139.232 220.267 141.149 234.083 147.769V147.767Z" fill="#FAAA1F"/>
<path d="M230.326 146.522C219.268 141.231 213.362 139.478 209.082 138.904C207.941 139.381 206.679 139.906 205.275 140.49C209.859 141.092 216.003 143.334 228.524 151.159C229.278 149.394 229.867 147.86 230.327 146.521L230.326 146.522Z" fill="#FFDD00"/>
<path d="M211.355 140.41C212.184 139.993 213.832 140.157 214.783 140.453C215.741 140.781 217.313 141.551 216.468 142.149C215.542 142.734 213.135 142.14 212.229 141.815C211.239 141.461 210.459 140.839 211.355 140.41Z" fill="#FAAA1F"/>
<path d="M212.343 141.583C212.443 141.531 212.494 141.505 212.591 141.453C212.257 141.334 211.937 141.149 212.064 140.968C212.228 141.001 212.309 141.017 212.474 141.051C212.404 141.125 212.513 141.241 212.791 141.348C212.99 141.244 213.087 141.192 213.282 141.087C213.238 141.064 213.215 141.053 213.171 141.029C212.928 140.909 212.698 140.75 212.915 140.612C213.216 140.469 213.773 140.552 214.101 140.648C214.2 140.595 214.251 140.567 214.35 140.513C214.458 140.547 214.512 140.563 214.62 140.599C214.518 140.653 214.468 140.681 214.367 140.736C214.673 140.849 214.972 141.029 214.859 141.201C214.677 141.157 214.587 141.138 214.406 141.097C214.468 141.011 214.378 140.924 214.174 140.841C213.991 140.939 213.9 140.988 213.714 141.087C213.765 141.115 213.789 141.128 213.84 141.156C214.254 141.363 214.344 141.544 214.179 141.629C213.822 141.787 213.197 141.652 212.853 141.542C212.753 141.595 212.702 141.621 212.603 141.673C212.498 141.637 212.448 141.619 212.345 141.583H212.343ZM213.482 140.962C213.482 140.962 213.492 140.968 213.5 140.971C213.667 140.883 213.748 140.839 213.91 140.751C213.675 140.691 213.442 140.674 213.329 140.736C213.269 140.769 213.215 140.82 213.482 140.962ZM213.499 141.201C213.324 141.294 213.234 141.342 213.056 141.435C213.357 141.518 213.598 141.531 213.714 141.471C213.828 141.41 213.714 141.317 213.517 141.211C213.51 141.208 213.505 141.205 213.499 141.201Z" fill="#FFDD00"/>
<path d="M205.228 140.498C205.574 140.355 205.912 140.214 206.241 140.077C206.742 140.139 206.775 140.409 206.218 140.642C205.884 140.588 205.554 140.542 205.228 140.5V140.498Z" fill="#FAAA1F"/>
<path d="M209.077 138.896C208.844 138.994 208.605 139.093 208.361 139.195C208.808 139.252 209.561 139.209 209.994 139.028C209.682 138.981 209.377 138.937 209.077 138.896Z" fill="#FAAA1F"/>
<path d="M228.676 151.295C228.885 150.799 228.986 150.554 229.182 150.066C227.558 149.157 223.874 147.111 222.983 147.801C224.628 148.774 226.509 149.922 228.676 151.295Z" fill="#FAAA1F"/>
<path d="M230.468 146.568C230.353 146.92 230.293 147.097 230.167 147.455C228.275 146.455 225.414 144.969 225.682 144.326C227.102 144.969 228.691 145.71 230.468 146.568Z" fill="#FAAA1F"/>
<path d="M237.817 150.931C234.372 151.933 230.727 152.921 226.877 153.868C218.107 143.101 212.916 139.997 208.852 138.984C210.694 138.576 212.474 138.183 214.196 137.801C218.864 138.839 225.542 141.717 237.815 150.931H237.817Z" fill="#FAAA1F"/>
<path d="M214.176 137.995C218.415 139.026 224.191 141.606 233.842 148.872C231.2 149.56 228.445 150.234 225.586 150.885C218.253 142.725 213.551 139.981 209.795 138.956C211.295 138.628 212.753 138.309 214.176 137.995Z" fill="#FFDD00"/>
<path d="M215.501 139.612C216.663 139.358 218.359 139.73 219.21 140.134C220.055 140.576 221.252 141.513 219.725 141.859C218.231 142.153 216.149 141.285 215.457 140.89C214.71 140.464 214.334 139.852 215.502 139.612H215.501Z" fill="#FAAA1F"/>
<path d="M215.721 140.723C215.857 140.696 215.925 140.683 216.061 140.655C215.8 140.51 215.6 140.311 215.852 140.18C215.997 140.231 216.07 140.257 216.217 140.309C216.093 140.36 216.127 140.47 216.34 140.599C216.62 140.542 216.761 140.515 217.041 140.457C217.01 140.431 216.995 140.418 216.966 140.392C216.795 140.255 216.666 140.087 216.997 140.001C217.431 139.919 217.981 140.072 218.273 140.205C218.43 140.172 218.508 140.156 218.663 140.123C218.758 140.169 218.805 140.193 218.901 140.24C218.741 140.273 218.661 140.289 218.501 140.322C218.758 140.466 218.95 140.668 218.683 140.798C218.513 140.733 218.428 140.701 218.26 140.637C218.397 140.573 218.366 140.485 218.203 140.382C217.924 140.438 217.785 140.467 217.506 140.523C217.54 140.554 217.557 140.568 217.591 140.599C217.885 140.838 217.842 141.002 217.602 141.045C217.106 141.117 216.548 140.909 216.271 140.767C216.134 140.795 216.065 140.808 215.927 140.834C215.847 140.79 215.806 140.767 215.726 140.723H215.721ZM217.346 140.382C217.346 140.382 217.353 140.389 217.358 140.394C217.604 140.343 217.728 140.319 217.974 140.267C217.762 140.18 217.518 140.131 217.348 140.167C217.258 140.187 217.162 140.222 217.346 140.382ZM217.186 140.586C216.932 140.637 216.805 140.661 216.552 140.712C216.806 140.825 217.051 140.875 217.217 140.842C217.385 140.81 217.332 140.715 217.198 140.596C217.193 140.591 217.191 140.59 217.186 140.585V140.586Z" fill="#FFDD00"/>
<path d="M209.787 138.958C210.136 138.881 210.485 138.805 210.831 138.729C211.236 138.834 211.131 139.056 210.544 139.178C210.288 139.1 210.037 139.026 209.787 138.958Z" fill="#FAAA1F"/>
<path d="M214.179 137.99C213.885 138.056 213.59 138.119 213.293 138.185C213.695 138.282 214.468 138.325 215.028 138.206C214.739 138.129 214.457 138.057 214.179 137.989V137.99Z" fill="#FAAA1F"/>
<path d="M225.537 150.771C226.274 150.604 226.648 150.52 227.404 150.343C226.338 149.34 223.909 147.074 222.249 147.247C223.236 148.252 224.333 149.415 225.537 150.771Z" fill="#FAAA1F"/>
<path d="M233.682 148.792C232.98 148.976 232.633 149.066 231.939 149.242C230.473 147.973 228.236 146.083 229.443 145.683C230.716 146.579 232.13 147.607 233.684 148.792H233.682Z" fill="#FAAA1F"/>
<path d="M227.018 143.6C229.177 145.502 232.194 148.203 236.709 152.321C216.209 145.468 206.785 144.985 197.765 147.429C200.904 144.53 202.998 142.597 204.492 141.215C209.738 140.536 215.979 140.919 227.018 143.6Z" fill="#FAAA1F"/>
<path d="M224.995 143.478C215.496 141.242 209.725 140.883 204.789 141.472C203.629 142.6 202.115 144.07 200.059 146.062C207.498 144.411 215.506 144.85 230.445 149.389C228.111 146.816 226.362 144.925 224.997 143.476L224.995 143.478Z" fill="#FFDD00"/>
<path d="M208.574 142.722C209.056 141.866 210.699 141.547 211.743 141.614C212.773 141.712 214.582 142.123 214.592 143.109C214.525 144.223 211.937 144.444 210.761 144.382C209.405 144.311 207.974 143.724 208.576 142.722H208.574Z" fill="#FAAA1F"/>
<path d="M210.643 143.987C210.689 143.866 210.712 143.807 210.756 143.69C210.322 143.664 209.833 143.533 209.792 143.221C209.981 143.2 210.077 143.19 210.268 143.172C210.268 143.303 210.482 143.42 210.844 143.456C210.929 143.231 210.97 143.122 211.048 142.908C210.986 142.893 210.955 142.887 210.895 142.872C210.564 142.804 210.205 142.676 210.284 142.417C210.433 142.128 210.994 142.048 211.36 142.06C211.396 141.962 211.414 141.913 211.448 141.817C211.565 141.825 211.626 141.828 211.745 141.836C211.712 141.932 211.696 141.981 211.662 142.081C212.012 142.118 212.414 142.241 212.486 142.49C212.3 142.499 212.207 142.504 212.024 142.515C211.994 142.386 211.841 142.308 211.596 142.273C211.533 142.458 211.498 142.552 211.43 142.748C211.498 142.766 211.533 142.774 211.601 142.792C212.145 142.91 212.391 143.114 212.339 143.288C212.192 143.644 211.51 143.716 211.089 143.706C211.046 143.824 211.025 143.882 210.981 144.003C210.847 143.996 210.781 143.993 210.647 143.988L210.643 143.987ZM211.11 142.672C211.12 142.675 211.125 142.675 211.135 142.678C211.198 142.505 211.229 142.42 211.29 142.254C211.033 142.257 210.815 142.318 210.769 142.435C210.745 142.499 210.743 142.583 211.11 142.672ZM211.345 142.98C211.277 143.172 211.242 143.27 211.169 143.471C211.518 143.463 211.746 143.386 211.787 143.257C211.828 143.132 211.642 143.052 211.37 142.985C211.36 142.982 211.355 142.982 211.345 142.978V142.98Z" fill="#FFDD00"/>
<path d="M199.973 146.113C200.527 145.576 201.038 145.082 201.511 144.625C202.378 144.448 202.627 144.922 201.87 145.718C201.245 145.837 200.616 145.969 199.973 146.114V146.113Z" fill="#FAAA1F"/>
<path d="M204.776 141.463C204.553 141.68 204.316 141.908 204.068 142.149C204.695 142.06 205.597 141.724 205.971 141.332C205.572 141.371 205.176 141.414 204.778 141.463H204.776Z" fill="#FAAA1F"/>
<path d="M230.657 149.49C229.955 148.722 229.621 148.356 228.978 147.658C227.501 147.274 223.925 146.357 224.543 147.697C226.349 148.191 228.368 148.777 230.657 149.489V149.49Z" fill="#FAAA1F"/>
<path d="M225.074 143.481C225.419 143.843 225.597 144.031 225.964 144.421C224.424 144.008 221.973 143.368 221.404 142.652C222.525 142.889 223.742 143.163 225.074 143.481Z" fill="#FAAA1F"/>
<path d="M235.901 143.492C236.089 145.483 236.226 147.916 236.253 150.932C217.607 142.88 210.236 141.59 205.132 141.991C206.808 140.909 208.268 139.966 209.555 139.136C214.213 138.826 221.11 139.498 235.903 143.492H235.901Z" fill="#FAAA1F"/>
<path d="M231.98 142.952C220.144 139.762 214.018 139.115 209.704 139.33C208.669 140.006 207.524 140.753 206.248 141.582C210.864 141.34 217.313 142.425 231.05 147.841C231.469 145.966 231.77 144.352 231.978 142.952H231.98Z" fill="#FFDD00"/>
<path d="M212.213 140.395C212.952 139.834 214.602 139.696 215.591 139.815C216.592 139.963 218.278 140.433 217.557 141.175C216.752 141.918 214.277 141.773 213.328 141.618C212.29 141.449 211.409 140.98 212.211 140.395H212.213Z" fill="#FAAA1F"/>
<path d="M213.398 141.37C213.486 141.299 213.53 141.265 213.618 141.197C213.267 141.141 212.92 141.017 213.011 140.815C213.177 140.816 213.261 140.818 213.429 140.823C213.373 140.908 213.502 141.002 213.794 141.056C213.97 140.918 214.057 140.847 214.23 140.71C214.182 140.696 214.158 140.688 214.111 140.673C213.85 140.599 213.593 140.484 213.783 140.311C214.053 140.115 214.615 140.095 214.956 140.13C215.044 140.058 215.088 140.022 215.176 139.952C215.287 139.965 215.344 139.973 215.457 139.988C215.369 140.059 215.323 140.095 215.233 140.167C215.555 140.221 215.881 140.343 215.803 140.534C215.615 140.524 215.522 140.521 215.338 140.513C215.383 140.417 215.279 140.348 215.062 140.304C214.9 140.433 214.819 140.498 214.654 140.63C214.708 140.648 214.736 140.657 214.789 140.675C215.235 140.802 215.356 140.965 215.21 141.079C214.889 141.299 214.248 141.281 213.89 141.236C213.802 141.306 213.758 141.34 213.668 141.41C213.559 141.394 213.505 141.386 213.398 141.37ZM214.404 140.551C214.404 140.551 214.416 140.554 214.424 140.557C214.571 140.44 214.644 140.382 214.788 140.267C214.546 140.25 214.315 140.276 214.213 140.358C214.16 140.4 214.117 140.461 214.406 140.552L214.404 140.551ZM214.463 140.782C214.308 140.906 214.23 140.968 214.07 141.092C214.38 141.118 214.621 141.089 214.724 141.007C214.827 140.927 214.696 140.856 214.483 140.787C214.474 140.784 214.471 140.784 214.463 140.781V140.782Z" fill="#FFDD00"/>
<path d="M206.204 141.598C206.519 141.394 206.826 141.193 207.124 140.999C207.628 140.968 207.71 141.228 207.204 141.557C206.865 141.565 206.533 141.58 206.205 141.598H206.204Z" fill="#FAAA1F"/>
<path d="M209.699 139.32C209.487 139.459 209.27 139.599 209.049 139.744C209.5 139.72 210.232 139.54 210.625 139.283C210.311 139.292 210.002 139.306 209.7 139.32H209.699Z" fill="#FAAA1F"/>
<path d="M231.226 147.945C231.342 147.42 231.398 147.16 231.5 146.645C229.738 146.046 225.744 144.705 224.993 145.547C226.787 146.204 228.847 146.989 231.226 147.945Z" fill="#FAAA1F"/>
<path d="M232.127 142.97C232.078 143.337 232.052 143.522 231.993 143.899C229.95 143.261 226.868 142.319 227.013 141.637C228.528 142.011 230.225 142.45 232.127 142.97Z" fill="#FAAA1F"/>
<path d="M240.148 145.923C236.943 147.535 233.54 149.17 229.926 150.802C219.342 141.812 213.673 139.705 209.493 139.449C211.229 138.713 212.908 138.002 214.532 137.313C219.311 137.483 226.402 139.098 240.146 145.923H240.148Z" fill="#FAAA1F"/>
<path d="M214.548 137.508C218.903 137.749 225.054 139.235 235.865 144.623C233.393 145.781 230.807 146.945 228.113 148.105C219.418 141.417 214.295 139.573 210.415 139.25C211.83 138.655 213.207 138.074 214.548 137.508Z" fill="#FFDD00"/>
<path d="M216.145 138.855C217.242 138.393 218.978 138.451 219.886 138.694C220.797 138.974 222.146 139.678 220.707 140.296C219.291 140.857 217.085 140.382 216.333 140.12C215.52 139.836 215.041 139.304 216.145 138.855Z" fill="#FAAA1F"/>
<path d="M216.563 139.909C216.692 139.857 216.755 139.833 216.884 139.78C216.602 139.684 216.37 139.526 216.592 139.351C216.744 139.374 216.821 139.386 216.974 139.412C216.861 139.483 216.915 139.588 217.147 139.676C217.413 139.57 217.545 139.516 217.811 139.408C217.777 139.389 217.759 139.377 217.725 139.358C217.532 139.255 217.374 139.111 217.684 138.968C218.097 138.81 218.664 138.859 218.974 138.937C219.123 138.876 219.196 138.847 219.343 138.787C219.444 138.814 219.496 138.829 219.598 138.859C219.446 138.919 219.371 138.95 219.219 139.01C219.498 139.105 219.723 139.27 219.483 139.446C219.304 139.412 219.214 139.395 219.038 139.364C219.162 139.276 219.115 139.196 218.935 139.124C218.671 139.231 218.54 139.283 218.276 139.389C218.315 139.413 218.333 139.425 218.372 139.449C218.704 139.63 218.694 139.798 218.464 139.886C217.989 140.046 217.403 139.945 217.103 139.855C216.972 139.908 216.907 139.932 216.777 139.984C216.688 139.955 216.646 139.94 216.558 139.913L216.563 139.909ZM218.098 139.278C218.098 139.278 218.106 139.283 218.111 139.286C218.345 139.191 218.462 139.144 218.695 139.049C218.47 139.002 218.222 139 218.061 139.066C217.976 139.1 217.888 139.154 218.098 139.278ZM217.977 139.506C217.736 139.603 217.617 139.65 217.375 139.746C217.646 139.811 217.896 139.815 218.054 139.754C218.212 139.692 218.144 139.609 217.991 139.516C217.986 139.513 217.982 139.511 217.977 139.508V139.506Z" fill="#FFDD00"/>
<path d="M210.407 139.253C210.736 139.115 211.064 138.976 211.391 138.839C211.807 138.868 211.745 139.105 211.19 139.333C210.924 139.302 210.663 139.276 210.405 139.253H210.407Z" fill="#FAAA1F"/>
<path d="M214.549 137.503C214.272 137.62 213.995 137.738 213.714 137.855C214.125 137.878 214.895 137.778 215.424 137.561C215.127 137.539 214.835 137.519 214.549 137.503Z" fill="#FAAA1F"/>
<path d="M228.045 148C228.74 147.703 229.09 147.552 229.802 147.24C228.572 146.447 225.77 144.661 224.171 145.134C225.325 145.943 226.615 146.888 228.045 148Z" fill="#FAAA1F"/>
<path d="M235.692 144.572C235.036 144.881 234.71 145.033 234.061 145.331C232.386 144.351 229.844 142.898 230.957 142.287C232.372 142.936 233.95 143.69 235.692 144.571V144.572Z" fill="#FAAA1F"/>
<path d="M144.589 57.5353C143.904 64.7879 143.176 71.5836 142.373 77.9599C116.398 76.2761 99.2676 82.2396 90.2382 91.2331C88.8203 85.48 87.3241 79.4023 85.7415 72.977C96.9115 62.2638 116.595 55.0438 144.589 57.537V57.5353Z" fill="#222222"/>
<path d="M87.2378 73.6638C97.7356 64.3358 115.148 58.0492 139.622 59.2599C139.148 65.1337 138.626 70.7007 138.058 75.9807C115.179 75.1844 99.6365 80.5671 90.7376 88.6437C89.6281 83.8777 88.4631 78.8898 87.2378 73.6654V73.6638Z" fill="#FFDD00"/>
<path d="M99.0017 74.4927C98.3898 70.5295 101.839 66.9661 104.667 65.9708C107.515 65.1648 112.593 65.0701 112.905 69.7578C113.021 73.9706 107.949 76.9059 105.646 77.7184C103.02 78.6436 99.4993 78.234 99.0017 74.4927Z" fill="#FAAA1F"/>
<path d="M105.035 76.6856C105.001 76.2826 104.985 76.0802 104.949 75.674C104.04 75.984 102.89 76.0166 102.387 75.0393C102.758 74.788 102.944 74.6624 103.324 74.416C103.494 74.8647 104.083 75.0556 104.876 74.8353C104.8 73.9803 104.763 73.548 104.685 72.6767C104.53 72.6848 104.453 72.6897 104.3 72.6979C103.474 72.7762 102.495 72.6587 102.283 71.5345C102.172 70.1265 103.404 69.1018 104.317 68.7249C104.269 68.2077 104.242 67.9482 104.192 67.4245C104.503 67.3152 104.66 67.2613 104.975 67.1553C105.021 67.6839 105.042 67.9483 105.086 68.4704C106 68.2322 107.127 68.3398 107.543 69.4053C107.106 69.6517 106.891 69.7773 106.465 70.0302C106.256 69.4901 105.801 69.3156 105.168 69.4396C105.241 70.332 105.277 70.7742 105.347 71.6504C105.522 71.6471 105.61 71.6455 105.784 71.6439C107.137 71.5411 107.871 72.0811 107.897 72.7942C107.866 74.1957 106.509 75.0703 105.636 75.4243C105.667 75.8322 105.682 76.0345 105.711 76.4392C105.438 76.5371 105.305 76.586 105.035 76.6856ZM104.531 71.6765C104.557 71.6765 104.569 71.6765 104.595 71.6765C104.523 70.8901 104.486 70.4936 104.411 69.6941C103.802 70.0008 103.368 70.5115 103.43 71.0679C103.463 71.36 103.578 71.714 104.531 71.6781V71.6765ZM105.424 72.6424C105.484 73.424 105.515 73.8107 105.572 74.5775C106.298 74.2186 106.709 73.7307 106.68 73.2314C106.651 72.7289 106.158 72.613 105.486 72.6408C105.461 72.6408 105.448 72.6408 105.422 72.6408L105.424 72.6424Z" fill="#FFDD00"/>
<path d="M90.7621 88.5262C90.5109 87.4412 90.2563 86.3448 89.9985 85.2385C91.0036 84.3036 92.3889 85.0166 92.7413 86.831C92.0511 87.3906 91.3936 87.9552 90.7621 88.5262Z" fill="#FAAA1F"/>
<path d="M87.3047 73.6948C87.5641 74.806 87.8219 75.9057 88.0764 76.9956C89.106 76.0574 90.0197 73.8384 89.6053 71.7548C88.8041 72.3961 88.0405 73.0422 87.3047 73.6948Z" fill="#FAAA1F"/>
<path d="M137.87 75.8927C138.015 74.5646 138.087 73.8793 138.231 72.4679C136.136 72.5006 130.642 72.6327 130.035 75.816C132.556 75.7573 135.175 75.7703 137.87 75.8927Z" fill="#FAAA1F"/>
<path d="M139.407 59.3399C139.282 60.9519 139.216 61.7383 139.087 63.2688C136.198 62.9751 131.168 62.5639 131.055 59.1653C133.759 59.1229 136.552 59.1653 139.409 59.3399H139.407Z" fill="#FAAA1F"/>
<path d="M77.014 76.5681C80.6182 82.8988 83.9255 88.8803 86.9293 94.5616C64.6969 108.099 54.0979 122.82 51.8708 135.367C47.4067 131.47 42.6913 127.355 37.7051 123.002C40.6975 107.817 52.667 90.6033 77.014 76.5681Z" fill="#222222"/>
<path d="M39.3237 122.705C42.5609 109.039 53.2055 93.8943 73.9385 80.8299C76.9227 85.9108 79.6932 90.7681 82.2597 95.4166C63.0719 107.903 53.4389 121.235 50.7907 132.957C47.1457 129.692 43.3261 126.277 39.3237 122.704V122.705Z" fill="#FFDD00"/>
<path d="M49.4315 116.629C46.6545 113.736 47.4328 108.838 49.1754 106.399C51.0436 104.103 55.1471 101.109 58.0938 104.769C60.6081 108.153 58.1428 113.467 56.7232 115.454C55.1047 117.721 51.9883 119.406 49.4315 116.629Z" fill="#FAAA1F"/>
<path d="M55.6317 114.96C55.3723 114.65 55.2418 114.493 54.9791 114.18C54.4129 114.955 53.4894 115.644 52.5186 115.131C52.6769 114.712 52.7584 114.503 52.9281 114.084C53.3246 114.355 53.9169 114.172 54.4406 113.536C53.8891 112.878 53.6085 112.547 53.044 111.878C52.9232 111.973 52.8612 112.022 52.7405 112.116C52.1107 112.653 51.2394 113.12 50.422 112.322C49.5229 111.232 49.9423 109.687 50.4742 108.855C50.1364 108.46 49.9667 108.261 49.6257 107.863C49.8183 107.595 49.9145 107.461 50.112 107.192C50.453 107.6 50.6226 107.802 50.9588 108.205C51.5706 107.486 52.5545 106.926 53.5073 107.561C53.292 108.013 53.1859 108.239 52.982 108.691C52.5023 108.37 52.0275 108.489 51.5804 108.952C52.1531 109.641 52.437 109.984 52.9967 110.661C53.137 110.558 53.2088 110.506 53.3507 110.403C54.3998 109.541 55.3103 109.563 55.741 110.131C56.5209 111.297 55.9107 112.792 55.4 113.581C55.6595 113.898 55.7883 114.055 56.0429 114.369C55.8765 114.606 55.7932 114.723 55.6317 114.958V114.96ZM52.3424 111.149C52.3636 111.134 52.3734 111.126 52.3946 111.111C51.8839 110.509 51.6261 110.206 51.1056 109.594C50.7842 110.194 50.7222 110.861 51.0909 111.281C51.2851 111.501 51.5837 111.725 52.3424 111.147V111.149ZM53.6281 111.426C54.1257 112.03 54.3737 112.33 54.8616 112.925C55.2499 112.214 55.3054 111.579 54.997 111.188C54.6854 110.793 54.2155 110.982 53.6803 111.39C53.6591 111.405 53.6493 111.411 53.6281 111.426Z" fill="#FFDD00"/>
<path d="M50.7448 132.849C49.9159 132.105 49.0773 131.355 48.2305 130.596C48.516 129.253 50.0595 129.043 51.3909 130.325C51.1462 131.18 50.9324 132.019 50.7448 132.849Z" fill="#FAAA1F"/>
<path d="M39.3987 122.692C40.2504 123.453 41.0923 124.206 41.9261 124.952C42.2295 123.593 41.7042 121.252 40.1672 119.785C39.88 120.77 39.6255 121.736 39.3987 122.694V122.692Z" fill="#FAAA1F"/>
<path d="M82.0572 95.4542C81.4127 94.2843 81.0782 93.6806 80.3848 92.4438C78.6879 93.6741 74.2662 96.9357 75.5976 99.8922C77.6273 98.3976 79.7794 96.903 82.0555 95.4558L82.0572 95.4542Z" fill="#FAAA1F"/>
<path d="M73.8094 81.0209C74.6317 82.4127 75.0298 83.093 75.8032 84.4212C73.2677 85.8391 68.9145 88.3925 66.8701 85.6742C69.0597 84.0883 71.3718 82.5187 73.8094 81.0209Z" fill="#FAAA1F"/>
<path d="M226.218 177.087L225.469 179.866L216.992 176.776L217.175 174.062" stroke="#FAAA1F" stroke-width="3.04" stroke-miterlimit="10"/>
<path d="M222.928 176.697L220.393 175.779L220.668 174.527L223.165 175.428L222.928 176.697Z" fill="#FFDD00"/>
<path d="M222.708 177.883L220.135 176.949L220.334 176.045L222.878 176.968L222.708 177.883Z" fill="#FFDD00"/>
<path d="M225.113 176.968L218.42 174.544L222.595 171.628L225.113 176.968Z" fill="#FFDD00"/>
<path d="M218.205 178.831C218.089 178.683 217.89 178.521 217.677 178.443C217.428 178.352 217.261 178.412 217.221 178.57C217.195 178.672 217.247 178.784 217.371 178.918L217.717 179.296C218.01 179.606 218.092 179.851 218.028 180.119C217.94 180.491 217.575 180.729 216.982 180.51C216.71 180.411 216.491 180.254 216.349 180.122L216.47 179.657C216.584 179.814 216.803 180.013 217.062 180.109C217.333 180.209 217.506 180.129 217.547 179.965C217.573 179.856 217.522 179.735 217.374 179.575L217.02 179.192C216.738 178.898 216.684 178.665 216.749 178.412C216.831 178.094 217.149 177.839 217.78 178.069C217.991 178.146 218.173 178.27 218.311 178.396L218.206 178.83L218.205 178.831Z" fill="#FAAA1F"/>
<path d="M219.038 179.561C219.182 179.429 219.381 179.378 219.637 179.471C220.06 179.626 220.27 180.011 220.187 180.409L219.946 181.558L219.51 181.398L219.735 180.354C219.787 180.115 219.67 179.897 219.42 179.805C219.171 179.714 218.99 179.81 218.931 180.036L218.689 181.098L218.254 180.938L218.83 178.461L219.252 178.616L219.037 179.562L219.038 179.561Z" fill="#FAAA1F"/>
<path d="M220.849 180.034C221.001 180.024 221.213 180.047 221.419 180.124C221.894 180.297 222.161 180.623 222.067 181.13L221.856 182.261L221.419 182.1L221.452 181.93C221.329 182.018 221.142 182.041 220.934 181.964C220.505 181.806 220.329 181.437 220.396 181.119C220.463 180.801 220.787 180.628 221.179 180.771C221.367 180.84 221.528 180.982 221.608 181.112L221.638 180.962C221.686 180.706 221.518 180.536 221.305 180.458C221.128 180.394 220.939 180.383 220.773 180.416L220.851 180.034H220.849ZM221.115 181.698C221.31 181.77 221.492 181.698 221.525 181.533C221.558 181.369 221.424 181.179 221.231 181.109C221.039 181.039 220.859 181.114 220.827 181.277C220.794 181.44 220.926 181.628 221.115 181.698Z" fill="#FAAA1F"/>
<path d="M223.057 180.993C223.173 180.877 223.347 180.829 223.573 180.912C223.623 180.93 223.685 180.957 223.731 180.982L223.659 181.409C223.594 181.354 223.506 181.303 223.408 181.267C223.173 181.181 223.013 181.287 222.964 181.515L222.775 182.6L222.337 182.439L222.665 180.62L223.094 180.776L223.057 180.995V180.993Z" fill="#FAAA1F"/>
<path d="M224.126 182.258C224.126 182.54 224.333 182.811 224.651 182.928C224.91 183.023 225.178 183.026 225.366 182.974L225.307 183.389C225.126 183.42 224.858 183.405 224.563 183.297C223.984 183.083 223.618 182.524 223.711 181.959C223.799 181.422 224.276 181.168 224.83 181.37C225.382 181.573 225.69 182.1 225.622 182.584C225.612 182.656 225.588 182.738 225.565 182.785L224.127 182.258H224.126ZM224.171 181.94L225.217 182.323C225.247 182.064 225.056 181.811 224.773 181.706C224.483 181.6 224.237 181.713 224.171 181.94Z" fill="#FAAA1F"/>
<path d="M207.884 176.913L192.524 170.993C192.061 170.814 191.726 170.26 191.777 169.755L192.231 165.291C192.281 164.786 192.699 164.516 193.164 164.688L208.54 170.388C209.04 170.572 209.4 171.148 209.348 171.672L208.883 176.312C208.831 176.837 208.384 177.107 207.884 176.916V176.913Z" fill="#00E15A"/>
<path d="M195.713 167.069L196.762 167.461C197.643 167.79 198.139 168.655 198.044 169.58C197.951 170.505 197.323 170.947 196.442 170.611L195.393 170.212L195.711 167.067L195.713 167.069ZM196.15 167.756L195.933 169.893L196.489 170.106C197.082 170.331 197.473 170.003 197.535 169.389C197.597 168.776 197.299 168.187 196.706 167.965L196.148 167.756H196.15Z" fill="white"/>
<path d="M199.542 169.362C200.168 169.597 200.606 170.3 200.537 170.979C200.469 171.652 199.927 171.993 199.3 171.755C198.671 171.515 198.243 170.806 198.312 170.137C198.38 169.463 198.912 169.127 199.542 169.363V169.362ZM199.351 171.251C199.712 171.388 200.009 171.176 200.048 170.793C200.087 170.409 199.852 169.996 199.491 169.861C199.136 169.727 198.83 169.936 198.791 170.318C198.752 170.699 198.994 171.116 199.351 171.251Z" fill="white"/>
<path d="M201.518 170.494C201.655 170.313 201.872 170.238 202.162 170.347C202.642 170.528 202.913 171.019 202.861 171.536L202.712 173.003L202.227 172.819L202.361 171.486C202.392 171.176 202.242 170.9 201.957 170.792C201.684 170.69 201.493 170.822 201.454 171.114L201.317 172.473L200.836 172.289L201.067 169.986L201.549 170.168L201.516 170.495L201.518 170.494Z" fill="white"/>
<path d="M203.706 172.359C203.721 172.711 203.959 173.042 204.314 173.176C204.603 173.286 204.9 173.281 205.106 173.212L205.054 173.728C204.855 173.77 204.561 173.76 204.231 173.635C203.588 173.39 203.161 172.708 203.233 171.998C203.301 171.316 203.818 170.969 204.448 171.205C205.075 171.44 205.439 172.103 205.378 172.716C205.368 172.806 205.346 172.91 205.321 172.969L203.707 172.357L203.706 172.359ZM203.742 171.957L204.918 172.403C204.943 172.073 204.719 171.76 204.399 171.639C204.071 171.515 203.802 171.669 203.74 171.957H203.742Z" fill="white"/>
<defs>
<linearGradient id="paint0_linear_26_676" x1="97.4468" y1="184.459" x2="20.0232" y2="197.977" gradientUnits="userSpaceOnUse">
<stop stop-color="white"/>
<stop offset="0.02" stop-color="#F1F1F1"/>
<stop offset="0.08" stop-color="#D2D1D1"/>
<stop offset="0.15" stop-color="#B8B6B6"/>
<stop offset="0.22" stop-color="#A2A0A1"/>
<stop offset="0.31" stop-color="#928F90"/>
<stop offset="0.42" stop-color="#868384"/>
<stop offset="0.57" stop-color="#7F7C7D"/>
<stop offset="1" stop-color="#7E7B7C"/>
</linearGradient>
<linearGradient id="paint1_linear_26_676" x1="26.6315" y1="158.541" x2="111.123" y2="195.444" gradientUnits="userSpaceOnUse">
<stop stop-color="#3F0B02"/>
<stop offset="0.05" stop-color="#4E1F17"/>
<stop offset="0.2" stop-color="#795650"/>
<stop offset="0.34" stop-color="#9E8681"/>
<stop offset="0.48" stop-color="#BCACAA"/>
<stop offset="0.62" stop-color="#D3CBC9"/>
<stop offset="0.76" stop-color="#E4E0DF"/>
<stop offset="0.89" stop-color="#EEEDED"/>
<stop offset="1" stop-color="#F2F2F2"/>
</linearGradient>
<linearGradient id="paint2_linear_26_676" x1="183.355" y1="183.398" x2="260.778" y2="196.916" gradientUnits="userSpaceOnUse">
<stop stop-color="white"/>
<stop offset="0.02" stop-color="#F1F1F1"/>
<stop offset="0.08" stop-color="#D2D1D1"/>
<stop offset="0.15" stop-color="#B8B6B6"/>
<stop offset="0.22" stop-color="#A2A0A1"/>
<stop offset="0.31" stop-color="#928F90"/>
<stop offset="0.42" stop-color="#868384"/>
<stop offset="0.57" stop-color="#7F7C7D"/>
<stop offset="1" stop-color="#7E7B7C"/>
</linearGradient>
</defs>
</svg>
